%TF.GenerationSoftware,KiCad,Pcbnew,8.0.6*%
%TF.CreationDate,2025-04-15T16:38:21+01:00*%
%TF.ProjectId,PicoSynth,5069636f-5379-46e7-9468-2e6b69636164,rev?*%
%TF.SameCoordinates,Original*%
%TF.FileFunction,Paste,Top*%
%TF.FilePolarity,Positive*%
%FSLAX46Y46*%
G04 Gerber Fmt 4.6, Leading zero omitted, Abs format (unit mm)*
G04 Created by KiCad (PCBNEW 8.0.6) date 2025-04-15 16:38:21*
%MOMM*%
%LPD*%
G01*
G04 APERTURE LIST*
G04 Aperture macros list*
%AMRoundRect*
0 Rectangle with rounded corners*
0 $1 Rounding radius*
0 $2 $3 $4 $5 $6 $7 $8 $9 X,Y pos of 4 corners*
0 Add a 4 corners polygon primitive as box body*
4,1,4,$2,$3,$4,$5,$6,$7,$8,$9,$2,$3,0*
0 Add four circle primitives for the rounded corners*
1,1,$1+$1,$2,$3*
1,1,$1+$1,$4,$5*
1,1,$1+$1,$6,$7*
1,1,$1+$1,$8,$9*
0 Add four rect primitives between the rounded corners*
20,1,$1+$1,$2,$3,$4,$5,0*
20,1,$1+$1,$4,$5,$6,$7,0*
20,1,$1+$1,$6,$7,$8,$9,0*
20,1,$1+$1,$8,$9,$2,$3,0*%
G04 Aperture macros list end*
%ADD10RoundRect,0.250001X0.462499X1.074999X-0.462499X1.074999X-0.462499X-1.074999X0.462499X-1.074999X0*%
%ADD11RoundRect,0.193720X-0.386280X-0.486280X0.386280X-0.486280X0.386280X0.486280X-0.386280X0.486280X0*%
%ADD12RoundRect,0.192950X-0.374550X-0.512050X0.374550X-0.512050X0.374550X0.512050X-0.374550X0.512050X0*%
%ADD13RoundRect,0.193720X-0.486280X0.386280X-0.486280X-0.386280X0.486280X-0.386280X0.486280X0.386280X0*%
%ADD14RoundRect,0.150000X-0.875000X-0.150000X0.875000X-0.150000X0.875000X0.150000X-0.875000X0.150000X0*%
%ADD15RoundRect,0.375000X-0.375000X0.625000X-0.375000X-0.625000X0.375000X-0.625000X0.375000X0.625000X0*%
%ADD16RoundRect,0.500000X-1.400000X0.500000X-1.400000X-0.500000X1.400000X-0.500000X1.400000X0.500000X0*%
%ADD17RoundRect,0.242453X0.637547X-0.400047X0.637547X0.400047X-0.637547X0.400047X-0.637547X-0.400047X0*%
G04 APERTURE END LIST*
D10*
%TO.C,D31*%
X175985500Y-112903000D03*
X173010500Y-112903000D03*
%TD*%
D11*
%TO.C,R34*%
X130551500Y-112776000D03*
X132551500Y-112776000D03*
%TD*%
D12*
%TO.C,C16*%
X146184800Y-63246000D03*
X148259800Y-63246000D03*
%TD*%
D11*
%TO.C,R27*%
X92054500Y-93472000D03*
X94054500Y-93472000D03*
%TD*%
D10*
%TO.C,D25*%
X118110000Y-93472000D03*
X115135000Y-93472000D03*
%TD*%
%TO.C,D30*%
X175985500Y-93472000D03*
X173010500Y-93472000D03*
%TD*%
D12*
%TO.C,C15*%
X146177000Y-61087000D03*
X148252000Y-61087000D03*
%TD*%
D10*
%TO.C,D24*%
X118164000Y-112776000D03*
X115189000Y-112776000D03*
%TD*%
%TO.C,D18*%
X60161500Y-112826800D03*
X57186500Y-112826800D03*
%TD*%
%TO.C,D33*%
X195270500Y-112776000D03*
X192295500Y-112776000D03*
%TD*%
D11*
%TO.C,R25*%
X72761600Y-112826800D03*
X74761600Y-112826800D03*
%TD*%
%TO.C,R36*%
X149876000Y-112903000D03*
X151876000Y-112903000D03*
%TD*%
D13*
%TO.C,R54*%
X58166000Y-55483000D03*
X58166000Y-57483000D03*
%TD*%
%TO.C,R52*%
X74168000Y-55515000D03*
X74168000Y-57515000D03*
%TD*%
D12*
%TO.C,C29*%
X164775500Y-63423800D03*
X166850500Y-63423800D03*
%TD*%
D10*
%TO.C,D32*%
X195289500Y-93472000D03*
X192314500Y-93472000D03*
%TD*%
%TO.C,D19*%
X60161500Y-93472000D03*
X57186500Y-93472000D03*
%TD*%
%TO.C,D20*%
X79567100Y-112826800D03*
X76592100Y-112826800D03*
%TD*%
D11*
%TO.C,R40*%
X188481000Y-112776000D03*
X190481000Y-112776000D03*
%TD*%
D12*
%TO.C,C31*%
X127999359Y-64058799D03*
X130074359Y-64058799D03*
%TD*%
D10*
%TO.C,D28*%
X156681500Y-93472000D03*
X153706500Y-93472000D03*
%TD*%
%TO.C,D26*%
X137341000Y-93472000D03*
X134366000Y-93472000D03*
%TD*%
D11*
%TO.C,R35*%
X149892000Y-93345000D03*
X151892000Y-93345000D03*
%TD*%
D13*
%TO.C,R48*%
X81153000Y-55515000D03*
X81153000Y-57515000D03*
%TD*%
D10*
%TO.C,D21*%
X79465500Y-93472000D03*
X76490500Y-93472000D03*
%TD*%
D12*
%TO.C,C32*%
X127994500Y-61899800D03*
X130069500Y-61899800D03*
%TD*%
D13*
%TO.C,R53*%
X60452000Y-55499000D03*
X60452000Y-57499000D03*
%TD*%
D12*
%TO.C,C35*%
X47984500Y-64770000D03*
X50059500Y-64770000D03*
%TD*%
D13*
%TO.C,R51*%
X71882000Y-55515000D03*
X71882000Y-57515000D03*
%TD*%
%TO.C,R50*%
X67310000Y-55499000D03*
X67310000Y-57499000D03*
%TD*%
D12*
%TO.C,C30*%
X164775500Y-61220800D03*
X166850500Y-61220800D03*
%TD*%
D10*
%TO.C,D27*%
X137341000Y-112776000D03*
X134366000Y-112776000D03*
%TD*%
D14*
%TO.C,U7*%
X152957000Y-61391800D03*
X152957000Y-62661800D03*
X152957000Y-63931800D03*
X152957000Y-65201800D03*
X152957000Y-66471800D03*
X152957000Y-67741800D03*
X152957000Y-69011800D03*
X152957000Y-70281800D03*
X162257000Y-70281800D03*
X162257000Y-69011800D03*
X162257000Y-67741800D03*
X162257000Y-66471800D03*
X162257000Y-65201800D03*
X162257000Y-63931800D03*
X162257000Y-62661800D03*
X162257000Y-61391800D03*
%TD*%
D11*
%TO.C,R26*%
X72660000Y-93472000D03*
X74660000Y-93472000D03*
%TD*%
%TO.C,R38*%
X169069000Y-112887000D03*
X171069000Y-112887000D03*
%TD*%
%TO.C,R33*%
X130553000Y-93462000D03*
X132553000Y-93462000D03*
%TD*%
%TO.C,R30*%
X111352000Y-93472000D03*
X113352000Y-93472000D03*
%TD*%
D13*
%TO.C,R46*%
X69596000Y-55515000D03*
X69596000Y-57515000D03*
%TD*%
D10*
%TO.C,D23*%
X98769500Y-112776000D03*
X95794500Y-112776000D03*
%TD*%
D15*
%TO.C,U8*%
X52592000Y-67056000D03*
X50292000Y-67056000D03*
D16*
X50292000Y-73356000D03*
D15*
X47992000Y-67056000D03*
%TD*%
D14*
%TO.C,U6*%
X116430000Y-62026800D03*
X116430000Y-63296800D03*
X116430000Y-64566800D03*
X116430000Y-65836800D03*
X116430000Y-67106800D03*
X116430000Y-68376800D03*
X116430000Y-69646800D03*
X116430000Y-70916800D03*
X125730000Y-70916800D03*
X125730000Y-69646800D03*
X125730000Y-68376800D03*
X125730000Y-67106800D03*
X125730000Y-65836800D03*
X125730000Y-64566800D03*
X125730000Y-63296800D03*
X125730000Y-62026800D03*
%TD*%
D13*
%TO.C,R49*%
X65024000Y-55515000D03*
X65024000Y-57515000D03*
%TD*%
D12*
%TO.C,C36*%
X55329000Y-73406000D03*
X57404000Y-73406000D03*
%TD*%
D13*
%TO.C,R32*%
X62738000Y-55515000D03*
X62738000Y-57515000D03*
%TD*%
D11*
%TO.C,R37*%
X169069000Y-93472000D03*
X171069000Y-93472000D03*
%TD*%
D14*
%TO.C,U5*%
X134364200Y-63296800D03*
X134364200Y-64566800D03*
X134364200Y-65836800D03*
X134364200Y-67106800D03*
X134364200Y-68376800D03*
X134364200Y-69646800D03*
X134364200Y-70916800D03*
X134364200Y-72186800D03*
X143664200Y-72186800D03*
X143664200Y-70916800D03*
X143664200Y-69646800D03*
X143664200Y-68376800D03*
X143664200Y-67106800D03*
X143664200Y-65836800D03*
X143664200Y-64566800D03*
X143664200Y-63296800D03*
%TD*%
D11*
%TO.C,R29*%
X111358500Y-112776000D03*
X113358500Y-112776000D03*
%TD*%
D10*
%TO.C,D22*%
X98769500Y-93472000D03*
X95794500Y-93472000D03*
%TD*%
%TO.C,D29*%
X156732300Y-112877600D03*
X153757300Y-112877600D03*
%TD*%
D11*
%TO.C,R24*%
X53356000Y-93472000D03*
X55356000Y-93472000D03*
%TD*%
%TO.C,R39*%
X188484000Y-93472000D03*
X190484000Y-93472000D03*
%TD*%
D13*
%TO.C,R47*%
X78867000Y-55483000D03*
X78867000Y-57483000D03*
%TD*%
%TO.C,R31*%
X76454000Y-55499000D03*
X76454000Y-57499000D03*
%TD*%
D11*
%TO.C,R28*%
X91964000Y-112776000D03*
X93964000Y-112776000D03*
%TD*%
D17*
%TO.C,C37*%
X55372000Y-70142500D03*
X55372000Y-67017500D03*
%TD*%
D11*
%TO.C,R23*%
X53372000Y-112826800D03*
X55372000Y-112826800D03*
%TD*%
D13*
%TO.C,R45*%
X55880000Y-55483000D03*
X55880000Y-57483000D03*
%TD*%
M02*
