%TF.GenerationSoftware,KiCad,Pcbnew,8.0.6*%
%TF.CreationDate,2025-04-15T16:38:21+01:00*%
%TF.ProjectId,PicoSynth,5069636f-5379-46e7-9468-2e6b69636164,rev?*%
%TF.SameCoordinates,Original*%
%TF.FileFunction,Legend,Bot*%
%TF.FilePolarity,Positive*%
%FSLAX46Y46*%
G04 Gerber Fmt 4.6, Leading zero omitted, Abs format (unit mm)*
G04 Created by KiCad (PCBNEW 8.0.6) date 2025-04-15 16:38:21*
%MOMM*%
%LPD*%
G01*
G04 APERTURE LIST*
G04 Aperture macros list*
%AMRoundRect*
0 Rectangle with rounded corners*
0 $1 Rounding radius*
0 $2 $3 $4 $5 $6 $7 $8 $9 X,Y pos of 4 corners*
0 Add a 4 corners polygon primitive as box body*
4,1,4,$2,$3,$4,$5,$6,$7,$8,$9,$2,$3,0*
0 Add four circle primitives for the rounded corners*
1,1,$1+$1,$2,$3*
1,1,$1+$1,$4,$5*
1,1,$1+$1,$6,$7*
1,1,$1+$1,$8,$9*
0 Add four rect primitives between the rounded corners*
20,1,$1+$1,$2,$3,$4,$5,0*
20,1,$1+$1,$4,$5,$6,$7,0*
20,1,$1+$1,$6,$7,$8,$9,0*
20,1,$1+$1,$8,$9,$2,$3,0*%
%AMFreePoly0*
4,1,19,0.550000,-0.750000,0.000000,-0.750000,0.000000,-0.744911,-0.071157,-0.744911,-0.207708,-0.704816,-0.327430,-0.627875,-0.420627,-0.520320,-0.479746,-0.390866,-0.500000,-0.250000,-0.500000,0.250000,-0.479746,0.390866,-0.420627,0.520320,-0.327430,0.627875,-0.207708,0.704816,-0.071157,0.744911,0.000000,0.744911,0.000000,0.750000,0.550000,0.750000,0.550000,-0.750000,0.550000,-0.750000,
$1*%
%AMFreePoly1*
4,1,19,0.000000,0.744911,0.071157,0.744911,0.207708,0.704816,0.327430,0.627875,0.420627,0.520320,0.479746,0.390866,0.500000,0.250000,0.500000,-0.250000,0.479746,-0.390866,0.420627,-0.520320,0.327430,-0.627875,0.207708,-0.704816,0.071157,-0.744911,0.000000,-0.744911,0.000000,-0.750000,-0.550000,-0.750000,-0.550000,0.750000,0.000000,0.750000,0.000000,0.744911,0.000000,0.744911,
$1*%
%AMFreePoly2*
4,1,19,0.500000,-0.750000,0.000000,-0.750000,0.000000,-0.744911,-0.071157,-0.744911,-0.207708,-0.704816,-0.327430,-0.627875,-0.420627,-0.520320,-0.479746,-0.390866,-0.500000,-0.250000,-0.500000,0.250000,-0.479746,0.390866,-0.420627,0.520320,-0.327430,0.627875,-0.207708,0.704816,-0.071157,0.744911,0.000000,0.744911,0.000000,0.750000,0.500000,0.750000,0.500000,-0.750000,0.500000,-0.750000,
$1*%
%AMFreePoly3*
4,1,19,0.000000,0.744911,0.071157,0.744911,0.207708,0.704816,0.327430,0.627875,0.420627,0.520320,0.479746,0.390866,0.500000,0.250000,0.500000,-0.250000,0.479746,-0.390866,0.420627,-0.520320,0.327430,-0.627875,0.207708,-0.704816,0.071157,-0.744911,0.000000,-0.744911,0.000000,-0.750000,-0.500000,-0.750000,-0.500000,0.750000,0.000000,0.750000,0.000000,0.744911,0.000000,0.744911,
$1*%
G04 Aperture macros list end*
%ADD10C,0.153000*%
%ADD11C,0.200000*%
%ADD12C,0.150000*%
%ADD13C,0.120000*%
%ADD14R,1.700000X1.700000*%
%ADD15C,0.700000*%
%ADD16C,4.400000*%
%ADD17O,1.700000X1.700000*%
%ADD18C,1.700000*%
%ADD19C,3.000000*%
%ADD20C,4.000000*%
%ADD21R,2.550000X2.500000*%
%ADD22R,2.000000X2.000000*%
%ADD23C,2.000000*%
%ADD24C,3.200000*%
%ADD25RoundRect,0.250000X-0.450000X0.325000X-0.450000X-0.325000X0.450000X-0.325000X0.450000X0.325000X0*%
%ADD26RoundRect,0.213760X0.526240X-0.426240X0.526240X0.426240X-0.526240X0.426240X-0.526240X-0.426240X0*%
%ADD27RoundRect,0.213350X0.551650X-0.414150X0.551650X0.414150X-0.551650X0.414150X-0.551650X-0.414150X0*%
%ADD28FreePoly0,90.000000*%
%ADD29R,1.500000X1.000000*%
%ADD30FreePoly1,90.000000*%
%ADD31FreePoly0,0.000000*%
%ADD32R,1.000000X1.500000*%
%ADD33FreePoly1,0.000000*%
%ADD34RoundRect,0.213760X0.426240X0.526240X-0.426240X0.526240X-0.426240X-0.526240X0.426240X-0.526240X0*%
%ADD35RoundRect,0.213760X-0.526240X0.426240X-0.526240X-0.426240X0.526240X-0.426240X0.526240X0.426240X0*%
%ADD36O,1.800000X1.800000*%
%ADD37O,1.500000X1.500000*%
%ADD38R,1.700000X3.500000*%
%ADD39FreePoly2,0.000000*%
%ADD40FreePoly3,0.000000*%
%ADD41RoundRect,0.213350X-0.414150X-0.551650X0.414150X-0.551650X0.414150X0.551650X-0.414150X0.551650X0*%
G04 APERTURE END LIST*
D10*
X162446666Y-55235348D02*
X161970476Y-55235348D01*
X162541904Y-55521063D02*
X162208571Y-54521063D01*
X162208571Y-54521063D02*
X161875238Y-55521063D01*
X161589523Y-54616301D02*
X161541904Y-54568682D01*
X161541904Y-54568682D02*
X161446666Y-54521063D01*
X161446666Y-54521063D02*
X161208571Y-54521063D01*
X161208571Y-54521063D02*
X161113333Y-54568682D01*
X161113333Y-54568682D02*
X161065714Y-54616301D01*
X161065714Y-54616301D02*
X161018095Y-54711539D01*
X161018095Y-54711539D02*
X161018095Y-54806777D01*
X161018095Y-54806777D02*
X161065714Y-54949634D01*
X161065714Y-54949634D02*
X161637142Y-55521063D01*
X161637142Y-55521063D02*
X161018095Y-55521063D01*
X143447466Y-57292748D02*
X142971276Y-57292748D01*
X143542704Y-57578463D02*
X143209371Y-56578463D01*
X143209371Y-56578463D02*
X142876038Y-57578463D01*
X142590323Y-56673701D02*
X142542704Y-56626082D01*
X142542704Y-56626082D02*
X142447466Y-56578463D01*
X142447466Y-56578463D02*
X142209371Y-56578463D01*
X142209371Y-56578463D02*
X142114133Y-56626082D01*
X142114133Y-56626082D02*
X142066514Y-56673701D01*
X142066514Y-56673701D02*
X142018895Y-56768939D01*
X142018895Y-56768939D02*
X142018895Y-56864177D01*
X142018895Y-56864177D02*
X142066514Y-57007034D01*
X142066514Y-57007034D02*
X142637942Y-57578463D01*
X142637942Y-57578463D02*
X142018895Y-57578463D01*
X125210266Y-55311548D02*
X124734076Y-55311548D01*
X125305504Y-55597263D02*
X124972171Y-54597263D01*
X124972171Y-54597263D02*
X124638838Y-55597263D01*
X124353123Y-54692501D02*
X124305504Y-54644882D01*
X124305504Y-54644882D02*
X124210266Y-54597263D01*
X124210266Y-54597263D02*
X123972171Y-54597263D01*
X123972171Y-54597263D02*
X123876933Y-54644882D01*
X123876933Y-54644882D02*
X123829314Y-54692501D01*
X123829314Y-54692501D02*
X123781695Y-54787739D01*
X123781695Y-54787739D02*
X123781695Y-54882977D01*
X123781695Y-54882977D02*
X123829314Y-55025834D01*
X123829314Y-55025834D02*
X124400742Y-55597263D01*
X124400742Y-55597263D02*
X123781695Y-55597263D01*
X156807866Y-55286148D02*
X156331676Y-55286148D01*
X156903104Y-55571863D02*
X156569771Y-54571863D01*
X156569771Y-54571863D02*
X156236438Y-55571863D01*
X155379295Y-55571863D02*
X155950723Y-55571863D01*
X155665009Y-55571863D02*
X155665009Y-54571863D01*
X155665009Y-54571863D02*
X155760247Y-54714720D01*
X155760247Y-54714720D02*
X155855485Y-54809958D01*
X155855485Y-54809958D02*
X155950723Y-54857577D01*
X138164266Y-57343548D02*
X137688076Y-57343548D01*
X138259504Y-57629263D02*
X137926171Y-56629263D01*
X137926171Y-56629263D02*
X137592838Y-57629263D01*
X136735695Y-57629263D02*
X137307123Y-57629263D01*
X137021409Y-57629263D02*
X137021409Y-56629263D01*
X137021409Y-56629263D02*
X137116647Y-56772120D01*
X137116647Y-56772120D02*
X137211885Y-56867358D01*
X137211885Y-56867358D02*
X137307123Y-56914977D01*
X120130266Y-55336948D02*
X119654076Y-55336948D01*
X120225504Y-55622663D02*
X119892171Y-54622663D01*
X119892171Y-54622663D02*
X119558838Y-55622663D01*
X118701695Y-55622663D02*
X119273123Y-55622663D01*
X118987409Y-55622663D02*
X118987409Y-54622663D01*
X118987409Y-54622663D02*
X119082647Y-54765520D01*
X119082647Y-54765520D02*
X119177885Y-54860758D01*
X119177885Y-54860758D02*
X119273123Y-54908377D01*
X151651666Y-55311548D02*
X151175476Y-55311548D01*
X151746904Y-55597263D02*
X151413571Y-54597263D01*
X151413571Y-54597263D02*
X151080238Y-55597263D01*
X150556428Y-54597263D02*
X150461190Y-54597263D01*
X150461190Y-54597263D02*
X150365952Y-54644882D01*
X150365952Y-54644882D02*
X150318333Y-54692501D01*
X150318333Y-54692501D02*
X150270714Y-54787739D01*
X150270714Y-54787739D02*
X150223095Y-54978215D01*
X150223095Y-54978215D02*
X150223095Y-55216310D01*
X150223095Y-55216310D02*
X150270714Y-55406786D01*
X150270714Y-55406786D02*
X150318333Y-55502024D01*
X150318333Y-55502024D02*
X150365952Y-55549644D01*
X150365952Y-55549644D02*
X150461190Y-55597263D01*
X150461190Y-55597263D02*
X150556428Y-55597263D01*
X150556428Y-55597263D02*
X150651666Y-55549644D01*
X150651666Y-55549644D02*
X150699285Y-55502024D01*
X150699285Y-55502024D02*
X150746904Y-55406786D01*
X150746904Y-55406786D02*
X150794523Y-55216310D01*
X150794523Y-55216310D02*
X150794523Y-54978215D01*
X150794523Y-54978215D02*
X150746904Y-54787739D01*
X150746904Y-54787739D02*
X150699285Y-54692501D01*
X150699285Y-54692501D02*
X150651666Y-54644882D01*
X150651666Y-54644882D02*
X150556428Y-54597263D01*
X133135066Y-57419748D02*
X132658876Y-57419748D01*
X133230304Y-57705463D02*
X132896971Y-56705463D01*
X132896971Y-56705463D02*
X132563638Y-57705463D01*
X132039828Y-56705463D02*
X131944590Y-56705463D01*
X131944590Y-56705463D02*
X131849352Y-56753082D01*
X131849352Y-56753082D02*
X131801733Y-56800701D01*
X131801733Y-56800701D02*
X131754114Y-56895939D01*
X131754114Y-56895939D02*
X131706495Y-57086415D01*
X131706495Y-57086415D02*
X131706495Y-57324510D01*
X131706495Y-57324510D02*
X131754114Y-57514986D01*
X131754114Y-57514986D02*
X131801733Y-57610224D01*
X131801733Y-57610224D02*
X131849352Y-57657844D01*
X131849352Y-57657844D02*
X131944590Y-57705463D01*
X131944590Y-57705463D02*
X132039828Y-57705463D01*
X132039828Y-57705463D02*
X132135066Y-57657844D01*
X132135066Y-57657844D02*
X132182685Y-57610224D01*
X132182685Y-57610224D02*
X132230304Y-57514986D01*
X132230304Y-57514986D02*
X132277923Y-57324510D01*
X132277923Y-57324510D02*
X132277923Y-57086415D01*
X132277923Y-57086415D02*
X132230304Y-56895939D01*
X132230304Y-56895939D02*
X132182685Y-56800701D01*
X132182685Y-56800701D02*
X132135066Y-56753082D01*
X132135066Y-56753082D02*
X132039828Y-56705463D01*
X114948666Y-55413148D02*
X114472476Y-55413148D01*
X115043904Y-55698863D02*
X114710571Y-54698863D01*
X114710571Y-54698863D02*
X114377238Y-55698863D01*
X113853428Y-54698863D02*
X113758190Y-54698863D01*
X113758190Y-54698863D02*
X113662952Y-54746482D01*
X113662952Y-54746482D02*
X113615333Y-54794101D01*
X113615333Y-54794101D02*
X113567714Y-54889339D01*
X113567714Y-54889339D02*
X113520095Y-55079815D01*
X113520095Y-55079815D02*
X113520095Y-55317910D01*
X113520095Y-55317910D02*
X113567714Y-55508386D01*
X113567714Y-55508386D02*
X113615333Y-55603624D01*
X113615333Y-55603624D02*
X113662952Y-55651244D01*
X113662952Y-55651244D02*
X113758190Y-55698863D01*
X113758190Y-55698863D02*
X113853428Y-55698863D01*
X113853428Y-55698863D02*
X113948666Y-55651244D01*
X113948666Y-55651244D02*
X113996285Y-55603624D01*
X113996285Y-55603624D02*
X114043904Y-55508386D01*
X114043904Y-55508386D02*
X114091523Y-55317910D01*
X114091523Y-55317910D02*
X114091523Y-55079815D01*
X114091523Y-55079815D02*
X114043904Y-54889339D01*
X114043904Y-54889339D02*
X113996285Y-54794101D01*
X113996285Y-54794101D02*
X113948666Y-54746482D01*
X113948666Y-54746482D02*
X113853428Y-54698863D01*
X91863247Y-34988119D02*
X91863247Y-33988119D01*
X91863247Y-33988119D02*
X91529914Y-34702404D01*
X91529914Y-34702404D02*
X91196581Y-33988119D01*
X91196581Y-33988119D02*
X91196581Y-34988119D01*
X90291819Y-34988119D02*
X90291819Y-34464309D01*
X90291819Y-34464309D02*
X90339438Y-34369071D01*
X90339438Y-34369071D02*
X90434676Y-34321452D01*
X90434676Y-34321452D02*
X90625152Y-34321452D01*
X90625152Y-34321452D02*
X90720390Y-34369071D01*
X90291819Y-34940500D02*
X90387057Y-34988119D01*
X90387057Y-34988119D02*
X90625152Y-34988119D01*
X90625152Y-34988119D02*
X90720390Y-34940500D01*
X90720390Y-34940500D02*
X90768009Y-34845261D01*
X90768009Y-34845261D02*
X90768009Y-34750023D01*
X90768009Y-34750023D02*
X90720390Y-34654785D01*
X90720390Y-34654785D02*
X90625152Y-34607166D01*
X90625152Y-34607166D02*
X90387057Y-34607166D01*
X90387057Y-34607166D02*
X90291819Y-34559547D01*
X89958485Y-34321452D02*
X89577533Y-34321452D01*
X89815628Y-33988119D02*
X89815628Y-34845261D01*
X89815628Y-34845261D02*
X89768009Y-34940500D01*
X89768009Y-34940500D02*
X89672771Y-34988119D01*
X89672771Y-34988119D02*
X89577533Y-34988119D01*
X89244199Y-34988119D02*
X89244199Y-34321452D01*
X89244199Y-34511928D02*
X89196580Y-34416690D01*
X89196580Y-34416690D02*
X89148961Y-34369071D01*
X89148961Y-34369071D02*
X89053723Y-34321452D01*
X89053723Y-34321452D02*
X88958485Y-34321452D01*
X88625151Y-34988119D02*
X88625151Y-34321452D01*
X88625151Y-33988119D02*
X88672770Y-34035738D01*
X88672770Y-34035738D02*
X88625151Y-34083357D01*
X88625151Y-34083357D02*
X88577532Y-34035738D01*
X88577532Y-34035738D02*
X88625151Y-33988119D01*
X88625151Y-33988119D02*
X88625151Y-34083357D01*
X88244199Y-34988119D02*
X87720390Y-34321452D01*
X88244199Y-34321452D02*
X87720390Y-34988119D01*
X91863247Y-36598063D02*
X91863247Y-35598063D01*
X91387057Y-35931396D02*
X91387057Y-36598063D01*
X91387057Y-36026634D02*
X91339438Y-35979015D01*
X91339438Y-35979015D02*
X91244200Y-35931396D01*
X91244200Y-35931396D02*
X91101343Y-35931396D01*
X91101343Y-35931396D02*
X91006105Y-35979015D01*
X91006105Y-35979015D02*
X90958486Y-36074253D01*
X90958486Y-36074253D02*
X90958486Y-36598063D01*
X90625152Y-35931396D02*
X90244200Y-35931396D01*
X90482295Y-35598063D02*
X90482295Y-36455205D01*
X90482295Y-36455205D02*
X90434676Y-36550444D01*
X90434676Y-36550444D02*
X90339438Y-36598063D01*
X90339438Y-36598063D02*
X90244200Y-36598063D01*
X89529914Y-36550444D02*
X89625152Y-36598063D01*
X89625152Y-36598063D02*
X89815628Y-36598063D01*
X89815628Y-36598063D02*
X89910866Y-36550444D01*
X89910866Y-36550444D02*
X89958485Y-36455205D01*
X89958485Y-36455205D02*
X89958485Y-36074253D01*
X89958485Y-36074253D02*
X89910866Y-35979015D01*
X89910866Y-35979015D02*
X89815628Y-35931396D01*
X89815628Y-35931396D02*
X89625152Y-35931396D01*
X89625152Y-35931396D02*
X89529914Y-35979015D01*
X89529914Y-35979015D02*
X89482295Y-36074253D01*
X89482295Y-36074253D02*
X89482295Y-36169491D01*
X89482295Y-36169491D02*
X89958485Y-36264729D01*
X89053723Y-36598063D02*
X89053723Y-35931396D01*
X89053723Y-36121872D02*
X89006104Y-36026634D01*
X89006104Y-36026634D02*
X88958485Y-35979015D01*
X88958485Y-35979015D02*
X88863247Y-35931396D01*
X88863247Y-35931396D02*
X88768009Y-35931396D01*
X88434675Y-36598063D02*
X88434675Y-35931396D01*
X88434675Y-36121872D02*
X88387056Y-36026634D01*
X88387056Y-36026634D02*
X88339437Y-35979015D01*
X88339437Y-35979015D02*
X88244199Y-35931396D01*
X88244199Y-35931396D02*
X88148961Y-35931396D01*
X87387056Y-35931396D02*
X87387056Y-36598063D01*
X87815627Y-35931396D02*
X87815627Y-36455205D01*
X87815627Y-36455205D02*
X87768008Y-36550444D01*
X87768008Y-36550444D02*
X87672770Y-36598063D01*
X87672770Y-36598063D02*
X87529913Y-36598063D01*
X87529913Y-36598063D02*
X87434675Y-36550444D01*
X87434675Y-36550444D02*
X87387056Y-36502824D01*
X86910865Y-35931396D02*
X86910865Y-36931396D01*
X86910865Y-35979015D02*
X86815627Y-35931396D01*
X86815627Y-35931396D02*
X86625151Y-35931396D01*
X86625151Y-35931396D02*
X86529913Y-35979015D01*
X86529913Y-35979015D02*
X86482294Y-36026634D01*
X86482294Y-36026634D02*
X86434675Y-36121872D01*
X86434675Y-36121872D02*
X86434675Y-36407586D01*
X86434675Y-36407586D02*
X86482294Y-36502824D01*
X86482294Y-36502824D02*
X86529913Y-36550444D01*
X86529913Y-36550444D02*
X86625151Y-36598063D01*
X86625151Y-36598063D02*
X86815627Y-36598063D01*
X86815627Y-36598063D02*
X86910865Y-36550444D01*
X86148960Y-35931396D02*
X85768008Y-35931396D01*
X86006103Y-35598063D02*
X86006103Y-36455205D01*
X86006103Y-36455205D02*
X85958484Y-36550444D01*
X85958484Y-36550444D02*
X85863246Y-36598063D01*
X85863246Y-36598063D02*
X85768008Y-36598063D01*
D11*
X168524517Y-66097838D02*
X168619755Y-66050219D01*
X168619755Y-66050219D02*
X168762612Y-66050219D01*
X168762612Y-66050219D02*
X168905469Y-66097838D01*
X168905469Y-66097838D02*
X169000707Y-66193076D01*
X169000707Y-66193076D02*
X169048326Y-66288314D01*
X169048326Y-66288314D02*
X169095945Y-66478790D01*
X169095945Y-66478790D02*
X169095945Y-66621647D01*
X169095945Y-66621647D02*
X169048326Y-66812123D01*
X169048326Y-66812123D02*
X169000707Y-66907361D01*
X169000707Y-66907361D02*
X168905469Y-67002600D01*
X168905469Y-67002600D02*
X168762612Y-67050219D01*
X168762612Y-67050219D02*
X168667374Y-67050219D01*
X168667374Y-67050219D02*
X168524517Y-67002600D01*
X168524517Y-67002600D02*
X168476898Y-66954980D01*
X168476898Y-66954980D02*
X168476898Y-66621647D01*
X168476898Y-66621647D02*
X168667374Y-66621647D01*
X168048326Y-67050219D02*
X168048326Y-66050219D01*
X168048326Y-66050219D02*
X167476898Y-67050219D01*
X167476898Y-67050219D02*
X167476898Y-66050219D01*
X167000707Y-67050219D02*
X167000707Y-66050219D01*
X167000707Y-66050219D02*
X166762612Y-66050219D01*
X166762612Y-66050219D02*
X166619755Y-66097838D01*
X166619755Y-66097838D02*
X166524517Y-66193076D01*
X166524517Y-66193076D02*
X166476898Y-66288314D01*
X166476898Y-66288314D02*
X166429279Y-66478790D01*
X166429279Y-66478790D02*
X166429279Y-66621647D01*
X166429279Y-66621647D02*
X166476898Y-66812123D01*
X166476898Y-66812123D02*
X166524517Y-66907361D01*
X166524517Y-66907361D02*
X166619755Y-67002600D01*
X166619755Y-67002600D02*
X166762612Y-67050219D01*
X166762612Y-67050219D02*
X167000707Y-67050219D01*
X169302326Y-53969266D02*
X168540422Y-53969266D01*
X168921374Y-54350219D02*
X168921374Y-53588314D01*
X168159469Y-53350219D02*
X167540422Y-53350219D01*
X167540422Y-53350219D02*
X167873755Y-53731171D01*
X167873755Y-53731171D02*
X167730898Y-53731171D01*
X167730898Y-53731171D02*
X167635660Y-53778790D01*
X167635660Y-53778790D02*
X167588041Y-53826409D01*
X167588041Y-53826409D02*
X167540422Y-53921647D01*
X167540422Y-53921647D02*
X167540422Y-54159742D01*
X167540422Y-54159742D02*
X167588041Y-54254980D01*
X167588041Y-54254980D02*
X167635660Y-54302600D01*
X167635660Y-54302600D02*
X167730898Y-54350219D01*
X167730898Y-54350219D02*
X168016612Y-54350219D01*
X168016612Y-54350219D02*
X168111850Y-54302600D01*
X168111850Y-54302600D02*
X168159469Y-54254980D01*
X167254707Y-53350219D02*
X166921374Y-54350219D01*
X166921374Y-54350219D02*
X166588041Y-53350219D01*
X166349945Y-53350219D02*
X165730898Y-53350219D01*
X165730898Y-53350219D02*
X166064231Y-53731171D01*
X166064231Y-53731171D02*
X165921374Y-53731171D01*
X165921374Y-53731171D02*
X165826136Y-53778790D01*
X165826136Y-53778790D02*
X165778517Y-53826409D01*
X165778517Y-53826409D02*
X165730898Y-53921647D01*
X165730898Y-53921647D02*
X165730898Y-54159742D01*
X165730898Y-54159742D02*
X165778517Y-54254980D01*
X165778517Y-54254980D02*
X165826136Y-54302600D01*
X165826136Y-54302600D02*
X165921374Y-54350219D01*
X165921374Y-54350219D02*
X166207088Y-54350219D01*
X166207088Y-54350219D02*
X166302326Y-54302600D01*
X166302326Y-54302600D02*
X166349945Y-54254980D01*
X169222945Y-61922600D02*
X169080088Y-61970219D01*
X169080088Y-61970219D02*
X168841993Y-61970219D01*
X168841993Y-61970219D02*
X168746755Y-61922600D01*
X168746755Y-61922600D02*
X168699136Y-61874980D01*
X168699136Y-61874980D02*
X168651517Y-61779742D01*
X168651517Y-61779742D02*
X168651517Y-61684504D01*
X168651517Y-61684504D02*
X168699136Y-61589266D01*
X168699136Y-61589266D02*
X168746755Y-61541647D01*
X168746755Y-61541647D02*
X168841993Y-61494028D01*
X168841993Y-61494028D02*
X169032469Y-61446409D01*
X169032469Y-61446409D02*
X169127707Y-61398790D01*
X169127707Y-61398790D02*
X169175326Y-61351171D01*
X169175326Y-61351171D02*
X169222945Y-61255933D01*
X169222945Y-61255933D02*
X169222945Y-61160695D01*
X169222945Y-61160695D02*
X169175326Y-61065457D01*
X169175326Y-61065457D02*
X169127707Y-61017838D01*
X169127707Y-61017838D02*
X169032469Y-60970219D01*
X169032469Y-60970219D02*
X168794374Y-60970219D01*
X168794374Y-60970219D02*
X168651517Y-61017838D01*
X168222945Y-61970219D02*
X168222945Y-60970219D01*
X168222945Y-60970219D02*
X167984850Y-60970219D01*
X167984850Y-60970219D02*
X167841993Y-61017838D01*
X167841993Y-61017838D02*
X167746755Y-61113076D01*
X167746755Y-61113076D02*
X167699136Y-61208314D01*
X167699136Y-61208314D02*
X167651517Y-61398790D01*
X167651517Y-61398790D02*
X167651517Y-61541647D01*
X167651517Y-61541647D02*
X167699136Y-61732123D01*
X167699136Y-61732123D02*
X167746755Y-61827361D01*
X167746755Y-61827361D02*
X167841993Y-61922600D01*
X167841993Y-61922600D02*
X167984850Y-61970219D01*
X167984850Y-61970219D02*
X168222945Y-61970219D01*
X167270564Y-61684504D02*
X166794374Y-61684504D01*
X167365802Y-61970219D02*
X167032469Y-60970219D01*
X167032469Y-60970219D02*
X166699136Y-61970219D01*
X169095945Y-64589600D02*
X168953088Y-64637219D01*
X168953088Y-64637219D02*
X168714993Y-64637219D01*
X168714993Y-64637219D02*
X168619755Y-64589600D01*
X168619755Y-64589600D02*
X168572136Y-64541980D01*
X168572136Y-64541980D02*
X168524517Y-64446742D01*
X168524517Y-64446742D02*
X168524517Y-64351504D01*
X168524517Y-64351504D02*
X168572136Y-64256266D01*
X168572136Y-64256266D02*
X168619755Y-64208647D01*
X168619755Y-64208647D02*
X168714993Y-64161028D01*
X168714993Y-64161028D02*
X168905469Y-64113409D01*
X168905469Y-64113409D02*
X169000707Y-64065790D01*
X169000707Y-64065790D02*
X169048326Y-64018171D01*
X169048326Y-64018171D02*
X169095945Y-63922933D01*
X169095945Y-63922933D02*
X169095945Y-63827695D01*
X169095945Y-63827695D02*
X169048326Y-63732457D01*
X169048326Y-63732457D02*
X169000707Y-63684838D01*
X169000707Y-63684838D02*
X168905469Y-63637219D01*
X168905469Y-63637219D02*
X168667374Y-63637219D01*
X168667374Y-63637219D02*
X168524517Y-63684838D01*
X167524517Y-64541980D02*
X167572136Y-64589600D01*
X167572136Y-64589600D02*
X167714993Y-64637219D01*
X167714993Y-64637219D02*
X167810231Y-64637219D01*
X167810231Y-64637219D02*
X167953088Y-64589600D01*
X167953088Y-64589600D02*
X168048326Y-64494361D01*
X168048326Y-64494361D02*
X168095945Y-64399123D01*
X168095945Y-64399123D02*
X168143564Y-64208647D01*
X168143564Y-64208647D02*
X168143564Y-64065790D01*
X168143564Y-64065790D02*
X168095945Y-63875314D01*
X168095945Y-63875314D02*
X168048326Y-63780076D01*
X168048326Y-63780076D02*
X167953088Y-63684838D01*
X167953088Y-63684838D02*
X167810231Y-63637219D01*
X167810231Y-63637219D02*
X167714993Y-63637219D01*
X167714993Y-63637219D02*
X167572136Y-63684838D01*
X167572136Y-63684838D02*
X167524517Y-63732457D01*
X166619755Y-64637219D02*
X167095945Y-64637219D01*
X167095945Y-64637219D02*
X167095945Y-63637219D01*
D12*
X179016819Y-73715714D02*
X178016819Y-73715714D01*
X178016819Y-73715714D02*
X178016819Y-73953809D01*
X178016819Y-73953809D02*
X178064438Y-74096666D01*
X178064438Y-74096666D02*
X178159676Y-74191904D01*
X178159676Y-74191904D02*
X178254914Y-74239523D01*
X178254914Y-74239523D02*
X178445390Y-74287142D01*
X178445390Y-74287142D02*
X178588247Y-74287142D01*
X178588247Y-74287142D02*
X178778723Y-74239523D01*
X178778723Y-74239523D02*
X178873961Y-74191904D01*
X178873961Y-74191904D02*
X178969200Y-74096666D01*
X178969200Y-74096666D02*
X179016819Y-73953809D01*
X179016819Y-73953809D02*
X179016819Y-73715714D01*
X179016819Y-75239523D02*
X179016819Y-74668095D01*
X179016819Y-74953809D02*
X178016819Y-74953809D01*
X178016819Y-74953809D02*
X178159676Y-74858571D01*
X178159676Y-74858571D02*
X178254914Y-74763333D01*
X178254914Y-74763333D02*
X178302533Y-74668095D01*
X178350152Y-76096666D02*
X179016819Y-76096666D01*
X177969200Y-75858571D02*
X178683485Y-75620476D01*
X178683485Y-75620476D02*
X178683485Y-76239523D01*
D11*
X152598219Y-39235142D02*
X152122028Y-38901809D01*
X152598219Y-38663714D02*
X151598219Y-38663714D01*
X151598219Y-38663714D02*
X151598219Y-39044666D01*
X151598219Y-39044666D02*
X151645838Y-39139904D01*
X151645838Y-39139904D02*
X151693457Y-39187523D01*
X151693457Y-39187523D02*
X151788695Y-39235142D01*
X151788695Y-39235142D02*
X151931552Y-39235142D01*
X151931552Y-39235142D02*
X152026790Y-39187523D01*
X152026790Y-39187523D02*
X152074409Y-39139904D01*
X152074409Y-39139904D02*
X152122028Y-39044666D01*
X152122028Y-39044666D02*
X152122028Y-38663714D01*
X152598219Y-40187523D02*
X152598219Y-39616095D01*
X152598219Y-39901809D02*
X151598219Y-39901809D01*
X151598219Y-39901809D02*
X151741076Y-39806571D01*
X151741076Y-39806571D02*
X151836314Y-39711333D01*
X151836314Y-39711333D02*
X151883933Y-39616095D01*
X151598219Y-41092285D02*
X151598219Y-40616095D01*
X151598219Y-40616095D02*
X152074409Y-40568476D01*
X152074409Y-40568476D02*
X152026790Y-40616095D01*
X152026790Y-40616095D02*
X151979171Y-40711333D01*
X151979171Y-40711333D02*
X151979171Y-40949428D01*
X151979171Y-40949428D02*
X152026790Y-41044666D01*
X152026790Y-41044666D02*
X152074409Y-41092285D01*
X152074409Y-41092285D02*
X152169647Y-41139904D01*
X152169647Y-41139904D02*
X152407742Y-41139904D01*
X152407742Y-41139904D02*
X152502980Y-41092285D01*
X152502980Y-41092285D02*
X152550600Y-41044666D01*
X152550600Y-41044666D02*
X152598219Y-40949428D01*
X152598219Y-40949428D02*
X152598219Y-40711333D01*
X152598219Y-40711333D02*
X152550600Y-40616095D01*
X152550600Y-40616095D02*
X152502980Y-40568476D01*
D12*
X159966819Y-93318114D02*
X158966819Y-93318114D01*
X158966819Y-93318114D02*
X158966819Y-93556209D01*
X158966819Y-93556209D02*
X159014438Y-93699066D01*
X159014438Y-93699066D02*
X159109676Y-93794304D01*
X159109676Y-93794304D02*
X159204914Y-93841923D01*
X159204914Y-93841923D02*
X159395390Y-93889542D01*
X159395390Y-93889542D02*
X159538247Y-93889542D01*
X159538247Y-93889542D02*
X159728723Y-93841923D01*
X159728723Y-93841923D02*
X159823961Y-93794304D01*
X159823961Y-93794304D02*
X159919200Y-93699066D01*
X159919200Y-93699066D02*
X159966819Y-93556209D01*
X159966819Y-93556209D02*
X159966819Y-93318114D01*
X159966819Y-94841923D02*
X159966819Y-94270495D01*
X159966819Y-94556209D02*
X158966819Y-94556209D01*
X158966819Y-94556209D02*
X159109676Y-94460971D01*
X159109676Y-94460971D02*
X159204914Y-94365733D01*
X159204914Y-94365733D02*
X159252533Y-94270495D01*
X158966819Y-95175257D02*
X158966819Y-95794304D01*
X158966819Y-95794304D02*
X159347771Y-95460971D01*
X159347771Y-95460971D02*
X159347771Y-95603828D01*
X159347771Y-95603828D02*
X159395390Y-95699066D01*
X159395390Y-95699066D02*
X159443009Y-95746685D01*
X159443009Y-95746685D02*
X159538247Y-95794304D01*
X159538247Y-95794304D02*
X159776342Y-95794304D01*
X159776342Y-95794304D02*
X159871580Y-95746685D01*
X159871580Y-95746685D02*
X159919200Y-95699066D01*
X159919200Y-95699066D02*
X159966819Y-95603828D01*
X159966819Y-95603828D02*
X159966819Y-95318114D01*
X159966819Y-95318114D02*
X159919200Y-95222876D01*
X159919200Y-95222876D02*
X159871580Y-95175257D01*
D11*
X66396980Y-35171142D02*
X66444600Y-35123523D01*
X66444600Y-35123523D02*
X66492219Y-34980666D01*
X66492219Y-34980666D02*
X66492219Y-34885428D01*
X66492219Y-34885428D02*
X66444600Y-34742571D01*
X66444600Y-34742571D02*
X66349361Y-34647333D01*
X66349361Y-34647333D02*
X66254123Y-34599714D01*
X66254123Y-34599714D02*
X66063647Y-34552095D01*
X66063647Y-34552095D02*
X65920790Y-34552095D01*
X65920790Y-34552095D02*
X65730314Y-34599714D01*
X65730314Y-34599714D02*
X65635076Y-34647333D01*
X65635076Y-34647333D02*
X65539838Y-34742571D01*
X65539838Y-34742571D02*
X65492219Y-34885428D01*
X65492219Y-34885428D02*
X65492219Y-34980666D01*
X65492219Y-34980666D02*
X65539838Y-35123523D01*
X65539838Y-35123523D02*
X65587457Y-35171142D01*
X65587457Y-35552095D02*
X65539838Y-35599714D01*
X65539838Y-35599714D02*
X65492219Y-35694952D01*
X65492219Y-35694952D02*
X65492219Y-35933047D01*
X65492219Y-35933047D02*
X65539838Y-36028285D01*
X65539838Y-36028285D02*
X65587457Y-36075904D01*
X65587457Y-36075904D02*
X65682695Y-36123523D01*
X65682695Y-36123523D02*
X65777933Y-36123523D01*
X65777933Y-36123523D02*
X65920790Y-36075904D01*
X65920790Y-36075904D02*
X66492219Y-35504476D01*
X66492219Y-35504476D02*
X66492219Y-36123523D01*
X65492219Y-36456857D02*
X65492219Y-37123523D01*
X65492219Y-37123523D02*
X66492219Y-36694952D01*
D12*
X102054819Y-93749905D02*
X101054819Y-93749905D01*
X101054819Y-93749905D02*
X101054819Y-93988000D01*
X101054819Y-93988000D02*
X101102438Y-94130857D01*
X101102438Y-94130857D02*
X101197676Y-94226095D01*
X101197676Y-94226095D02*
X101292914Y-94273714D01*
X101292914Y-94273714D02*
X101483390Y-94321333D01*
X101483390Y-94321333D02*
X101626247Y-94321333D01*
X101626247Y-94321333D02*
X101816723Y-94273714D01*
X101816723Y-94273714D02*
X101911961Y-94226095D01*
X101911961Y-94226095D02*
X102007200Y-94130857D01*
X102007200Y-94130857D02*
X102054819Y-93988000D01*
X102054819Y-93988000D02*
X102054819Y-93749905D01*
X101483390Y-94892762D02*
X101435771Y-94797524D01*
X101435771Y-94797524D02*
X101388152Y-94749905D01*
X101388152Y-94749905D02*
X101292914Y-94702286D01*
X101292914Y-94702286D02*
X101245295Y-94702286D01*
X101245295Y-94702286D02*
X101150057Y-94749905D01*
X101150057Y-94749905D02*
X101102438Y-94797524D01*
X101102438Y-94797524D02*
X101054819Y-94892762D01*
X101054819Y-94892762D02*
X101054819Y-95083238D01*
X101054819Y-95083238D02*
X101102438Y-95178476D01*
X101102438Y-95178476D02*
X101150057Y-95226095D01*
X101150057Y-95226095D02*
X101245295Y-95273714D01*
X101245295Y-95273714D02*
X101292914Y-95273714D01*
X101292914Y-95273714D02*
X101388152Y-95226095D01*
X101388152Y-95226095D02*
X101435771Y-95178476D01*
X101435771Y-95178476D02*
X101483390Y-95083238D01*
X101483390Y-95083238D02*
X101483390Y-94892762D01*
X101483390Y-94892762D02*
X101531009Y-94797524D01*
X101531009Y-94797524D02*
X101578628Y-94749905D01*
X101578628Y-94749905D02*
X101673866Y-94702286D01*
X101673866Y-94702286D02*
X101864342Y-94702286D01*
X101864342Y-94702286D02*
X101959580Y-94749905D01*
X101959580Y-94749905D02*
X102007200Y-94797524D01*
X102007200Y-94797524D02*
X102054819Y-94892762D01*
X102054819Y-94892762D02*
X102054819Y-95083238D01*
X102054819Y-95083238D02*
X102007200Y-95178476D01*
X102007200Y-95178476D02*
X101959580Y-95226095D01*
X101959580Y-95226095D02*
X101864342Y-95273714D01*
X101864342Y-95273714D02*
X101673866Y-95273714D01*
X101673866Y-95273714D02*
X101578628Y-95226095D01*
X101578628Y-95226095D02*
X101531009Y-95178476D01*
X101531009Y-95178476D02*
X101483390Y-95083238D01*
X59144819Y-69048476D02*
X59859104Y-69048476D01*
X59859104Y-69048476D02*
X60001961Y-69000857D01*
X60001961Y-69000857D02*
X60097200Y-68905619D01*
X60097200Y-68905619D02*
X60144819Y-68762762D01*
X60144819Y-68762762D02*
X60144819Y-68667524D01*
X60144819Y-69524667D02*
X59144819Y-69524667D01*
X59144819Y-69524667D02*
X59144819Y-69905619D01*
X59144819Y-69905619D02*
X59192438Y-70000857D01*
X59192438Y-70000857D02*
X59240057Y-70048476D01*
X59240057Y-70048476D02*
X59335295Y-70096095D01*
X59335295Y-70096095D02*
X59478152Y-70096095D01*
X59478152Y-70096095D02*
X59573390Y-70048476D01*
X59573390Y-70048476D02*
X59621009Y-70000857D01*
X59621009Y-70000857D02*
X59668628Y-69905619D01*
X59668628Y-69905619D02*
X59668628Y-69524667D01*
X60144819Y-71048476D02*
X60144819Y-70477048D01*
X60144819Y-70762762D02*
X59144819Y-70762762D01*
X59144819Y-70762762D02*
X59287676Y-70667524D01*
X59287676Y-70667524D02*
X59382914Y-70572286D01*
X59382914Y-70572286D02*
X59430533Y-70477048D01*
X59478152Y-71905619D02*
X60144819Y-71905619D01*
X59097200Y-71667524D02*
X59811485Y-71429429D01*
X59811485Y-71429429D02*
X59811485Y-72048476D01*
X58112819Y-73691714D02*
X58112819Y-73120286D01*
X58112819Y-73406000D02*
X57112819Y-73406000D01*
X57112819Y-73406000D02*
X57255676Y-73310762D01*
X57255676Y-73310762D02*
X57350914Y-73215524D01*
X57350914Y-73215524D02*
X57398533Y-73120286D01*
X57112819Y-67230667D02*
X57112819Y-67849714D01*
X57112819Y-67849714D02*
X57493771Y-67516381D01*
X57493771Y-67516381D02*
X57493771Y-67659238D01*
X57493771Y-67659238D02*
X57541390Y-67754476D01*
X57541390Y-67754476D02*
X57589009Y-67802095D01*
X57589009Y-67802095D02*
X57684247Y-67849714D01*
X57684247Y-67849714D02*
X57922342Y-67849714D01*
X57922342Y-67849714D02*
X58017580Y-67802095D01*
X58017580Y-67802095D02*
X58065200Y-67754476D01*
X58065200Y-67754476D02*
X58112819Y-67659238D01*
X58112819Y-67659238D02*
X58112819Y-67373524D01*
X58112819Y-67373524D02*
X58065200Y-67278286D01*
X58065200Y-67278286D02*
X58017580Y-67230667D01*
X115514333Y-60033819D02*
X115514333Y-60748104D01*
X115514333Y-60748104D02*
X115561952Y-60890961D01*
X115561952Y-60890961D02*
X115657190Y-60986200D01*
X115657190Y-60986200D02*
X115800047Y-61033819D01*
X115800047Y-61033819D02*
X115895285Y-61033819D01*
X115038142Y-61033819D02*
X115038142Y-60033819D01*
X115038142Y-60033819D02*
X114657190Y-60033819D01*
X114657190Y-60033819D02*
X114561952Y-60081438D01*
X114561952Y-60081438D02*
X114514333Y-60129057D01*
X114514333Y-60129057D02*
X114466714Y-60224295D01*
X114466714Y-60224295D02*
X114466714Y-60367152D01*
X114466714Y-60367152D02*
X114514333Y-60462390D01*
X114514333Y-60462390D02*
X114561952Y-60510009D01*
X114561952Y-60510009D02*
X114657190Y-60557628D01*
X114657190Y-60557628D02*
X115038142Y-60557628D01*
X113895285Y-60462390D02*
X113990523Y-60414771D01*
X113990523Y-60414771D02*
X114038142Y-60367152D01*
X114038142Y-60367152D02*
X114085761Y-60271914D01*
X114085761Y-60271914D02*
X114085761Y-60224295D01*
X114085761Y-60224295D02*
X114038142Y-60129057D01*
X114038142Y-60129057D02*
X113990523Y-60081438D01*
X113990523Y-60081438D02*
X113895285Y-60033819D01*
X113895285Y-60033819D02*
X113704809Y-60033819D01*
X113704809Y-60033819D02*
X113609571Y-60081438D01*
X113609571Y-60081438D02*
X113561952Y-60129057D01*
X113561952Y-60129057D02*
X113514333Y-60224295D01*
X113514333Y-60224295D02*
X113514333Y-60271914D01*
X113514333Y-60271914D02*
X113561952Y-60367152D01*
X113561952Y-60367152D02*
X113609571Y-60414771D01*
X113609571Y-60414771D02*
X113704809Y-60462390D01*
X113704809Y-60462390D02*
X113895285Y-60462390D01*
X113895285Y-60462390D02*
X113990523Y-60510009D01*
X113990523Y-60510009D02*
X114038142Y-60557628D01*
X114038142Y-60557628D02*
X114085761Y-60652866D01*
X114085761Y-60652866D02*
X114085761Y-60843342D01*
X114085761Y-60843342D02*
X114038142Y-60938580D01*
X114038142Y-60938580D02*
X113990523Y-60986200D01*
X113990523Y-60986200D02*
X113895285Y-61033819D01*
X113895285Y-61033819D02*
X113704809Y-61033819D01*
X113704809Y-61033819D02*
X113609571Y-60986200D01*
X113609571Y-60986200D02*
X113561952Y-60938580D01*
X113561952Y-60938580D02*
X113514333Y-60843342D01*
X113514333Y-60843342D02*
X113514333Y-60652866D01*
X113514333Y-60652866D02*
X113561952Y-60557628D01*
X113561952Y-60557628D02*
X113609571Y-60510009D01*
X113609571Y-60510009D02*
X113704809Y-60462390D01*
X115903332Y-56096819D02*
X115284285Y-56096819D01*
X115284285Y-56096819D02*
X115617618Y-56477771D01*
X115617618Y-56477771D02*
X115474761Y-56477771D01*
X115474761Y-56477771D02*
X115379523Y-56525390D01*
X115379523Y-56525390D02*
X115331904Y-56573009D01*
X115331904Y-56573009D02*
X115284285Y-56668247D01*
X115284285Y-56668247D02*
X115284285Y-56906342D01*
X115284285Y-56906342D02*
X115331904Y-57001580D01*
X115331904Y-57001580D02*
X115379523Y-57049200D01*
X115379523Y-57049200D02*
X115474761Y-57096819D01*
X115474761Y-57096819D02*
X115760475Y-57096819D01*
X115760475Y-57096819D02*
X115855713Y-57049200D01*
X115855713Y-57049200D02*
X115903332Y-57001580D01*
X112744285Y-57096819D02*
X113315713Y-57096819D01*
X113029999Y-57096819D02*
X113029999Y-56096819D01*
X113029999Y-56096819D02*
X113125237Y-56239676D01*
X113125237Y-56239676D02*
X113220475Y-56334914D01*
X113220475Y-56334914D02*
X113315713Y-56382533D01*
X140408819Y-93273714D02*
X139408819Y-93273714D01*
X139408819Y-93273714D02*
X139408819Y-93511809D01*
X139408819Y-93511809D02*
X139456438Y-93654666D01*
X139456438Y-93654666D02*
X139551676Y-93749904D01*
X139551676Y-93749904D02*
X139646914Y-93797523D01*
X139646914Y-93797523D02*
X139837390Y-93845142D01*
X139837390Y-93845142D02*
X139980247Y-93845142D01*
X139980247Y-93845142D02*
X140170723Y-93797523D01*
X140170723Y-93797523D02*
X140265961Y-93749904D01*
X140265961Y-93749904D02*
X140361200Y-93654666D01*
X140361200Y-93654666D02*
X140408819Y-93511809D01*
X140408819Y-93511809D02*
X140408819Y-93273714D01*
X140408819Y-94797523D02*
X140408819Y-94226095D01*
X140408819Y-94511809D02*
X139408819Y-94511809D01*
X139408819Y-94511809D02*
X139551676Y-94416571D01*
X139551676Y-94416571D02*
X139646914Y-94321333D01*
X139646914Y-94321333D02*
X139694533Y-94226095D01*
X140408819Y-95749904D02*
X140408819Y-95178476D01*
X140408819Y-95464190D02*
X139408819Y-95464190D01*
X139408819Y-95464190D02*
X139551676Y-95368952D01*
X139551676Y-95368952D02*
X139646914Y-95273714D01*
X139646914Y-95273714D02*
X139694533Y-95178476D01*
D11*
X169108219Y-46601142D02*
X168632028Y-46267809D01*
X169108219Y-46029714D02*
X168108219Y-46029714D01*
X168108219Y-46029714D02*
X168108219Y-46410666D01*
X168108219Y-46410666D02*
X168155838Y-46505904D01*
X168155838Y-46505904D02*
X168203457Y-46553523D01*
X168203457Y-46553523D02*
X168298695Y-46601142D01*
X168298695Y-46601142D02*
X168441552Y-46601142D01*
X168441552Y-46601142D02*
X168536790Y-46553523D01*
X168536790Y-46553523D02*
X168584409Y-46505904D01*
X168584409Y-46505904D02*
X168632028Y-46410666D01*
X168632028Y-46410666D02*
X168632028Y-46029714D01*
X169108219Y-47553523D02*
X169108219Y-46982095D01*
X169108219Y-47267809D02*
X168108219Y-47267809D01*
X168108219Y-47267809D02*
X168251076Y-47172571D01*
X168251076Y-47172571D02*
X168346314Y-47077333D01*
X168346314Y-47077333D02*
X168393933Y-46982095D01*
X168108219Y-47886857D02*
X168108219Y-48505904D01*
X168108219Y-48505904D02*
X168489171Y-48172571D01*
X168489171Y-48172571D02*
X168489171Y-48315428D01*
X168489171Y-48315428D02*
X168536790Y-48410666D01*
X168536790Y-48410666D02*
X168584409Y-48458285D01*
X168584409Y-48458285D02*
X168679647Y-48505904D01*
X168679647Y-48505904D02*
X168917742Y-48505904D01*
X168917742Y-48505904D02*
X169012980Y-48458285D01*
X169012980Y-48458285D02*
X169060600Y-48410666D01*
X169060600Y-48410666D02*
X169108219Y-48315428D01*
X169108219Y-48315428D02*
X169108219Y-48029714D01*
X169108219Y-48029714D02*
X169060600Y-47934476D01*
X169060600Y-47934476D02*
X169012980Y-47886857D01*
X71476980Y-35171142D02*
X71524600Y-35123523D01*
X71524600Y-35123523D02*
X71572219Y-34980666D01*
X71572219Y-34980666D02*
X71572219Y-34885428D01*
X71572219Y-34885428D02*
X71524600Y-34742571D01*
X71524600Y-34742571D02*
X71429361Y-34647333D01*
X71429361Y-34647333D02*
X71334123Y-34599714D01*
X71334123Y-34599714D02*
X71143647Y-34552095D01*
X71143647Y-34552095D02*
X71000790Y-34552095D01*
X71000790Y-34552095D02*
X70810314Y-34599714D01*
X70810314Y-34599714D02*
X70715076Y-34647333D01*
X70715076Y-34647333D02*
X70619838Y-34742571D01*
X70619838Y-34742571D02*
X70572219Y-34885428D01*
X70572219Y-34885428D02*
X70572219Y-34980666D01*
X70572219Y-34980666D02*
X70619838Y-35123523D01*
X70619838Y-35123523D02*
X70667457Y-35171142D01*
X70667457Y-35552095D02*
X70619838Y-35599714D01*
X70619838Y-35599714D02*
X70572219Y-35694952D01*
X70572219Y-35694952D02*
X70572219Y-35933047D01*
X70572219Y-35933047D02*
X70619838Y-36028285D01*
X70619838Y-36028285D02*
X70667457Y-36075904D01*
X70667457Y-36075904D02*
X70762695Y-36123523D01*
X70762695Y-36123523D02*
X70857933Y-36123523D01*
X70857933Y-36123523D02*
X71000790Y-36075904D01*
X71000790Y-36075904D02*
X71572219Y-35504476D01*
X71572219Y-35504476D02*
X71572219Y-36123523D01*
X70905552Y-36980666D02*
X71572219Y-36980666D01*
X70524600Y-36742571D02*
X71238885Y-36504476D01*
X71238885Y-36504476D02*
X71238885Y-37123523D01*
D12*
X143784533Y-62065819D02*
X143784533Y-62780104D01*
X143784533Y-62780104D02*
X143832152Y-62922961D01*
X143832152Y-62922961D02*
X143927390Y-63018200D01*
X143927390Y-63018200D02*
X144070247Y-63065819D01*
X144070247Y-63065819D02*
X144165485Y-63065819D01*
X143308342Y-63065819D02*
X143308342Y-62065819D01*
X143308342Y-62065819D02*
X142927390Y-62065819D01*
X142927390Y-62065819D02*
X142832152Y-62113438D01*
X142832152Y-62113438D02*
X142784533Y-62161057D01*
X142784533Y-62161057D02*
X142736914Y-62256295D01*
X142736914Y-62256295D02*
X142736914Y-62399152D01*
X142736914Y-62399152D02*
X142784533Y-62494390D01*
X142784533Y-62494390D02*
X142832152Y-62542009D01*
X142832152Y-62542009D02*
X142927390Y-62589628D01*
X142927390Y-62589628D02*
X143308342Y-62589628D01*
X142403580Y-62065819D02*
X141736914Y-62065819D01*
X141736914Y-62065819D02*
X142165485Y-63065819D01*
X141192285Y-59128819D02*
X141763713Y-59128819D01*
X141477999Y-59128819D02*
X141477999Y-58128819D01*
X141477999Y-58128819D02*
X141573237Y-58271676D01*
X141573237Y-58271676D02*
X141668475Y-58366914D01*
X141668475Y-58366914D02*
X141763713Y-58414533D01*
X144605332Y-58128819D02*
X143986285Y-58128819D01*
X143986285Y-58128819D02*
X144319618Y-58509771D01*
X144319618Y-58509771D02*
X144176761Y-58509771D01*
X144176761Y-58509771D02*
X144081523Y-58557390D01*
X144081523Y-58557390D02*
X144033904Y-58605009D01*
X144033904Y-58605009D02*
X143986285Y-58700247D01*
X143986285Y-58700247D02*
X143986285Y-58938342D01*
X143986285Y-58938342D02*
X144033904Y-59033580D01*
X144033904Y-59033580D02*
X144081523Y-59081200D01*
X144081523Y-59081200D02*
X144176761Y-59128819D01*
X144176761Y-59128819D02*
X144462475Y-59128819D01*
X144462475Y-59128819D02*
X144557713Y-59081200D01*
X144557713Y-59081200D02*
X144605332Y-59033580D01*
X98885333Y-63716819D02*
X98885333Y-64431104D01*
X98885333Y-64431104D02*
X98932952Y-64573961D01*
X98932952Y-64573961D02*
X99028190Y-64669200D01*
X99028190Y-64669200D02*
X99171047Y-64716819D01*
X99171047Y-64716819D02*
X99266285Y-64716819D01*
X97980571Y-63716819D02*
X98171047Y-63716819D01*
X98171047Y-63716819D02*
X98266285Y-63764438D01*
X98266285Y-63764438D02*
X98313904Y-63812057D01*
X98313904Y-63812057D02*
X98409142Y-63954914D01*
X98409142Y-63954914D02*
X98456761Y-64145390D01*
X98456761Y-64145390D02*
X98456761Y-64526342D01*
X98456761Y-64526342D02*
X98409142Y-64621580D01*
X98409142Y-64621580D02*
X98361523Y-64669200D01*
X98361523Y-64669200D02*
X98266285Y-64716819D01*
X98266285Y-64716819D02*
X98075809Y-64716819D01*
X98075809Y-64716819D02*
X97980571Y-64669200D01*
X97980571Y-64669200D02*
X97932952Y-64621580D01*
X97932952Y-64621580D02*
X97885333Y-64526342D01*
X97885333Y-64526342D02*
X97885333Y-64288247D01*
X97885333Y-64288247D02*
X97932952Y-64193009D01*
X97932952Y-64193009D02*
X97980571Y-64145390D01*
X97980571Y-64145390D02*
X98075809Y-64097771D01*
X98075809Y-64097771D02*
X98266285Y-64097771D01*
X98266285Y-64097771D02*
X98361523Y-64145390D01*
X98361523Y-64145390D02*
X98409142Y-64193009D01*
X98409142Y-64193009D02*
X98456761Y-64288247D01*
D11*
X51156980Y-35171142D02*
X51204600Y-35123523D01*
X51204600Y-35123523D02*
X51252219Y-34980666D01*
X51252219Y-34980666D02*
X51252219Y-34885428D01*
X51252219Y-34885428D02*
X51204600Y-34742571D01*
X51204600Y-34742571D02*
X51109361Y-34647333D01*
X51109361Y-34647333D02*
X51014123Y-34599714D01*
X51014123Y-34599714D02*
X50823647Y-34552095D01*
X50823647Y-34552095D02*
X50680790Y-34552095D01*
X50680790Y-34552095D02*
X50490314Y-34599714D01*
X50490314Y-34599714D02*
X50395076Y-34647333D01*
X50395076Y-34647333D02*
X50299838Y-34742571D01*
X50299838Y-34742571D02*
X50252219Y-34885428D01*
X50252219Y-34885428D02*
X50252219Y-34980666D01*
X50252219Y-34980666D02*
X50299838Y-35123523D01*
X50299838Y-35123523D02*
X50347457Y-35171142D01*
X50347457Y-35552095D02*
X50299838Y-35599714D01*
X50299838Y-35599714D02*
X50252219Y-35694952D01*
X50252219Y-35694952D02*
X50252219Y-35933047D01*
X50252219Y-35933047D02*
X50299838Y-36028285D01*
X50299838Y-36028285D02*
X50347457Y-36075904D01*
X50347457Y-36075904D02*
X50442695Y-36123523D01*
X50442695Y-36123523D02*
X50537933Y-36123523D01*
X50537933Y-36123523D02*
X50680790Y-36075904D01*
X50680790Y-36075904D02*
X51252219Y-35504476D01*
X51252219Y-35504476D02*
X51252219Y-36123523D01*
X50252219Y-37028285D02*
X50252219Y-36552095D01*
X50252219Y-36552095D02*
X50728409Y-36504476D01*
X50728409Y-36504476D02*
X50680790Y-36552095D01*
X50680790Y-36552095D02*
X50633171Y-36647333D01*
X50633171Y-36647333D02*
X50633171Y-36885428D01*
X50633171Y-36885428D02*
X50680790Y-36980666D01*
X50680790Y-36980666D02*
X50728409Y-37028285D01*
X50728409Y-37028285D02*
X50823647Y-37075904D01*
X50823647Y-37075904D02*
X51061742Y-37075904D01*
X51061742Y-37075904D02*
X51156980Y-37028285D01*
X51156980Y-37028285D02*
X51204600Y-36980666D01*
X51204600Y-36980666D02*
X51252219Y-36885428D01*
X51252219Y-36885428D02*
X51252219Y-36647333D01*
X51252219Y-36647333D02*
X51204600Y-36552095D01*
X51204600Y-36552095D02*
X51156980Y-36504476D01*
D12*
X121358819Y-93749905D02*
X120358819Y-93749905D01*
X120358819Y-93749905D02*
X120358819Y-93988000D01*
X120358819Y-93988000D02*
X120406438Y-94130857D01*
X120406438Y-94130857D02*
X120501676Y-94226095D01*
X120501676Y-94226095D02*
X120596914Y-94273714D01*
X120596914Y-94273714D02*
X120787390Y-94321333D01*
X120787390Y-94321333D02*
X120930247Y-94321333D01*
X120930247Y-94321333D02*
X121120723Y-94273714D01*
X121120723Y-94273714D02*
X121215961Y-94226095D01*
X121215961Y-94226095D02*
X121311200Y-94130857D01*
X121311200Y-94130857D02*
X121358819Y-93988000D01*
X121358819Y-93988000D02*
X121358819Y-93749905D01*
X121358819Y-94797524D02*
X121358819Y-94988000D01*
X121358819Y-94988000D02*
X121311200Y-95083238D01*
X121311200Y-95083238D02*
X121263580Y-95130857D01*
X121263580Y-95130857D02*
X121120723Y-95226095D01*
X121120723Y-95226095D02*
X120930247Y-95273714D01*
X120930247Y-95273714D02*
X120549295Y-95273714D01*
X120549295Y-95273714D02*
X120454057Y-95226095D01*
X120454057Y-95226095D02*
X120406438Y-95178476D01*
X120406438Y-95178476D02*
X120358819Y-95083238D01*
X120358819Y-95083238D02*
X120358819Y-94892762D01*
X120358819Y-94892762D02*
X120406438Y-94797524D01*
X120406438Y-94797524D02*
X120454057Y-94749905D01*
X120454057Y-94749905D02*
X120549295Y-94702286D01*
X120549295Y-94702286D02*
X120787390Y-94702286D01*
X120787390Y-94702286D02*
X120882628Y-94749905D01*
X120882628Y-94749905D02*
X120930247Y-94797524D01*
X120930247Y-94797524D02*
X120977866Y-94892762D01*
X120977866Y-94892762D02*
X120977866Y-95083238D01*
X120977866Y-95083238D02*
X120930247Y-95178476D01*
X120930247Y-95178476D02*
X120882628Y-95226095D01*
X120882628Y-95226095D02*
X120787390Y-95273714D01*
D11*
X140374666Y-67203419D02*
X140707999Y-66727228D01*
X140946094Y-67203419D02*
X140946094Y-66203419D01*
X140946094Y-66203419D02*
X140565142Y-66203419D01*
X140565142Y-66203419D02*
X140469904Y-66251038D01*
X140469904Y-66251038D02*
X140422285Y-66298657D01*
X140422285Y-66298657D02*
X140374666Y-66393895D01*
X140374666Y-66393895D02*
X140374666Y-66536752D01*
X140374666Y-66536752D02*
X140422285Y-66631990D01*
X140422285Y-66631990D02*
X140469904Y-66679609D01*
X140469904Y-66679609D02*
X140565142Y-66727228D01*
X140565142Y-66727228D02*
X140946094Y-66727228D01*
X139803237Y-66631990D02*
X139898475Y-66584371D01*
X139898475Y-66584371D02*
X139946094Y-66536752D01*
X139946094Y-66536752D02*
X139993713Y-66441514D01*
X139993713Y-66441514D02*
X139993713Y-66393895D01*
X139993713Y-66393895D02*
X139946094Y-66298657D01*
X139946094Y-66298657D02*
X139898475Y-66251038D01*
X139898475Y-66251038D02*
X139803237Y-66203419D01*
X139803237Y-66203419D02*
X139612761Y-66203419D01*
X139612761Y-66203419D02*
X139517523Y-66251038D01*
X139517523Y-66251038D02*
X139469904Y-66298657D01*
X139469904Y-66298657D02*
X139422285Y-66393895D01*
X139422285Y-66393895D02*
X139422285Y-66441514D01*
X139422285Y-66441514D02*
X139469904Y-66536752D01*
X139469904Y-66536752D02*
X139517523Y-66584371D01*
X139517523Y-66584371D02*
X139612761Y-66631990D01*
X139612761Y-66631990D02*
X139803237Y-66631990D01*
X139803237Y-66631990D02*
X139898475Y-66679609D01*
X139898475Y-66679609D02*
X139946094Y-66727228D01*
X139946094Y-66727228D02*
X139993713Y-66822466D01*
X139993713Y-66822466D02*
X139993713Y-67012942D01*
X139993713Y-67012942D02*
X139946094Y-67108180D01*
X139946094Y-67108180D02*
X139898475Y-67155800D01*
X139898475Y-67155800D02*
X139803237Y-67203419D01*
X139803237Y-67203419D02*
X139612761Y-67203419D01*
X139612761Y-67203419D02*
X139517523Y-67155800D01*
X139517523Y-67155800D02*
X139469904Y-67108180D01*
X139469904Y-67108180D02*
X139422285Y-67012942D01*
X139422285Y-67012942D02*
X139422285Y-66822466D01*
X139422285Y-66822466D02*
X139469904Y-66727228D01*
X139469904Y-66727228D02*
X139517523Y-66679609D01*
X139517523Y-66679609D02*
X139612761Y-66631990D01*
X180030219Y-46601142D02*
X179554028Y-46267809D01*
X180030219Y-46029714D02*
X179030219Y-46029714D01*
X179030219Y-46029714D02*
X179030219Y-46410666D01*
X179030219Y-46410666D02*
X179077838Y-46505904D01*
X179077838Y-46505904D02*
X179125457Y-46553523D01*
X179125457Y-46553523D02*
X179220695Y-46601142D01*
X179220695Y-46601142D02*
X179363552Y-46601142D01*
X179363552Y-46601142D02*
X179458790Y-46553523D01*
X179458790Y-46553523D02*
X179506409Y-46505904D01*
X179506409Y-46505904D02*
X179554028Y-46410666D01*
X179554028Y-46410666D02*
X179554028Y-46029714D01*
X180030219Y-47553523D02*
X180030219Y-46982095D01*
X180030219Y-47267809D02*
X179030219Y-47267809D01*
X179030219Y-47267809D02*
X179173076Y-47172571D01*
X179173076Y-47172571D02*
X179268314Y-47077333D01*
X179268314Y-47077333D02*
X179315933Y-46982095D01*
X179363552Y-48410666D02*
X180030219Y-48410666D01*
X178982600Y-48172571D02*
X179696885Y-47934476D01*
X179696885Y-47934476D02*
X179696885Y-48553523D01*
D12*
X162955123Y-60160819D02*
X162955123Y-60875104D01*
X162955123Y-60875104D02*
X163002742Y-61017961D01*
X163002742Y-61017961D02*
X163097980Y-61113200D01*
X163097980Y-61113200D02*
X163240837Y-61160819D01*
X163240837Y-61160819D02*
X163336075Y-61160819D01*
X162478932Y-61160819D02*
X162478932Y-60160819D01*
X162478932Y-60160819D02*
X162097980Y-60160819D01*
X162097980Y-60160819D02*
X162002742Y-60208438D01*
X162002742Y-60208438D02*
X161955123Y-60256057D01*
X161955123Y-60256057D02*
X161907504Y-60351295D01*
X161907504Y-60351295D02*
X161907504Y-60494152D01*
X161907504Y-60494152D02*
X161955123Y-60589390D01*
X161955123Y-60589390D02*
X162002742Y-60637009D01*
X162002742Y-60637009D02*
X162097980Y-60684628D01*
X162097980Y-60684628D02*
X162478932Y-60684628D01*
X160955123Y-61160819D02*
X161526551Y-61160819D01*
X161240837Y-61160819D02*
X161240837Y-60160819D01*
X161240837Y-60160819D02*
X161336075Y-60303676D01*
X161336075Y-60303676D02*
X161431313Y-60398914D01*
X161431313Y-60398914D02*
X161526551Y-60446533D01*
X160621789Y-60160819D02*
X160002742Y-60160819D01*
X160002742Y-60160819D02*
X160336075Y-60541771D01*
X160336075Y-60541771D02*
X160193218Y-60541771D01*
X160193218Y-60541771D02*
X160097980Y-60589390D01*
X160097980Y-60589390D02*
X160050361Y-60637009D01*
X160050361Y-60637009D02*
X160002742Y-60732247D01*
X160002742Y-60732247D02*
X160002742Y-60970342D01*
X160002742Y-60970342D02*
X160050361Y-61065580D01*
X160050361Y-61065580D02*
X160097980Y-61113200D01*
X160097980Y-61113200D02*
X160193218Y-61160819D01*
X160193218Y-61160819D02*
X160478932Y-61160819D01*
X160478932Y-61160819D02*
X160574170Y-61113200D01*
X160574170Y-61113200D02*
X160621789Y-61065580D01*
X159988285Y-57096819D02*
X160559713Y-57096819D01*
X160273999Y-57096819D02*
X160273999Y-56096819D01*
X160273999Y-56096819D02*
X160369237Y-56239676D01*
X160369237Y-56239676D02*
X160464475Y-56334914D01*
X160464475Y-56334914D02*
X160559713Y-56382533D01*
X163401332Y-56096819D02*
X162782285Y-56096819D01*
X162782285Y-56096819D02*
X163115618Y-56477771D01*
X163115618Y-56477771D02*
X162972761Y-56477771D01*
X162972761Y-56477771D02*
X162877523Y-56525390D01*
X162877523Y-56525390D02*
X162829904Y-56573009D01*
X162829904Y-56573009D02*
X162782285Y-56668247D01*
X162782285Y-56668247D02*
X162782285Y-56906342D01*
X162782285Y-56906342D02*
X162829904Y-57001580D01*
X162829904Y-57001580D02*
X162877523Y-57049200D01*
X162877523Y-57049200D02*
X162972761Y-57096819D01*
X162972761Y-57096819D02*
X163258475Y-57096819D01*
X163258475Y-57096819D02*
X163353713Y-57049200D01*
X163353713Y-57049200D02*
X163401332Y-57001580D01*
X69304819Y-52324095D02*
X70114342Y-52324095D01*
X70114342Y-52324095D02*
X70209580Y-52371714D01*
X70209580Y-52371714D02*
X70257200Y-52419333D01*
X70257200Y-52419333D02*
X70304819Y-52514571D01*
X70304819Y-52514571D02*
X70304819Y-52705047D01*
X70304819Y-52705047D02*
X70257200Y-52800285D01*
X70257200Y-52800285D02*
X70209580Y-52847904D01*
X70209580Y-52847904D02*
X70114342Y-52895523D01*
X70114342Y-52895523D02*
X69304819Y-52895523D01*
X70304819Y-53895523D02*
X70304819Y-53324095D01*
X70304819Y-53609809D02*
X69304819Y-53609809D01*
X69304819Y-53609809D02*
X69447676Y-53514571D01*
X69447676Y-53514571D02*
X69542914Y-53419333D01*
X69542914Y-53419333D02*
X69590533Y-53324095D01*
X56340868Y-64976123D02*
X55990682Y-65326309D01*
X55990682Y-65326309D02*
X56394743Y-65353247D01*
X56394743Y-65353247D02*
X56313931Y-65434059D01*
X56313931Y-65434059D02*
X56286993Y-65514871D01*
X56286993Y-65514871D02*
X56286993Y-65568746D01*
X56286993Y-65568746D02*
X56313931Y-65649558D01*
X56313931Y-65649558D02*
X56448618Y-65784245D01*
X56448618Y-65784245D02*
X56529430Y-65811182D01*
X56529430Y-65811182D02*
X56583305Y-65811182D01*
X56583305Y-65811182D02*
X56664117Y-65784245D01*
X56664117Y-65784245D02*
X56825741Y-65622621D01*
X56825741Y-65622621D02*
X56852679Y-65541808D01*
X56852679Y-65541808D02*
X56852679Y-65487934D01*
X55829057Y-65487934D02*
X56206181Y-66242181D01*
X56206181Y-66242181D02*
X55451934Y-65865057D01*
X55317247Y-65999744D02*
X54967061Y-66349930D01*
X54967061Y-66349930D02*
X55371122Y-66376868D01*
X55371122Y-66376868D02*
X55290309Y-66457680D01*
X55290309Y-66457680D02*
X55263372Y-66538492D01*
X55263372Y-66538492D02*
X55263372Y-66592367D01*
X55263372Y-66592367D02*
X55290309Y-66673179D01*
X55290309Y-66673179D02*
X55424996Y-66807866D01*
X55424996Y-66807866D02*
X55505809Y-66834804D01*
X55505809Y-66834804D02*
X55559683Y-66834804D01*
X55559683Y-66834804D02*
X55640496Y-66807866D01*
X55640496Y-66807866D02*
X55802120Y-66646242D01*
X55802120Y-66646242D02*
X55829057Y-66565430D01*
X55829057Y-66565430D02*
X55829057Y-66511555D01*
X50948431Y-65172435D02*
X50975368Y-65091623D01*
X50975368Y-65091623D02*
X51056180Y-65010811D01*
X51056180Y-65010811D02*
X51163930Y-64956936D01*
X51163930Y-64956936D02*
X51271680Y-64956936D01*
X51271680Y-64956936D02*
X51352492Y-64983873D01*
X51352492Y-64983873D02*
X51487179Y-65064685D01*
X51487179Y-65064685D02*
X51567991Y-65145498D01*
X51567991Y-65145498D02*
X51648803Y-65280185D01*
X51648803Y-65280185D02*
X51675741Y-65360997D01*
X51675741Y-65360997D02*
X51675741Y-65468746D01*
X51675741Y-65468746D02*
X51621866Y-65576496D01*
X51621866Y-65576496D02*
X51567991Y-65630371D01*
X51567991Y-65630371D02*
X51460241Y-65684246D01*
X51460241Y-65684246D02*
X51406367Y-65684246D01*
X51406367Y-65684246D02*
X51217805Y-65495684D01*
X51217805Y-65495684D02*
X51325554Y-65387934D01*
X51217805Y-65980557D02*
X50652119Y-65414872D01*
X50652119Y-65414872D02*
X50894556Y-66303806D01*
X50894556Y-66303806D02*
X50328871Y-65738120D01*
X50625182Y-66573180D02*
X50059497Y-66007494D01*
X50059497Y-66007494D02*
X49924810Y-66142181D01*
X49924810Y-66142181D02*
X49870935Y-66249931D01*
X49870935Y-66249931D02*
X49870935Y-66357680D01*
X49870935Y-66357680D02*
X49897872Y-66438493D01*
X49897872Y-66438493D02*
X49978685Y-66573180D01*
X49978685Y-66573180D02*
X50059497Y-66653992D01*
X50059497Y-66653992D02*
X50194184Y-66734804D01*
X50194184Y-66734804D02*
X50274996Y-66761741D01*
X50274996Y-66761741D02*
X50382746Y-66761741D01*
X50382746Y-66761741D02*
X50490495Y-66707867D01*
X50490495Y-66707867D02*
X50625182Y-66573180D01*
X46377585Y-65039406D02*
X46754709Y-65793653D01*
X46754709Y-65793653D02*
X46000462Y-65416529D01*
X45892712Y-66063027D02*
X45838838Y-66170776D01*
X45838838Y-66170776D02*
X45838838Y-66224651D01*
X45838838Y-66224651D02*
X45865775Y-66305463D01*
X45865775Y-66305463D02*
X45946587Y-66386276D01*
X45946587Y-66386276D02*
X46027399Y-66413213D01*
X46027399Y-66413213D02*
X46081274Y-66413213D01*
X46081274Y-66413213D02*
X46162086Y-66386276D01*
X46162086Y-66386276D02*
X46377586Y-66170776D01*
X46377586Y-66170776D02*
X45811900Y-65605091D01*
X45811900Y-65605091D02*
X45623338Y-65793653D01*
X45623338Y-65793653D02*
X45596401Y-65874465D01*
X45596401Y-65874465D02*
X45596401Y-65928340D01*
X45596401Y-65928340D02*
X45623338Y-66009152D01*
X45623338Y-66009152D02*
X45677213Y-66063027D01*
X45677213Y-66063027D02*
X45758025Y-66089964D01*
X45758025Y-66089964D02*
X45811900Y-66089964D01*
X45811900Y-66089964D02*
X45892712Y-66063027D01*
X45892712Y-66063027D02*
X46081274Y-65874465D01*
X45246215Y-66170776D02*
X45704151Y-66628712D01*
X45704151Y-66628712D02*
X45731088Y-66709524D01*
X45731088Y-66709524D02*
X45731088Y-66763399D01*
X45731088Y-66763399D02*
X45704151Y-66844211D01*
X45704151Y-66844211D02*
X45596401Y-66951961D01*
X45596401Y-66951961D02*
X45515589Y-66978898D01*
X45515589Y-66978898D02*
X45461714Y-66978898D01*
X45461714Y-66978898D02*
X45380902Y-66951961D01*
X45380902Y-66951961D02*
X44922966Y-66494025D01*
X45219277Y-67275210D02*
X45165403Y-67382959D01*
X45165403Y-67382959D02*
X45030716Y-67517646D01*
X45030716Y-67517646D02*
X44949903Y-67544584D01*
X44949903Y-67544584D02*
X44896029Y-67544584D01*
X44896029Y-67544584D02*
X44815216Y-67517646D01*
X44815216Y-67517646D02*
X44761342Y-67463771D01*
X44761342Y-67463771D02*
X44734404Y-67382959D01*
X44734404Y-67382959D02*
X44734404Y-67329084D01*
X44734404Y-67329084D02*
X44761342Y-67248272D01*
X44761342Y-67248272D02*
X44842154Y-67113585D01*
X44842154Y-67113585D02*
X44869091Y-67032773D01*
X44869091Y-67032773D02*
X44869091Y-66978898D01*
X44869091Y-66978898D02*
X44842154Y-66898086D01*
X44842154Y-66898086D02*
X44788279Y-66844211D01*
X44788279Y-66844211D02*
X44707467Y-66817274D01*
X44707467Y-66817274D02*
X44653592Y-66817274D01*
X44653592Y-66817274D02*
X44572780Y-66844211D01*
X44572780Y-66844211D02*
X44438093Y-66978898D01*
X44438093Y-66978898D02*
X44384218Y-67086648D01*
X48920242Y-65006749D02*
X49297366Y-65760996D01*
X49297366Y-65760996D02*
X48543118Y-65383873D01*
X48920242Y-66084245D02*
X48866367Y-66191995D01*
X48866367Y-66191995D02*
X48731680Y-66326682D01*
X48731680Y-66326682D02*
X48650868Y-66353619D01*
X48650868Y-66353619D02*
X48596993Y-66353619D01*
X48596993Y-66353619D02*
X48516181Y-66326682D01*
X48516181Y-66326682D02*
X48462306Y-66272807D01*
X48462306Y-66272807D02*
X48435369Y-66191995D01*
X48435369Y-66191995D02*
X48435369Y-66138120D01*
X48435369Y-66138120D02*
X48462306Y-66057308D01*
X48462306Y-66057308D02*
X48543118Y-65922621D01*
X48543118Y-65922621D02*
X48570056Y-65841808D01*
X48570056Y-65841808D02*
X48570056Y-65787934D01*
X48570056Y-65787934D02*
X48543118Y-65707121D01*
X48543118Y-65707121D02*
X48489244Y-65653247D01*
X48489244Y-65653247D02*
X48408431Y-65626309D01*
X48408431Y-65626309D02*
X48354557Y-65626309D01*
X48354557Y-65626309D02*
X48273744Y-65653247D01*
X48273744Y-65653247D02*
X48139057Y-65787934D01*
X48139057Y-65787934D02*
X48085183Y-65895683D01*
X48004370Y-66515244D02*
X48273744Y-66784618D01*
X47896621Y-66030370D02*
X48004370Y-66515244D01*
X48004370Y-66515244D02*
X47519497Y-66407494D01*
X47896621Y-67107866D02*
X47842746Y-67215616D01*
X47842746Y-67215616D02*
X47708059Y-67350303D01*
X47708059Y-67350303D02*
X47627247Y-67377240D01*
X47627247Y-67377240D02*
X47573372Y-67377240D01*
X47573372Y-67377240D02*
X47492560Y-67350303D01*
X47492560Y-67350303D02*
X47438685Y-67296428D01*
X47438685Y-67296428D02*
X47411748Y-67215616D01*
X47411748Y-67215616D02*
X47411748Y-67161741D01*
X47411748Y-67161741D02*
X47438685Y-67080929D01*
X47438685Y-67080929D02*
X47519497Y-66946242D01*
X47519497Y-66946242D02*
X47546435Y-66865430D01*
X47546435Y-66865430D02*
X47546435Y-66811555D01*
X47546435Y-66811555D02*
X47519497Y-66730743D01*
X47519497Y-66730743D02*
X47465622Y-66676868D01*
X47465622Y-66676868D02*
X47384810Y-66649930D01*
X47384810Y-66649930D02*
X47330935Y-66649930D01*
X47330935Y-66649930D02*
X47250123Y-66676868D01*
X47250123Y-66676868D02*
X47115436Y-66811555D01*
X47115436Y-66811555D02*
X47061561Y-66919304D01*
X53808584Y-65008407D02*
X53458398Y-65358593D01*
X53458398Y-65358593D02*
X53862459Y-65385531D01*
X53862459Y-65385531D02*
X53781646Y-65466343D01*
X53781646Y-65466343D02*
X53754709Y-65547155D01*
X53754709Y-65547155D02*
X53754709Y-65601030D01*
X53754709Y-65601030D02*
X53781646Y-65681842D01*
X53781646Y-65681842D02*
X53916333Y-65816529D01*
X53916333Y-65816529D02*
X53997146Y-65843467D01*
X53997146Y-65843467D02*
X54051020Y-65843467D01*
X54051020Y-65843467D02*
X54131833Y-65816529D01*
X54131833Y-65816529D02*
X54293457Y-65654905D01*
X54293457Y-65654905D02*
X54320394Y-65574093D01*
X54320394Y-65574093D02*
X54320394Y-65520218D01*
X53296773Y-65520218D02*
X53673897Y-66274465D01*
X53673897Y-66274465D02*
X52919649Y-65897342D01*
X52784963Y-66032028D02*
X52434776Y-66382215D01*
X52434776Y-66382215D02*
X52838837Y-66409152D01*
X52838837Y-66409152D02*
X52758025Y-66489964D01*
X52758025Y-66489964D02*
X52731088Y-66570776D01*
X52731088Y-66570776D02*
X52731088Y-66624651D01*
X52731088Y-66624651D02*
X52758025Y-66705464D01*
X52758025Y-66705464D02*
X52892712Y-66840151D01*
X52892712Y-66840151D02*
X52973524Y-66867088D01*
X52973524Y-66867088D02*
X53027399Y-66867088D01*
X53027399Y-66867088D02*
X53108211Y-66840151D01*
X53108211Y-66840151D02*
X53269836Y-66678526D01*
X53269836Y-66678526D02*
X53296773Y-66597714D01*
X53296773Y-66597714D02*
X53296773Y-66543839D01*
X52946587Y-67109525D02*
X52515588Y-67540523D01*
X52030715Y-67325024D02*
X51842153Y-67513586D01*
X52057652Y-67890709D02*
X52327026Y-67621335D01*
X52327026Y-67621335D02*
X51761341Y-67055650D01*
X51761341Y-67055650D02*
X51491967Y-67325024D01*
X51815215Y-68133146D02*
X51249530Y-67567461D01*
X51249530Y-67567461D02*
X51491967Y-68456395D01*
X51491967Y-68456395D02*
X50926281Y-67890710D01*
D11*
X68936980Y-35171142D02*
X68984600Y-35123523D01*
X68984600Y-35123523D02*
X69032219Y-34980666D01*
X69032219Y-34980666D02*
X69032219Y-34885428D01*
X69032219Y-34885428D02*
X68984600Y-34742571D01*
X68984600Y-34742571D02*
X68889361Y-34647333D01*
X68889361Y-34647333D02*
X68794123Y-34599714D01*
X68794123Y-34599714D02*
X68603647Y-34552095D01*
X68603647Y-34552095D02*
X68460790Y-34552095D01*
X68460790Y-34552095D02*
X68270314Y-34599714D01*
X68270314Y-34599714D02*
X68175076Y-34647333D01*
X68175076Y-34647333D02*
X68079838Y-34742571D01*
X68079838Y-34742571D02*
X68032219Y-34885428D01*
X68032219Y-34885428D02*
X68032219Y-34980666D01*
X68032219Y-34980666D02*
X68079838Y-35123523D01*
X68079838Y-35123523D02*
X68127457Y-35171142D01*
X68127457Y-35552095D02*
X68079838Y-35599714D01*
X68079838Y-35599714D02*
X68032219Y-35694952D01*
X68032219Y-35694952D02*
X68032219Y-35933047D01*
X68032219Y-35933047D02*
X68079838Y-36028285D01*
X68079838Y-36028285D02*
X68127457Y-36075904D01*
X68127457Y-36075904D02*
X68222695Y-36123523D01*
X68222695Y-36123523D02*
X68317933Y-36123523D01*
X68317933Y-36123523D02*
X68460790Y-36075904D01*
X68460790Y-36075904D02*
X69032219Y-35504476D01*
X69032219Y-35504476D02*
X69032219Y-36123523D01*
X68032219Y-36456857D02*
X68032219Y-37075904D01*
X68032219Y-37075904D02*
X68413171Y-36742571D01*
X68413171Y-36742571D02*
X68413171Y-36885428D01*
X68413171Y-36885428D02*
X68460790Y-36980666D01*
X68460790Y-36980666D02*
X68508409Y-37028285D01*
X68508409Y-37028285D02*
X68603647Y-37075904D01*
X68603647Y-37075904D02*
X68841742Y-37075904D01*
X68841742Y-37075904D02*
X68936980Y-37028285D01*
X68936980Y-37028285D02*
X68984600Y-36980666D01*
X68984600Y-36980666D02*
X69032219Y-36885428D01*
X69032219Y-36885428D02*
X69032219Y-36599714D01*
X69032219Y-36599714D02*
X68984600Y-36504476D01*
X68984600Y-36504476D02*
X68936980Y-36456857D01*
D12*
X102054819Y-74485905D02*
X101054819Y-74485905D01*
X101054819Y-74485905D02*
X101054819Y-74724000D01*
X101054819Y-74724000D02*
X101102438Y-74866857D01*
X101102438Y-74866857D02*
X101197676Y-74962095D01*
X101197676Y-74962095D02*
X101292914Y-75009714D01*
X101292914Y-75009714D02*
X101483390Y-75057333D01*
X101483390Y-75057333D02*
X101626247Y-75057333D01*
X101626247Y-75057333D02*
X101816723Y-75009714D01*
X101816723Y-75009714D02*
X101911961Y-74962095D01*
X101911961Y-74962095D02*
X102007200Y-74866857D01*
X102007200Y-74866857D02*
X102054819Y-74724000D01*
X102054819Y-74724000D02*
X102054819Y-74485905D01*
X101388152Y-75914476D02*
X102054819Y-75914476D01*
X101007200Y-75676381D02*
X101721485Y-75438286D01*
X101721485Y-75438286D02*
X101721485Y-76057333D01*
X140916819Y-73969714D02*
X139916819Y-73969714D01*
X139916819Y-73969714D02*
X139916819Y-74207809D01*
X139916819Y-74207809D02*
X139964438Y-74350666D01*
X139964438Y-74350666D02*
X140059676Y-74445904D01*
X140059676Y-74445904D02*
X140154914Y-74493523D01*
X140154914Y-74493523D02*
X140345390Y-74541142D01*
X140345390Y-74541142D02*
X140488247Y-74541142D01*
X140488247Y-74541142D02*
X140678723Y-74493523D01*
X140678723Y-74493523D02*
X140773961Y-74445904D01*
X140773961Y-74445904D02*
X140869200Y-74350666D01*
X140869200Y-74350666D02*
X140916819Y-74207809D01*
X140916819Y-74207809D02*
X140916819Y-73969714D01*
X140916819Y-75493523D02*
X140916819Y-74922095D01*
X140916819Y-75207809D02*
X139916819Y-75207809D01*
X139916819Y-75207809D02*
X140059676Y-75112571D01*
X140059676Y-75112571D02*
X140154914Y-75017333D01*
X140154914Y-75017333D02*
X140202533Y-74922095D01*
X139916819Y-76112571D02*
X139916819Y-76207809D01*
X139916819Y-76207809D02*
X139964438Y-76303047D01*
X139964438Y-76303047D02*
X140012057Y-76350666D01*
X140012057Y-76350666D02*
X140107295Y-76398285D01*
X140107295Y-76398285D02*
X140297771Y-76445904D01*
X140297771Y-76445904D02*
X140535866Y-76445904D01*
X140535866Y-76445904D02*
X140726342Y-76398285D01*
X140726342Y-76398285D02*
X140821580Y-76350666D01*
X140821580Y-76350666D02*
X140869200Y-76303047D01*
X140869200Y-76303047D02*
X140916819Y-76207809D01*
X140916819Y-76207809D02*
X140916819Y-76112571D01*
X140916819Y-76112571D02*
X140869200Y-76017333D01*
X140869200Y-76017333D02*
X140821580Y-75969714D01*
X140821580Y-75969714D02*
X140726342Y-75922095D01*
X140726342Y-75922095D02*
X140535866Y-75874476D01*
X140535866Y-75874476D02*
X140297771Y-75874476D01*
X140297771Y-75874476D02*
X140107295Y-75922095D01*
X140107295Y-75922095D02*
X140012057Y-75969714D01*
X140012057Y-75969714D02*
X139964438Y-76017333D01*
X139964438Y-76017333D02*
X139916819Y-76112571D01*
X157646523Y-60160819D02*
X157646523Y-60875104D01*
X157646523Y-60875104D02*
X157694142Y-61017961D01*
X157694142Y-61017961D02*
X157789380Y-61113200D01*
X157789380Y-61113200D02*
X157932237Y-61160819D01*
X157932237Y-61160819D02*
X158027475Y-61160819D01*
X157170332Y-61160819D02*
X157170332Y-60160819D01*
X157170332Y-60160819D02*
X156789380Y-60160819D01*
X156789380Y-60160819D02*
X156694142Y-60208438D01*
X156694142Y-60208438D02*
X156646523Y-60256057D01*
X156646523Y-60256057D02*
X156598904Y-60351295D01*
X156598904Y-60351295D02*
X156598904Y-60494152D01*
X156598904Y-60494152D02*
X156646523Y-60589390D01*
X156646523Y-60589390D02*
X156694142Y-60637009D01*
X156694142Y-60637009D02*
X156789380Y-60684628D01*
X156789380Y-60684628D02*
X157170332Y-60684628D01*
X155646523Y-61160819D02*
X156217951Y-61160819D01*
X155932237Y-61160819D02*
X155932237Y-60160819D01*
X155932237Y-60160819D02*
X156027475Y-60303676D01*
X156027475Y-60303676D02*
X156122713Y-60398914D01*
X156122713Y-60398914D02*
X156217951Y-60446533D01*
X155265570Y-60256057D02*
X155217951Y-60208438D01*
X155217951Y-60208438D02*
X155122713Y-60160819D01*
X155122713Y-60160819D02*
X154884618Y-60160819D01*
X154884618Y-60160819D02*
X154789380Y-60208438D01*
X154789380Y-60208438D02*
X154741761Y-60256057D01*
X154741761Y-60256057D02*
X154694142Y-60351295D01*
X154694142Y-60351295D02*
X154694142Y-60446533D01*
X154694142Y-60446533D02*
X154741761Y-60589390D01*
X154741761Y-60589390D02*
X155313189Y-61160819D01*
X155313189Y-61160819D02*
X154694142Y-61160819D01*
X158067332Y-56096819D02*
X157448285Y-56096819D01*
X157448285Y-56096819D02*
X157781618Y-56477771D01*
X157781618Y-56477771D02*
X157638761Y-56477771D01*
X157638761Y-56477771D02*
X157543523Y-56525390D01*
X157543523Y-56525390D02*
X157495904Y-56573009D01*
X157495904Y-56573009D02*
X157448285Y-56668247D01*
X157448285Y-56668247D02*
X157448285Y-56906342D01*
X157448285Y-56906342D02*
X157495904Y-57001580D01*
X157495904Y-57001580D02*
X157543523Y-57049200D01*
X157543523Y-57049200D02*
X157638761Y-57096819D01*
X157638761Y-57096819D02*
X157924475Y-57096819D01*
X157924475Y-57096819D02*
X158019713Y-57049200D01*
X158019713Y-57049200D02*
X158067332Y-57001580D01*
X154654285Y-57096819D02*
X155225713Y-57096819D01*
X154939999Y-57096819D02*
X154939999Y-56096819D01*
X154939999Y-56096819D02*
X155035237Y-56239676D01*
X155035237Y-56239676D02*
X155130475Y-56334914D01*
X155130475Y-56334914D02*
X155225713Y-56382533D01*
D11*
X58776980Y-35171142D02*
X58824600Y-35123523D01*
X58824600Y-35123523D02*
X58872219Y-34980666D01*
X58872219Y-34980666D02*
X58872219Y-34885428D01*
X58872219Y-34885428D02*
X58824600Y-34742571D01*
X58824600Y-34742571D02*
X58729361Y-34647333D01*
X58729361Y-34647333D02*
X58634123Y-34599714D01*
X58634123Y-34599714D02*
X58443647Y-34552095D01*
X58443647Y-34552095D02*
X58300790Y-34552095D01*
X58300790Y-34552095D02*
X58110314Y-34599714D01*
X58110314Y-34599714D02*
X58015076Y-34647333D01*
X58015076Y-34647333D02*
X57919838Y-34742571D01*
X57919838Y-34742571D02*
X57872219Y-34885428D01*
X57872219Y-34885428D02*
X57872219Y-34980666D01*
X57872219Y-34980666D02*
X57919838Y-35123523D01*
X57919838Y-35123523D02*
X57967457Y-35171142D01*
X57967457Y-35552095D02*
X57919838Y-35599714D01*
X57919838Y-35599714D02*
X57872219Y-35694952D01*
X57872219Y-35694952D02*
X57872219Y-35933047D01*
X57872219Y-35933047D02*
X57919838Y-36028285D01*
X57919838Y-36028285D02*
X57967457Y-36075904D01*
X57967457Y-36075904D02*
X58062695Y-36123523D01*
X58062695Y-36123523D02*
X58157933Y-36123523D01*
X58157933Y-36123523D02*
X58300790Y-36075904D01*
X58300790Y-36075904D02*
X58872219Y-35504476D01*
X58872219Y-35504476D02*
X58872219Y-36123523D01*
X57872219Y-36742571D02*
X57872219Y-36837809D01*
X57872219Y-36837809D02*
X57919838Y-36933047D01*
X57919838Y-36933047D02*
X57967457Y-36980666D01*
X57967457Y-36980666D02*
X58062695Y-37028285D01*
X58062695Y-37028285D02*
X58253171Y-37075904D01*
X58253171Y-37075904D02*
X58491266Y-37075904D01*
X58491266Y-37075904D02*
X58681742Y-37028285D01*
X58681742Y-37028285D02*
X58776980Y-36980666D01*
X58776980Y-36980666D02*
X58824600Y-36933047D01*
X58824600Y-36933047D02*
X58872219Y-36837809D01*
X58872219Y-36837809D02*
X58872219Y-36742571D01*
X58872219Y-36742571D02*
X58824600Y-36647333D01*
X58824600Y-36647333D02*
X58776980Y-36599714D01*
X58776980Y-36599714D02*
X58681742Y-36552095D01*
X58681742Y-36552095D02*
X58491266Y-36504476D01*
X58491266Y-36504476D02*
X58253171Y-36504476D01*
X58253171Y-36504476D02*
X58062695Y-36552095D01*
X58062695Y-36552095D02*
X57967457Y-36599714D01*
X57967457Y-36599714D02*
X57919838Y-36647333D01*
X57919838Y-36647333D02*
X57872219Y-36742571D01*
X53696980Y-35171142D02*
X53744600Y-35123523D01*
X53744600Y-35123523D02*
X53792219Y-34980666D01*
X53792219Y-34980666D02*
X53792219Y-34885428D01*
X53792219Y-34885428D02*
X53744600Y-34742571D01*
X53744600Y-34742571D02*
X53649361Y-34647333D01*
X53649361Y-34647333D02*
X53554123Y-34599714D01*
X53554123Y-34599714D02*
X53363647Y-34552095D01*
X53363647Y-34552095D02*
X53220790Y-34552095D01*
X53220790Y-34552095D02*
X53030314Y-34599714D01*
X53030314Y-34599714D02*
X52935076Y-34647333D01*
X52935076Y-34647333D02*
X52839838Y-34742571D01*
X52839838Y-34742571D02*
X52792219Y-34885428D01*
X52792219Y-34885428D02*
X52792219Y-34980666D01*
X52792219Y-34980666D02*
X52839838Y-35123523D01*
X52839838Y-35123523D02*
X52887457Y-35171142D01*
X52887457Y-35552095D02*
X52839838Y-35599714D01*
X52839838Y-35599714D02*
X52792219Y-35694952D01*
X52792219Y-35694952D02*
X52792219Y-35933047D01*
X52792219Y-35933047D02*
X52839838Y-36028285D01*
X52839838Y-36028285D02*
X52887457Y-36075904D01*
X52887457Y-36075904D02*
X52982695Y-36123523D01*
X52982695Y-36123523D02*
X53077933Y-36123523D01*
X53077933Y-36123523D02*
X53220790Y-36075904D01*
X53220790Y-36075904D02*
X53792219Y-35504476D01*
X53792219Y-35504476D02*
X53792219Y-36123523D01*
X52792219Y-36980666D02*
X52792219Y-36790190D01*
X52792219Y-36790190D02*
X52839838Y-36694952D01*
X52839838Y-36694952D02*
X52887457Y-36647333D01*
X52887457Y-36647333D02*
X53030314Y-36552095D01*
X53030314Y-36552095D02*
X53220790Y-36504476D01*
X53220790Y-36504476D02*
X53601742Y-36504476D01*
X53601742Y-36504476D02*
X53696980Y-36552095D01*
X53696980Y-36552095D02*
X53744600Y-36599714D01*
X53744600Y-36599714D02*
X53792219Y-36694952D01*
X53792219Y-36694952D02*
X53792219Y-36885428D01*
X53792219Y-36885428D02*
X53744600Y-36980666D01*
X53744600Y-36980666D02*
X53696980Y-37028285D01*
X53696980Y-37028285D02*
X53601742Y-37075904D01*
X53601742Y-37075904D02*
X53363647Y-37075904D01*
X53363647Y-37075904D02*
X53268409Y-37028285D01*
X53268409Y-37028285D02*
X53220790Y-36980666D01*
X53220790Y-36980666D02*
X53173171Y-36885428D01*
X53173171Y-36885428D02*
X53173171Y-36694952D01*
X53173171Y-36694952D02*
X53220790Y-36599714D01*
X53220790Y-36599714D02*
X53268409Y-36552095D01*
X53268409Y-36552095D02*
X53363647Y-36504476D01*
X199334219Y-46601142D02*
X198858028Y-46267809D01*
X199334219Y-46029714D02*
X198334219Y-46029714D01*
X198334219Y-46029714D02*
X198334219Y-46410666D01*
X198334219Y-46410666D02*
X198381838Y-46505904D01*
X198381838Y-46505904D02*
X198429457Y-46553523D01*
X198429457Y-46553523D02*
X198524695Y-46601142D01*
X198524695Y-46601142D02*
X198667552Y-46601142D01*
X198667552Y-46601142D02*
X198762790Y-46553523D01*
X198762790Y-46553523D02*
X198810409Y-46505904D01*
X198810409Y-46505904D02*
X198858028Y-46410666D01*
X198858028Y-46410666D02*
X198858028Y-46029714D01*
X198429457Y-46982095D02*
X198381838Y-47029714D01*
X198381838Y-47029714D02*
X198334219Y-47124952D01*
X198334219Y-47124952D02*
X198334219Y-47363047D01*
X198334219Y-47363047D02*
X198381838Y-47458285D01*
X198381838Y-47458285D02*
X198429457Y-47505904D01*
X198429457Y-47505904D02*
X198524695Y-47553523D01*
X198524695Y-47553523D02*
X198619933Y-47553523D01*
X198619933Y-47553523D02*
X198762790Y-47505904D01*
X198762790Y-47505904D02*
X199334219Y-46934476D01*
X199334219Y-46934476D02*
X199334219Y-47553523D01*
X198334219Y-48172571D02*
X198334219Y-48267809D01*
X198334219Y-48267809D02*
X198381838Y-48363047D01*
X198381838Y-48363047D02*
X198429457Y-48410666D01*
X198429457Y-48410666D02*
X198524695Y-48458285D01*
X198524695Y-48458285D02*
X198715171Y-48505904D01*
X198715171Y-48505904D02*
X198953266Y-48505904D01*
X198953266Y-48505904D02*
X199143742Y-48458285D01*
X199143742Y-48458285D02*
X199238980Y-48410666D01*
X199238980Y-48410666D02*
X199286600Y-48363047D01*
X199286600Y-48363047D02*
X199334219Y-48267809D01*
X199334219Y-48267809D02*
X199334219Y-48172571D01*
X199334219Y-48172571D02*
X199286600Y-48077333D01*
X199286600Y-48077333D02*
X199238980Y-48029714D01*
X199238980Y-48029714D02*
X199143742Y-47982095D01*
X199143742Y-47982095D02*
X198953266Y-47934476D01*
X198953266Y-47934476D02*
X198715171Y-47934476D01*
X198715171Y-47934476D02*
X198524695Y-47982095D01*
X198524695Y-47982095D02*
X198429457Y-48029714D01*
X198429457Y-48029714D02*
X198381838Y-48077333D01*
X198381838Y-48077333D02*
X198334219Y-48172571D01*
D12*
X179016819Y-93165714D02*
X178016819Y-93165714D01*
X178016819Y-93165714D02*
X178016819Y-93403809D01*
X178016819Y-93403809D02*
X178064438Y-93546666D01*
X178064438Y-93546666D02*
X178159676Y-93641904D01*
X178159676Y-93641904D02*
X178254914Y-93689523D01*
X178254914Y-93689523D02*
X178445390Y-93737142D01*
X178445390Y-93737142D02*
X178588247Y-93737142D01*
X178588247Y-93737142D02*
X178778723Y-93689523D01*
X178778723Y-93689523D02*
X178873961Y-93641904D01*
X178873961Y-93641904D02*
X178969200Y-93546666D01*
X178969200Y-93546666D02*
X179016819Y-93403809D01*
X179016819Y-93403809D02*
X179016819Y-93165714D01*
X179016819Y-94689523D02*
X179016819Y-94118095D01*
X179016819Y-94403809D02*
X178016819Y-94403809D01*
X178016819Y-94403809D02*
X178159676Y-94308571D01*
X178159676Y-94308571D02*
X178254914Y-94213333D01*
X178254914Y-94213333D02*
X178302533Y-94118095D01*
X178016819Y-95594285D02*
X178016819Y-95118095D01*
X178016819Y-95118095D02*
X178493009Y-95070476D01*
X178493009Y-95070476D02*
X178445390Y-95118095D01*
X178445390Y-95118095D02*
X178397771Y-95213333D01*
X178397771Y-95213333D02*
X178397771Y-95451428D01*
X178397771Y-95451428D02*
X178445390Y-95546666D01*
X178445390Y-95546666D02*
X178493009Y-95594285D01*
X178493009Y-95594285D02*
X178588247Y-95641904D01*
X178588247Y-95641904D02*
X178826342Y-95641904D01*
X178826342Y-95641904D02*
X178921580Y-95594285D01*
X178921580Y-95594285D02*
X178969200Y-95546666D01*
X178969200Y-95546666D02*
X179016819Y-95451428D01*
X179016819Y-95451428D02*
X179016819Y-95213333D01*
X179016819Y-95213333D02*
X178969200Y-95118095D01*
X178969200Y-95118095D02*
X178921580Y-95070476D01*
D11*
X125420219Y-68191142D02*
X124944028Y-67857809D01*
X125420219Y-67619714D02*
X124420219Y-67619714D01*
X124420219Y-67619714D02*
X124420219Y-68000666D01*
X124420219Y-68000666D02*
X124467838Y-68095904D01*
X124467838Y-68095904D02*
X124515457Y-68143523D01*
X124515457Y-68143523D02*
X124610695Y-68191142D01*
X124610695Y-68191142D02*
X124753552Y-68191142D01*
X124753552Y-68191142D02*
X124848790Y-68143523D01*
X124848790Y-68143523D02*
X124896409Y-68095904D01*
X124896409Y-68095904D02*
X124944028Y-68000666D01*
X124944028Y-68000666D02*
X124944028Y-67619714D01*
X124515457Y-68572095D02*
X124467838Y-68619714D01*
X124467838Y-68619714D02*
X124420219Y-68714952D01*
X124420219Y-68714952D02*
X124420219Y-68953047D01*
X124420219Y-68953047D02*
X124467838Y-69048285D01*
X124467838Y-69048285D02*
X124515457Y-69095904D01*
X124515457Y-69095904D02*
X124610695Y-69143523D01*
X124610695Y-69143523D02*
X124705933Y-69143523D01*
X124705933Y-69143523D02*
X124848790Y-69095904D01*
X124848790Y-69095904D02*
X125420219Y-68524476D01*
X125420219Y-68524476D02*
X125420219Y-69143523D01*
X124515457Y-69524476D02*
X124467838Y-69572095D01*
X124467838Y-69572095D02*
X124420219Y-69667333D01*
X124420219Y-69667333D02*
X124420219Y-69905428D01*
X124420219Y-69905428D02*
X124467838Y-70000666D01*
X124467838Y-70000666D02*
X124515457Y-70048285D01*
X124515457Y-70048285D02*
X124610695Y-70095904D01*
X124610695Y-70095904D02*
X124705933Y-70095904D01*
X124705933Y-70095904D02*
X124848790Y-70048285D01*
X124848790Y-70048285D02*
X125420219Y-69476857D01*
X125420219Y-69476857D02*
X125420219Y-70095904D01*
D12*
X159712819Y-73969714D02*
X158712819Y-73969714D01*
X158712819Y-73969714D02*
X158712819Y-74207809D01*
X158712819Y-74207809D02*
X158760438Y-74350666D01*
X158760438Y-74350666D02*
X158855676Y-74445904D01*
X158855676Y-74445904D02*
X158950914Y-74493523D01*
X158950914Y-74493523D02*
X159141390Y-74541142D01*
X159141390Y-74541142D02*
X159284247Y-74541142D01*
X159284247Y-74541142D02*
X159474723Y-74493523D01*
X159474723Y-74493523D02*
X159569961Y-74445904D01*
X159569961Y-74445904D02*
X159665200Y-74350666D01*
X159665200Y-74350666D02*
X159712819Y-74207809D01*
X159712819Y-74207809D02*
X159712819Y-73969714D01*
X159712819Y-75493523D02*
X159712819Y-74922095D01*
X159712819Y-75207809D02*
X158712819Y-75207809D01*
X158712819Y-75207809D02*
X158855676Y-75112571D01*
X158855676Y-75112571D02*
X158950914Y-75017333D01*
X158950914Y-75017333D02*
X158998533Y-74922095D01*
X158808057Y-75874476D02*
X158760438Y-75922095D01*
X158760438Y-75922095D02*
X158712819Y-76017333D01*
X158712819Y-76017333D02*
X158712819Y-76255428D01*
X158712819Y-76255428D02*
X158760438Y-76350666D01*
X158760438Y-76350666D02*
X158808057Y-76398285D01*
X158808057Y-76398285D02*
X158903295Y-76445904D01*
X158903295Y-76445904D02*
X158998533Y-76445904D01*
X158998533Y-76445904D02*
X159141390Y-76398285D01*
X159141390Y-76398285D02*
X159712819Y-75826857D01*
X159712819Y-75826857D02*
X159712819Y-76445904D01*
D11*
X171902219Y-39235142D02*
X171426028Y-38901809D01*
X171902219Y-38663714D02*
X170902219Y-38663714D01*
X170902219Y-38663714D02*
X170902219Y-39044666D01*
X170902219Y-39044666D02*
X170949838Y-39139904D01*
X170949838Y-39139904D02*
X170997457Y-39187523D01*
X170997457Y-39187523D02*
X171092695Y-39235142D01*
X171092695Y-39235142D02*
X171235552Y-39235142D01*
X171235552Y-39235142D02*
X171330790Y-39187523D01*
X171330790Y-39187523D02*
X171378409Y-39139904D01*
X171378409Y-39139904D02*
X171426028Y-39044666D01*
X171426028Y-39044666D02*
X171426028Y-38663714D01*
X171902219Y-40187523D02*
X171902219Y-39616095D01*
X171902219Y-39901809D02*
X170902219Y-39901809D01*
X170902219Y-39901809D02*
X171045076Y-39806571D01*
X171045076Y-39806571D02*
X171140314Y-39711333D01*
X171140314Y-39711333D02*
X171187933Y-39616095D01*
X171902219Y-41139904D02*
X171902219Y-40568476D01*
X171902219Y-40854190D02*
X170902219Y-40854190D01*
X170902219Y-40854190D02*
X171045076Y-40758952D01*
X171045076Y-40758952D02*
X171140314Y-40663714D01*
X171140314Y-40663714D02*
X171187933Y-40568476D01*
D12*
X82750819Y-93684505D02*
X81750819Y-93684505D01*
X81750819Y-93684505D02*
X81750819Y-93922600D01*
X81750819Y-93922600D02*
X81798438Y-94065457D01*
X81798438Y-94065457D02*
X81893676Y-94160695D01*
X81893676Y-94160695D02*
X81988914Y-94208314D01*
X81988914Y-94208314D02*
X82179390Y-94255933D01*
X82179390Y-94255933D02*
X82322247Y-94255933D01*
X82322247Y-94255933D02*
X82512723Y-94208314D01*
X82512723Y-94208314D02*
X82607961Y-94160695D01*
X82607961Y-94160695D02*
X82703200Y-94065457D01*
X82703200Y-94065457D02*
X82750819Y-93922600D01*
X82750819Y-93922600D02*
X82750819Y-93684505D01*
X81750819Y-94589267D02*
X81750819Y-95255933D01*
X81750819Y-95255933D02*
X82750819Y-94827362D01*
X82496819Y-74445905D02*
X81496819Y-74445905D01*
X81496819Y-74445905D02*
X81496819Y-74684000D01*
X81496819Y-74684000D02*
X81544438Y-74826857D01*
X81544438Y-74826857D02*
X81639676Y-74922095D01*
X81639676Y-74922095D02*
X81734914Y-74969714D01*
X81734914Y-74969714D02*
X81925390Y-75017333D01*
X81925390Y-75017333D02*
X82068247Y-75017333D01*
X82068247Y-75017333D02*
X82258723Y-74969714D01*
X82258723Y-74969714D02*
X82353961Y-74922095D01*
X82353961Y-74922095D02*
X82449200Y-74826857D01*
X82449200Y-74826857D02*
X82496819Y-74684000D01*
X82496819Y-74684000D02*
X82496819Y-74445905D01*
X81496819Y-75350667D02*
X81496819Y-75969714D01*
X81496819Y-75969714D02*
X81877771Y-75636381D01*
X81877771Y-75636381D02*
X81877771Y-75779238D01*
X81877771Y-75779238D02*
X81925390Y-75874476D01*
X81925390Y-75874476D02*
X81973009Y-75922095D01*
X81973009Y-75922095D02*
X82068247Y-75969714D01*
X82068247Y-75969714D02*
X82306342Y-75969714D01*
X82306342Y-75969714D02*
X82401580Y-75922095D01*
X82401580Y-75922095D02*
X82449200Y-75874476D01*
X82449200Y-75874476D02*
X82496819Y-75779238D01*
X82496819Y-75779238D02*
X82496819Y-75493524D01*
X82496819Y-75493524D02*
X82449200Y-75398286D01*
X82449200Y-75398286D02*
X82401580Y-75350667D01*
D11*
X160726219Y-46601142D02*
X160250028Y-46267809D01*
X160726219Y-46029714D02*
X159726219Y-46029714D01*
X159726219Y-46029714D02*
X159726219Y-46410666D01*
X159726219Y-46410666D02*
X159773838Y-46505904D01*
X159773838Y-46505904D02*
X159821457Y-46553523D01*
X159821457Y-46553523D02*
X159916695Y-46601142D01*
X159916695Y-46601142D02*
X160059552Y-46601142D01*
X160059552Y-46601142D02*
X160154790Y-46553523D01*
X160154790Y-46553523D02*
X160202409Y-46505904D01*
X160202409Y-46505904D02*
X160250028Y-46410666D01*
X160250028Y-46410666D02*
X160250028Y-46029714D01*
X160726219Y-47553523D02*
X160726219Y-46982095D01*
X160726219Y-47267809D02*
X159726219Y-47267809D01*
X159726219Y-47267809D02*
X159869076Y-47172571D01*
X159869076Y-47172571D02*
X159964314Y-47077333D01*
X159964314Y-47077333D02*
X160011933Y-46982095D01*
X160726219Y-48029714D02*
X160726219Y-48220190D01*
X160726219Y-48220190D02*
X160678600Y-48315428D01*
X160678600Y-48315428D02*
X160630980Y-48363047D01*
X160630980Y-48363047D02*
X160488123Y-48458285D01*
X160488123Y-48458285D02*
X160297647Y-48505904D01*
X160297647Y-48505904D02*
X159916695Y-48505904D01*
X159916695Y-48505904D02*
X159821457Y-48458285D01*
X159821457Y-48458285D02*
X159773838Y-48410666D01*
X159773838Y-48410666D02*
X159726219Y-48315428D01*
X159726219Y-48315428D02*
X159726219Y-48124952D01*
X159726219Y-48124952D02*
X159773838Y-48029714D01*
X159773838Y-48029714D02*
X159821457Y-47982095D01*
X159821457Y-47982095D02*
X159916695Y-47934476D01*
X159916695Y-47934476D02*
X160154790Y-47934476D01*
X160154790Y-47934476D02*
X160250028Y-47982095D01*
X160250028Y-47982095D02*
X160297647Y-48029714D01*
X160297647Y-48029714D02*
X160345266Y-48124952D01*
X160345266Y-48124952D02*
X160345266Y-48315428D01*
X160345266Y-48315428D02*
X160297647Y-48410666D01*
X160297647Y-48410666D02*
X160250028Y-48458285D01*
X160250028Y-48458285D02*
X160154790Y-48505904D01*
X74016980Y-35171142D02*
X74064600Y-35123523D01*
X74064600Y-35123523D02*
X74112219Y-34980666D01*
X74112219Y-34980666D02*
X74112219Y-34885428D01*
X74112219Y-34885428D02*
X74064600Y-34742571D01*
X74064600Y-34742571D02*
X73969361Y-34647333D01*
X73969361Y-34647333D02*
X73874123Y-34599714D01*
X73874123Y-34599714D02*
X73683647Y-34552095D01*
X73683647Y-34552095D02*
X73540790Y-34552095D01*
X73540790Y-34552095D02*
X73350314Y-34599714D01*
X73350314Y-34599714D02*
X73255076Y-34647333D01*
X73255076Y-34647333D02*
X73159838Y-34742571D01*
X73159838Y-34742571D02*
X73112219Y-34885428D01*
X73112219Y-34885428D02*
X73112219Y-34980666D01*
X73112219Y-34980666D02*
X73159838Y-35123523D01*
X73159838Y-35123523D02*
X73207457Y-35171142D01*
X74112219Y-36123523D02*
X74112219Y-35552095D01*
X74112219Y-35837809D02*
X73112219Y-35837809D01*
X73112219Y-35837809D02*
X73255076Y-35742571D01*
X73255076Y-35742571D02*
X73350314Y-35647333D01*
X73350314Y-35647333D02*
X73397933Y-35552095D01*
X73112219Y-36456857D02*
X73112219Y-37123523D01*
X73112219Y-37123523D02*
X74112219Y-36694952D01*
X188412219Y-46601142D02*
X187936028Y-46267809D01*
X188412219Y-46029714D02*
X187412219Y-46029714D01*
X187412219Y-46029714D02*
X187412219Y-46410666D01*
X187412219Y-46410666D02*
X187459838Y-46505904D01*
X187459838Y-46505904D02*
X187507457Y-46553523D01*
X187507457Y-46553523D02*
X187602695Y-46601142D01*
X187602695Y-46601142D02*
X187745552Y-46601142D01*
X187745552Y-46601142D02*
X187840790Y-46553523D01*
X187840790Y-46553523D02*
X187888409Y-46505904D01*
X187888409Y-46505904D02*
X187936028Y-46410666D01*
X187936028Y-46410666D02*
X187936028Y-46029714D01*
X188412219Y-47553523D02*
X188412219Y-46982095D01*
X188412219Y-47267809D02*
X187412219Y-47267809D01*
X187412219Y-47267809D02*
X187555076Y-47172571D01*
X187555076Y-47172571D02*
X187650314Y-47077333D01*
X187650314Y-47077333D02*
X187697933Y-46982095D01*
X187840790Y-48124952D02*
X187793171Y-48029714D01*
X187793171Y-48029714D02*
X187745552Y-47982095D01*
X187745552Y-47982095D02*
X187650314Y-47934476D01*
X187650314Y-47934476D02*
X187602695Y-47934476D01*
X187602695Y-47934476D02*
X187507457Y-47982095D01*
X187507457Y-47982095D02*
X187459838Y-48029714D01*
X187459838Y-48029714D02*
X187412219Y-48124952D01*
X187412219Y-48124952D02*
X187412219Y-48315428D01*
X187412219Y-48315428D02*
X187459838Y-48410666D01*
X187459838Y-48410666D02*
X187507457Y-48458285D01*
X187507457Y-48458285D02*
X187602695Y-48505904D01*
X187602695Y-48505904D02*
X187650314Y-48505904D01*
X187650314Y-48505904D02*
X187745552Y-48458285D01*
X187745552Y-48458285D02*
X187793171Y-48410666D01*
X187793171Y-48410666D02*
X187840790Y-48315428D01*
X187840790Y-48315428D02*
X187840790Y-48124952D01*
X187840790Y-48124952D02*
X187888409Y-48029714D01*
X187888409Y-48029714D02*
X187936028Y-47982095D01*
X187936028Y-47982095D02*
X188031266Y-47934476D01*
X188031266Y-47934476D02*
X188221742Y-47934476D01*
X188221742Y-47934476D02*
X188316980Y-47982095D01*
X188316980Y-47982095D02*
X188364600Y-48029714D01*
X188364600Y-48029714D02*
X188412219Y-48124952D01*
X188412219Y-48124952D02*
X188412219Y-48315428D01*
X188412219Y-48315428D02*
X188364600Y-48410666D01*
X188364600Y-48410666D02*
X188316980Y-48458285D01*
X188316980Y-48458285D02*
X188221742Y-48505904D01*
X188221742Y-48505904D02*
X188031266Y-48505904D01*
X188031266Y-48505904D02*
X187936028Y-48458285D01*
X187936028Y-48458285D02*
X187888409Y-48410666D01*
X187888409Y-48410666D02*
X187840790Y-48315428D01*
X79096980Y-35171142D02*
X79144600Y-35123523D01*
X79144600Y-35123523D02*
X79192219Y-34980666D01*
X79192219Y-34980666D02*
X79192219Y-34885428D01*
X79192219Y-34885428D02*
X79144600Y-34742571D01*
X79144600Y-34742571D02*
X79049361Y-34647333D01*
X79049361Y-34647333D02*
X78954123Y-34599714D01*
X78954123Y-34599714D02*
X78763647Y-34552095D01*
X78763647Y-34552095D02*
X78620790Y-34552095D01*
X78620790Y-34552095D02*
X78430314Y-34599714D01*
X78430314Y-34599714D02*
X78335076Y-34647333D01*
X78335076Y-34647333D02*
X78239838Y-34742571D01*
X78239838Y-34742571D02*
X78192219Y-34885428D01*
X78192219Y-34885428D02*
X78192219Y-34980666D01*
X78192219Y-34980666D02*
X78239838Y-35123523D01*
X78239838Y-35123523D02*
X78287457Y-35171142D01*
X79192219Y-36123523D02*
X79192219Y-35552095D01*
X79192219Y-35837809D02*
X78192219Y-35837809D01*
X78192219Y-35837809D02*
X78335076Y-35742571D01*
X78335076Y-35742571D02*
X78430314Y-35647333D01*
X78430314Y-35647333D02*
X78477933Y-35552095D01*
X79192219Y-36599714D02*
X79192219Y-36790190D01*
X79192219Y-36790190D02*
X79144600Y-36885428D01*
X79144600Y-36885428D02*
X79096980Y-36933047D01*
X79096980Y-36933047D02*
X78954123Y-37028285D01*
X78954123Y-37028285D02*
X78763647Y-37075904D01*
X78763647Y-37075904D02*
X78382695Y-37075904D01*
X78382695Y-37075904D02*
X78287457Y-37028285D01*
X78287457Y-37028285D02*
X78239838Y-36980666D01*
X78239838Y-36980666D02*
X78192219Y-36885428D01*
X78192219Y-36885428D02*
X78192219Y-36694952D01*
X78192219Y-36694952D02*
X78239838Y-36599714D01*
X78239838Y-36599714D02*
X78287457Y-36552095D01*
X78287457Y-36552095D02*
X78382695Y-36504476D01*
X78382695Y-36504476D02*
X78620790Y-36504476D01*
X78620790Y-36504476D02*
X78716028Y-36552095D01*
X78716028Y-36552095D02*
X78763647Y-36599714D01*
X78763647Y-36599714D02*
X78811266Y-36694952D01*
X78811266Y-36694952D02*
X78811266Y-36885428D01*
X78811266Y-36885428D02*
X78763647Y-36980666D01*
X78763647Y-36980666D02*
X78716028Y-37028285D01*
X78716028Y-37028285D02*
X78620790Y-37075904D01*
X56236980Y-35171142D02*
X56284600Y-35123523D01*
X56284600Y-35123523D02*
X56332219Y-34980666D01*
X56332219Y-34980666D02*
X56332219Y-34885428D01*
X56332219Y-34885428D02*
X56284600Y-34742571D01*
X56284600Y-34742571D02*
X56189361Y-34647333D01*
X56189361Y-34647333D02*
X56094123Y-34599714D01*
X56094123Y-34599714D02*
X55903647Y-34552095D01*
X55903647Y-34552095D02*
X55760790Y-34552095D01*
X55760790Y-34552095D02*
X55570314Y-34599714D01*
X55570314Y-34599714D02*
X55475076Y-34647333D01*
X55475076Y-34647333D02*
X55379838Y-34742571D01*
X55379838Y-34742571D02*
X55332219Y-34885428D01*
X55332219Y-34885428D02*
X55332219Y-34980666D01*
X55332219Y-34980666D02*
X55379838Y-35123523D01*
X55379838Y-35123523D02*
X55427457Y-35171142D01*
X55427457Y-35552095D02*
X55379838Y-35599714D01*
X55379838Y-35599714D02*
X55332219Y-35694952D01*
X55332219Y-35694952D02*
X55332219Y-35933047D01*
X55332219Y-35933047D02*
X55379838Y-36028285D01*
X55379838Y-36028285D02*
X55427457Y-36075904D01*
X55427457Y-36075904D02*
X55522695Y-36123523D01*
X55522695Y-36123523D02*
X55617933Y-36123523D01*
X55617933Y-36123523D02*
X55760790Y-36075904D01*
X55760790Y-36075904D02*
X56332219Y-35504476D01*
X56332219Y-35504476D02*
X56332219Y-36123523D01*
X55427457Y-36504476D02*
X55379838Y-36552095D01*
X55379838Y-36552095D02*
X55332219Y-36647333D01*
X55332219Y-36647333D02*
X55332219Y-36885428D01*
X55332219Y-36885428D02*
X55379838Y-36980666D01*
X55379838Y-36980666D02*
X55427457Y-37028285D01*
X55427457Y-37028285D02*
X55522695Y-37075904D01*
X55522695Y-37075904D02*
X55617933Y-37075904D01*
X55617933Y-37075904D02*
X55760790Y-37028285D01*
X55760790Y-37028285D02*
X56332219Y-36456857D01*
X56332219Y-36456857D02*
X56332219Y-37075904D01*
D12*
X198574819Y-73944314D02*
X197574819Y-73944314D01*
X197574819Y-73944314D02*
X197574819Y-74182409D01*
X197574819Y-74182409D02*
X197622438Y-74325266D01*
X197622438Y-74325266D02*
X197717676Y-74420504D01*
X197717676Y-74420504D02*
X197812914Y-74468123D01*
X197812914Y-74468123D02*
X198003390Y-74515742D01*
X198003390Y-74515742D02*
X198146247Y-74515742D01*
X198146247Y-74515742D02*
X198336723Y-74468123D01*
X198336723Y-74468123D02*
X198431961Y-74420504D01*
X198431961Y-74420504D02*
X198527200Y-74325266D01*
X198527200Y-74325266D02*
X198574819Y-74182409D01*
X198574819Y-74182409D02*
X198574819Y-73944314D01*
X198574819Y-75468123D02*
X198574819Y-74896695D01*
X198574819Y-75182409D02*
X197574819Y-75182409D01*
X197574819Y-75182409D02*
X197717676Y-75087171D01*
X197717676Y-75087171D02*
X197812914Y-74991933D01*
X197812914Y-74991933D02*
X197860533Y-74896695D01*
X197574819Y-76325266D02*
X197574819Y-76134790D01*
X197574819Y-76134790D02*
X197622438Y-76039552D01*
X197622438Y-76039552D02*
X197670057Y-75991933D01*
X197670057Y-75991933D02*
X197812914Y-75896695D01*
X197812914Y-75896695D02*
X198003390Y-75849076D01*
X198003390Y-75849076D02*
X198384342Y-75849076D01*
X198384342Y-75849076D02*
X198479580Y-75896695D01*
X198479580Y-75896695D02*
X198527200Y-75944314D01*
X198527200Y-75944314D02*
X198574819Y-76039552D01*
X198574819Y-76039552D02*
X198574819Y-76230028D01*
X198574819Y-76230028D02*
X198527200Y-76325266D01*
X198527200Y-76325266D02*
X198479580Y-76372885D01*
X198479580Y-76372885D02*
X198384342Y-76420504D01*
X198384342Y-76420504D02*
X198146247Y-76420504D01*
X198146247Y-76420504D02*
X198051009Y-76372885D01*
X198051009Y-76372885D02*
X198003390Y-76325266D01*
X198003390Y-76325266D02*
X197955771Y-76230028D01*
X197955771Y-76230028D02*
X197955771Y-76039552D01*
X197955771Y-76039552D02*
X198003390Y-75944314D01*
X198003390Y-75944314D02*
X198051009Y-75896695D01*
X198051009Y-75896695D02*
X198146247Y-75849076D01*
D11*
X141422219Y-46601142D02*
X140946028Y-46267809D01*
X141422219Y-46029714D02*
X140422219Y-46029714D01*
X140422219Y-46029714D02*
X140422219Y-46410666D01*
X140422219Y-46410666D02*
X140469838Y-46505904D01*
X140469838Y-46505904D02*
X140517457Y-46553523D01*
X140517457Y-46553523D02*
X140612695Y-46601142D01*
X140612695Y-46601142D02*
X140755552Y-46601142D01*
X140755552Y-46601142D02*
X140850790Y-46553523D01*
X140850790Y-46553523D02*
X140898409Y-46505904D01*
X140898409Y-46505904D02*
X140946028Y-46410666D01*
X140946028Y-46410666D02*
X140946028Y-46029714D01*
X141422219Y-47553523D02*
X141422219Y-46982095D01*
X141422219Y-47267809D02*
X140422219Y-47267809D01*
X140422219Y-47267809D02*
X140565076Y-47172571D01*
X140565076Y-47172571D02*
X140660314Y-47077333D01*
X140660314Y-47077333D02*
X140707933Y-46982095D01*
X140517457Y-47934476D02*
X140469838Y-47982095D01*
X140469838Y-47982095D02*
X140422219Y-48077333D01*
X140422219Y-48077333D02*
X140422219Y-48315428D01*
X140422219Y-48315428D02*
X140469838Y-48410666D01*
X140469838Y-48410666D02*
X140517457Y-48458285D01*
X140517457Y-48458285D02*
X140612695Y-48505904D01*
X140612695Y-48505904D02*
X140707933Y-48505904D01*
X140707933Y-48505904D02*
X140850790Y-48458285D01*
X140850790Y-48458285D02*
X141422219Y-47886857D01*
X141422219Y-47886857D02*
X141422219Y-48505904D01*
D12*
X190158523Y-48984819D02*
X190158523Y-49699104D01*
X190158523Y-49699104D02*
X190206142Y-49841961D01*
X190206142Y-49841961D02*
X190301380Y-49937200D01*
X190301380Y-49937200D02*
X190444237Y-49984819D01*
X190444237Y-49984819D02*
X190539475Y-49984819D01*
X189682332Y-49984819D02*
X189682332Y-48984819D01*
X189682332Y-48984819D02*
X189301380Y-48984819D01*
X189301380Y-48984819D02*
X189206142Y-49032438D01*
X189206142Y-49032438D02*
X189158523Y-49080057D01*
X189158523Y-49080057D02*
X189110904Y-49175295D01*
X189110904Y-49175295D02*
X189110904Y-49318152D01*
X189110904Y-49318152D02*
X189158523Y-49413390D01*
X189158523Y-49413390D02*
X189206142Y-49461009D01*
X189206142Y-49461009D02*
X189301380Y-49508628D01*
X189301380Y-49508628D02*
X189682332Y-49508628D01*
X188158523Y-49984819D02*
X188729951Y-49984819D01*
X188444237Y-49984819D02*
X188444237Y-48984819D01*
X188444237Y-48984819D02*
X188539475Y-49127676D01*
X188539475Y-49127676D02*
X188634713Y-49222914D01*
X188634713Y-49222914D02*
X188729951Y-49270533D01*
X187253761Y-48984819D02*
X187729951Y-48984819D01*
X187729951Y-48984819D02*
X187777570Y-49461009D01*
X187777570Y-49461009D02*
X187729951Y-49413390D01*
X187729951Y-49413390D02*
X187634713Y-49365771D01*
X187634713Y-49365771D02*
X187396618Y-49365771D01*
X187396618Y-49365771D02*
X187301380Y-49413390D01*
X187301380Y-49413390D02*
X187253761Y-49461009D01*
X187253761Y-49461009D02*
X187206142Y-49556247D01*
X187206142Y-49556247D02*
X187206142Y-49794342D01*
X187206142Y-49794342D02*
X187253761Y-49889580D01*
X187253761Y-49889580D02*
X187301380Y-49937200D01*
X187301380Y-49937200D02*
X187396618Y-49984819D01*
X187396618Y-49984819D02*
X187634713Y-49984819D01*
X187634713Y-49984819D02*
X187729951Y-49937200D01*
X187729951Y-49937200D02*
X187777570Y-49889580D01*
X152511123Y-60160819D02*
X152511123Y-60875104D01*
X152511123Y-60875104D02*
X152558742Y-61017961D01*
X152558742Y-61017961D02*
X152653980Y-61113200D01*
X152653980Y-61113200D02*
X152796837Y-61160819D01*
X152796837Y-61160819D02*
X152892075Y-61160819D01*
X152034932Y-61160819D02*
X152034932Y-60160819D01*
X152034932Y-60160819D02*
X151653980Y-60160819D01*
X151653980Y-60160819D02*
X151558742Y-60208438D01*
X151558742Y-60208438D02*
X151511123Y-60256057D01*
X151511123Y-60256057D02*
X151463504Y-60351295D01*
X151463504Y-60351295D02*
X151463504Y-60494152D01*
X151463504Y-60494152D02*
X151511123Y-60589390D01*
X151511123Y-60589390D02*
X151558742Y-60637009D01*
X151558742Y-60637009D02*
X151653980Y-60684628D01*
X151653980Y-60684628D02*
X152034932Y-60684628D01*
X150511123Y-61160819D02*
X151082551Y-61160819D01*
X150796837Y-61160819D02*
X150796837Y-60160819D01*
X150796837Y-60160819D02*
X150892075Y-60303676D01*
X150892075Y-60303676D02*
X150987313Y-60398914D01*
X150987313Y-60398914D02*
X151082551Y-60446533D01*
X149558742Y-61160819D02*
X150130170Y-61160819D01*
X149844456Y-61160819D02*
X149844456Y-60160819D01*
X149844456Y-60160819D02*
X149939694Y-60303676D01*
X149939694Y-60303676D02*
X150034932Y-60398914D01*
X150034932Y-60398914D02*
X150130170Y-60446533D01*
X149574285Y-57096819D02*
X150145713Y-57096819D01*
X149859999Y-57096819D02*
X149859999Y-56096819D01*
X149859999Y-56096819D02*
X149955237Y-56239676D01*
X149955237Y-56239676D02*
X150050475Y-56334914D01*
X150050475Y-56334914D02*
X150145713Y-56382533D01*
X152733332Y-56096819D02*
X152114285Y-56096819D01*
X152114285Y-56096819D02*
X152447618Y-56477771D01*
X152447618Y-56477771D02*
X152304761Y-56477771D01*
X152304761Y-56477771D02*
X152209523Y-56525390D01*
X152209523Y-56525390D02*
X152161904Y-56573009D01*
X152161904Y-56573009D02*
X152114285Y-56668247D01*
X152114285Y-56668247D02*
X152114285Y-56906342D01*
X152114285Y-56906342D02*
X152161904Y-57001580D01*
X152161904Y-57001580D02*
X152209523Y-57049200D01*
X152209523Y-57049200D02*
X152304761Y-57096819D01*
X152304761Y-57096819D02*
X152590475Y-57096819D01*
X152590475Y-57096819D02*
X152685713Y-57049200D01*
X152685713Y-57049200D02*
X152733332Y-57001580D01*
X120340333Y-59906819D02*
X120340333Y-60621104D01*
X120340333Y-60621104D02*
X120387952Y-60763961D01*
X120387952Y-60763961D02*
X120483190Y-60859200D01*
X120483190Y-60859200D02*
X120626047Y-60906819D01*
X120626047Y-60906819D02*
X120721285Y-60906819D01*
X119864142Y-60906819D02*
X119864142Y-59906819D01*
X119864142Y-59906819D02*
X119483190Y-59906819D01*
X119483190Y-59906819D02*
X119387952Y-59954438D01*
X119387952Y-59954438D02*
X119340333Y-60002057D01*
X119340333Y-60002057D02*
X119292714Y-60097295D01*
X119292714Y-60097295D02*
X119292714Y-60240152D01*
X119292714Y-60240152D02*
X119340333Y-60335390D01*
X119340333Y-60335390D02*
X119387952Y-60383009D01*
X119387952Y-60383009D02*
X119483190Y-60430628D01*
X119483190Y-60430628D02*
X119864142Y-60430628D01*
X118816523Y-60906819D02*
X118626047Y-60906819D01*
X118626047Y-60906819D02*
X118530809Y-60859200D01*
X118530809Y-60859200D02*
X118483190Y-60811580D01*
X118483190Y-60811580D02*
X118387952Y-60668723D01*
X118387952Y-60668723D02*
X118340333Y-60478247D01*
X118340333Y-60478247D02*
X118340333Y-60097295D01*
X118340333Y-60097295D02*
X118387952Y-60002057D01*
X118387952Y-60002057D02*
X118435571Y-59954438D01*
X118435571Y-59954438D02*
X118530809Y-59906819D01*
X118530809Y-59906819D02*
X118721285Y-59906819D01*
X118721285Y-59906819D02*
X118816523Y-59954438D01*
X118816523Y-59954438D02*
X118864142Y-60002057D01*
X118864142Y-60002057D02*
X118911761Y-60097295D01*
X118911761Y-60097295D02*
X118911761Y-60335390D01*
X118911761Y-60335390D02*
X118864142Y-60430628D01*
X118864142Y-60430628D02*
X118816523Y-60478247D01*
X118816523Y-60478247D02*
X118721285Y-60525866D01*
X118721285Y-60525866D02*
X118530809Y-60525866D01*
X118530809Y-60525866D02*
X118435571Y-60478247D01*
X118435571Y-60478247D02*
X118387952Y-60430628D01*
X118387952Y-60430628D02*
X118340333Y-60335390D01*
X121237332Y-56096819D02*
X120618285Y-56096819D01*
X120618285Y-56096819D02*
X120951618Y-56477771D01*
X120951618Y-56477771D02*
X120808761Y-56477771D01*
X120808761Y-56477771D02*
X120713523Y-56525390D01*
X120713523Y-56525390D02*
X120665904Y-56573009D01*
X120665904Y-56573009D02*
X120618285Y-56668247D01*
X120618285Y-56668247D02*
X120618285Y-56906342D01*
X120618285Y-56906342D02*
X120665904Y-57001580D01*
X120665904Y-57001580D02*
X120713523Y-57049200D01*
X120713523Y-57049200D02*
X120808761Y-57096819D01*
X120808761Y-57096819D02*
X121094475Y-57096819D01*
X121094475Y-57096819D02*
X121189713Y-57049200D01*
X121189713Y-57049200D02*
X121237332Y-57001580D01*
X117824285Y-57096819D02*
X118395713Y-57096819D01*
X118109999Y-57096819D02*
X118109999Y-56096819D01*
X118109999Y-56096819D02*
X118205237Y-56239676D01*
X118205237Y-56239676D02*
X118300475Y-56334914D01*
X118300475Y-56334914D02*
X118395713Y-56382533D01*
X97986333Y-50230819D02*
X97986333Y-50945104D01*
X97986333Y-50945104D02*
X98033952Y-51087961D01*
X98033952Y-51087961D02*
X98129190Y-51183200D01*
X98129190Y-51183200D02*
X98272047Y-51230819D01*
X98272047Y-51230819D02*
X98367285Y-51230819D01*
X96986333Y-51230819D02*
X97557761Y-51230819D01*
X97272047Y-51230819D02*
X97272047Y-50230819D01*
X97272047Y-50230819D02*
X97367285Y-50373676D01*
X97367285Y-50373676D02*
X97462523Y-50468914D01*
X97462523Y-50468914D02*
X97557761Y-50516533D01*
D11*
X140374666Y-72334219D02*
X140707999Y-71858028D01*
X140946094Y-72334219D02*
X140946094Y-71334219D01*
X140946094Y-71334219D02*
X140565142Y-71334219D01*
X140565142Y-71334219D02*
X140469904Y-71381838D01*
X140469904Y-71381838D02*
X140422285Y-71429457D01*
X140422285Y-71429457D02*
X140374666Y-71524695D01*
X140374666Y-71524695D02*
X140374666Y-71667552D01*
X140374666Y-71667552D02*
X140422285Y-71762790D01*
X140422285Y-71762790D02*
X140469904Y-71810409D01*
X140469904Y-71810409D02*
X140565142Y-71858028D01*
X140565142Y-71858028D02*
X140946094Y-71858028D01*
X140041332Y-71334219D02*
X139374666Y-71334219D01*
X139374666Y-71334219D02*
X139803237Y-72334219D01*
D12*
X63446819Y-93749905D02*
X62446819Y-93749905D01*
X62446819Y-93749905D02*
X62446819Y-93988000D01*
X62446819Y-93988000D02*
X62494438Y-94130857D01*
X62494438Y-94130857D02*
X62589676Y-94226095D01*
X62589676Y-94226095D02*
X62684914Y-94273714D01*
X62684914Y-94273714D02*
X62875390Y-94321333D01*
X62875390Y-94321333D02*
X63018247Y-94321333D01*
X63018247Y-94321333D02*
X63208723Y-94273714D01*
X63208723Y-94273714D02*
X63303961Y-94226095D01*
X63303961Y-94226095D02*
X63399200Y-94130857D01*
X63399200Y-94130857D02*
X63446819Y-93988000D01*
X63446819Y-93988000D02*
X63446819Y-93749905D01*
X62446819Y-95178476D02*
X62446819Y-94988000D01*
X62446819Y-94988000D02*
X62494438Y-94892762D01*
X62494438Y-94892762D02*
X62542057Y-94845143D01*
X62542057Y-94845143D02*
X62684914Y-94749905D01*
X62684914Y-94749905D02*
X62875390Y-94702286D01*
X62875390Y-94702286D02*
X63256342Y-94702286D01*
X63256342Y-94702286D02*
X63351580Y-94749905D01*
X63351580Y-94749905D02*
X63399200Y-94797524D01*
X63399200Y-94797524D02*
X63446819Y-94892762D01*
X63446819Y-94892762D02*
X63446819Y-95083238D01*
X63446819Y-95083238D02*
X63399200Y-95178476D01*
X63399200Y-95178476D02*
X63351580Y-95226095D01*
X63351580Y-95226095D02*
X63256342Y-95273714D01*
X63256342Y-95273714D02*
X63018247Y-95273714D01*
X63018247Y-95273714D02*
X62923009Y-95226095D01*
X62923009Y-95226095D02*
X62875390Y-95178476D01*
X62875390Y-95178476D02*
X62827771Y-95083238D01*
X62827771Y-95083238D02*
X62827771Y-94892762D01*
X62827771Y-94892762D02*
X62875390Y-94797524D01*
X62875390Y-94797524D02*
X62923009Y-94749905D01*
X62923009Y-94749905D02*
X63018247Y-94702286D01*
X138577533Y-62065819D02*
X138577533Y-62780104D01*
X138577533Y-62780104D02*
X138625152Y-62922961D01*
X138625152Y-62922961D02*
X138720390Y-63018200D01*
X138720390Y-63018200D02*
X138863247Y-63065819D01*
X138863247Y-63065819D02*
X138958485Y-63065819D01*
X138101342Y-63065819D02*
X138101342Y-62065819D01*
X138101342Y-62065819D02*
X137720390Y-62065819D01*
X137720390Y-62065819D02*
X137625152Y-62113438D01*
X137625152Y-62113438D02*
X137577533Y-62161057D01*
X137577533Y-62161057D02*
X137529914Y-62256295D01*
X137529914Y-62256295D02*
X137529914Y-62399152D01*
X137529914Y-62399152D02*
X137577533Y-62494390D01*
X137577533Y-62494390D02*
X137625152Y-62542009D01*
X137625152Y-62542009D02*
X137720390Y-62589628D01*
X137720390Y-62589628D02*
X138101342Y-62589628D01*
X136672771Y-62065819D02*
X136863247Y-62065819D01*
X136863247Y-62065819D02*
X136958485Y-62113438D01*
X136958485Y-62113438D02*
X137006104Y-62161057D01*
X137006104Y-62161057D02*
X137101342Y-62303914D01*
X137101342Y-62303914D02*
X137148961Y-62494390D01*
X137148961Y-62494390D02*
X137148961Y-62875342D01*
X137148961Y-62875342D02*
X137101342Y-62970580D01*
X137101342Y-62970580D02*
X137053723Y-63018200D01*
X137053723Y-63018200D02*
X136958485Y-63065819D01*
X136958485Y-63065819D02*
X136768009Y-63065819D01*
X136768009Y-63065819D02*
X136672771Y-63018200D01*
X136672771Y-63018200D02*
X136625152Y-62970580D01*
X136625152Y-62970580D02*
X136577533Y-62875342D01*
X136577533Y-62875342D02*
X136577533Y-62637247D01*
X136577533Y-62637247D02*
X136625152Y-62542009D01*
X136625152Y-62542009D02*
X136672771Y-62494390D01*
X136672771Y-62494390D02*
X136768009Y-62446771D01*
X136768009Y-62446771D02*
X136958485Y-62446771D01*
X136958485Y-62446771D02*
X137053723Y-62494390D01*
X137053723Y-62494390D02*
X137101342Y-62542009D01*
X137101342Y-62542009D02*
X137148961Y-62637247D01*
X139271332Y-58128819D02*
X138652285Y-58128819D01*
X138652285Y-58128819D02*
X138985618Y-58509771D01*
X138985618Y-58509771D02*
X138842761Y-58509771D01*
X138842761Y-58509771D02*
X138747523Y-58557390D01*
X138747523Y-58557390D02*
X138699904Y-58605009D01*
X138699904Y-58605009D02*
X138652285Y-58700247D01*
X138652285Y-58700247D02*
X138652285Y-58938342D01*
X138652285Y-58938342D02*
X138699904Y-59033580D01*
X138699904Y-59033580D02*
X138747523Y-59081200D01*
X138747523Y-59081200D02*
X138842761Y-59128819D01*
X138842761Y-59128819D02*
X139128475Y-59128819D01*
X139128475Y-59128819D02*
X139223713Y-59081200D01*
X139223713Y-59081200D02*
X139271332Y-59033580D01*
X136112285Y-59128819D02*
X136683713Y-59128819D01*
X136397999Y-59128819D02*
X136397999Y-58128819D01*
X136397999Y-58128819D02*
X136493237Y-58271676D01*
X136493237Y-58271676D02*
X136588475Y-58366914D01*
X136588475Y-58366914D02*
X136683713Y-58414533D01*
D11*
X133294219Y-39235142D02*
X132818028Y-38901809D01*
X133294219Y-38663714D02*
X132294219Y-38663714D01*
X132294219Y-38663714D02*
X132294219Y-39044666D01*
X132294219Y-39044666D02*
X132341838Y-39139904D01*
X132341838Y-39139904D02*
X132389457Y-39187523D01*
X132389457Y-39187523D02*
X132484695Y-39235142D01*
X132484695Y-39235142D02*
X132627552Y-39235142D01*
X132627552Y-39235142D02*
X132722790Y-39187523D01*
X132722790Y-39187523D02*
X132770409Y-39139904D01*
X132770409Y-39139904D02*
X132818028Y-39044666D01*
X132818028Y-39044666D02*
X132818028Y-38663714D01*
X133294219Y-40187523D02*
X133294219Y-39616095D01*
X133294219Y-39901809D02*
X132294219Y-39901809D01*
X132294219Y-39901809D02*
X132437076Y-39806571D01*
X132437076Y-39806571D02*
X132532314Y-39711333D01*
X132532314Y-39711333D02*
X132579933Y-39616095D01*
X132294219Y-40806571D02*
X132294219Y-40901809D01*
X132294219Y-40901809D02*
X132341838Y-40997047D01*
X132341838Y-40997047D02*
X132389457Y-41044666D01*
X132389457Y-41044666D02*
X132484695Y-41092285D01*
X132484695Y-41092285D02*
X132675171Y-41139904D01*
X132675171Y-41139904D02*
X132913266Y-41139904D01*
X132913266Y-41139904D02*
X133103742Y-41092285D01*
X133103742Y-41092285D02*
X133198980Y-41044666D01*
X133198980Y-41044666D02*
X133246600Y-40997047D01*
X133246600Y-40997047D02*
X133294219Y-40901809D01*
X133294219Y-40901809D02*
X133294219Y-40806571D01*
X133294219Y-40806571D02*
X133246600Y-40711333D01*
X133246600Y-40711333D02*
X133198980Y-40663714D01*
X133198980Y-40663714D02*
X133103742Y-40616095D01*
X133103742Y-40616095D02*
X132913266Y-40568476D01*
X132913266Y-40568476D02*
X132675171Y-40568476D01*
X132675171Y-40568476D02*
X132484695Y-40616095D01*
X132484695Y-40616095D02*
X132389457Y-40663714D01*
X132389457Y-40663714D02*
X132341838Y-40711333D01*
X132341838Y-40711333D02*
X132294219Y-40806571D01*
X191206219Y-39235142D02*
X190730028Y-38901809D01*
X191206219Y-38663714D02*
X190206219Y-38663714D01*
X190206219Y-38663714D02*
X190206219Y-39044666D01*
X190206219Y-39044666D02*
X190253838Y-39139904D01*
X190253838Y-39139904D02*
X190301457Y-39187523D01*
X190301457Y-39187523D02*
X190396695Y-39235142D01*
X190396695Y-39235142D02*
X190539552Y-39235142D01*
X190539552Y-39235142D02*
X190634790Y-39187523D01*
X190634790Y-39187523D02*
X190682409Y-39139904D01*
X190682409Y-39139904D02*
X190730028Y-39044666D01*
X190730028Y-39044666D02*
X190730028Y-38663714D01*
X191206219Y-40187523D02*
X191206219Y-39616095D01*
X191206219Y-39901809D02*
X190206219Y-39901809D01*
X190206219Y-39901809D02*
X190349076Y-39806571D01*
X190349076Y-39806571D02*
X190444314Y-39711333D01*
X190444314Y-39711333D02*
X190491933Y-39616095D01*
X190206219Y-40520857D02*
X190206219Y-41187523D01*
X190206219Y-41187523D02*
X191206219Y-40758952D01*
D12*
X133400533Y-62065819D02*
X133400533Y-62780104D01*
X133400533Y-62780104D02*
X133448152Y-62922961D01*
X133448152Y-62922961D02*
X133543390Y-63018200D01*
X133543390Y-63018200D02*
X133686247Y-63065819D01*
X133686247Y-63065819D02*
X133781485Y-63065819D01*
X132924342Y-63065819D02*
X132924342Y-62065819D01*
X132924342Y-62065819D02*
X132543390Y-62065819D01*
X132543390Y-62065819D02*
X132448152Y-62113438D01*
X132448152Y-62113438D02*
X132400533Y-62161057D01*
X132400533Y-62161057D02*
X132352914Y-62256295D01*
X132352914Y-62256295D02*
X132352914Y-62399152D01*
X132352914Y-62399152D02*
X132400533Y-62494390D01*
X132400533Y-62494390D02*
X132448152Y-62542009D01*
X132448152Y-62542009D02*
X132543390Y-62589628D01*
X132543390Y-62589628D02*
X132924342Y-62589628D01*
X131448152Y-62065819D02*
X131924342Y-62065819D01*
X131924342Y-62065819D02*
X131971961Y-62542009D01*
X131971961Y-62542009D02*
X131924342Y-62494390D01*
X131924342Y-62494390D02*
X131829104Y-62446771D01*
X131829104Y-62446771D02*
X131591009Y-62446771D01*
X131591009Y-62446771D02*
X131495771Y-62494390D01*
X131495771Y-62494390D02*
X131448152Y-62542009D01*
X131448152Y-62542009D02*
X131400533Y-62637247D01*
X131400533Y-62637247D02*
X131400533Y-62875342D01*
X131400533Y-62875342D02*
X131448152Y-62970580D01*
X131448152Y-62970580D02*
X131495771Y-63018200D01*
X131495771Y-63018200D02*
X131591009Y-63065819D01*
X131591009Y-63065819D02*
X131829104Y-63065819D01*
X131829104Y-63065819D02*
X131924342Y-63018200D01*
X131924342Y-63018200D02*
X131971961Y-62970580D01*
X134191332Y-58128819D02*
X133572285Y-58128819D01*
X133572285Y-58128819D02*
X133905618Y-58509771D01*
X133905618Y-58509771D02*
X133762761Y-58509771D01*
X133762761Y-58509771D02*
X133667523Y-58557390D01*
X133667523Y-58557390D02*
X133619904Y-58605009D01*
X133619904Y-58605009D02*
X133572285Y-58700247D01*
X133572285Y-58700247D02*
X133572285Y-58938342D01*
X133572285Y-58938342D02*
X133619904Y-59033580D01*
X133619904Y-59033580D02*
X133667523Y-59081200D01*
X133667523Y-59081200D02*
X133762761Y-59128819D01*
X133762761Y-59128819D02*
X134048475Y-59128819D01*
X134048475Y-59128819D02*
X134143713Y-59081200D01*
X134143713Y-59081200D02*
X134191332Y-59033580D01*
X131032285Y-59128819D02*
X131603713Y-59128819D01*
X131317999Y-59128819D02*
X131317999Y-58128819D01*
X131317999Y-58128819D02*
X131413237Y-58271676D01*
X131413237Y-58271676D02*
X131508475Y-58366914D01*
X131508475Y-58366914D02*
X131603713Y-58414533D01*
X121358819Y-74445905D02*
X120358819Y-74445905D01*
X120358819Y-74445905D02*
X120358819Y-74684000D01*
X120358819Y-74684000D02*
X120406438Y-74826857D01*
X120406438Y-74826857D02*
X120501676Y-74922095D01*
X120501676Y-74922095D02*
X120596914Y-74969714D01*
X120596914Y-74969714D02*
X120787390Y-75017333D01*
X120787390Y-75017333D02*
X120930247Y-75017333D01*
X120930247Y-75017333D02*
X121120723Y-74969714D01*
X121120723Y-74969714D02*
X121215961Y-74922095D01*
X121215961Y-74922095D02*
X121311200Y-74826857D01*
X121311200Y-74826857D02*
X121358819Y-74684000D01*
X121358819Y-74684000D02*
X121358819Y-74445905D01*
X120358819Y-75922095D02*
X120358819Y-75445905D01*
X120358819Y-75445905D02*
X120835009Y-75398286D01*
X120835009Y-75398286D02*
X120787390Y-75445905D01*
X120787390Y-75445905D02*
X120739771Y-75541143D01*
X120739771Y-75541143D02*
X120739771Y-75779238D01*
X120739771Y-75779238D02*
X120787390Y-75874476D01*
X120787390Y-75874476D02*
X120835009Y-75922095D01*
X120835009Y-75922095D02*
X120930247Y-75969714D01*
X120930247Y-75969714D02*
X121168342Y-75969714D01*
X121168342Y-75969714D02*
X121263580Y-75922095D01*
X121263580Y-75922095D02*
X121311200Y-75874476D01*
X121311200Y-75874476D02*
X121358819Y-75779238D01*
X121358819Y-75779238D02*
X121358819Y-75541143D01*
X121358819Y-75541143D02*
X121311200Y-75445905D01*
X121311200Y-75445905D02*
X121263580Y-75398286D01*
X63192819Y-74514905D02*
X62192819Y-74514905D01*
X62192819Y-74514905D02*
X62192819Y-74753000D01*
X62192819Y-74753000D02*
X62240438Y-74895857D01*
X62240438Y-74895857D02*
X62335676Y-74991095D01*
X62335676Y-74991095D02*
X62430914Y-75038714D01*
X62430914Y-75038714D02*
X62621390Y-75086333D01*
X62621390Y-75086333D02*
X62764247Y-75086333D01*
X62764247Y-75086333D02*
X62954723Y-75038714D01*
X62954723Y-75038714D02*
X63049961Y-74991095D01*
X63049961Y-74991095D02*
X63145200Y-74895857D01*
X63145200Y-74895857D02*
X63192819Y-74753000D01*
X63192819Y-74753000D02*
X63192819Y-74514905D01*
X62288057Y-75467286D02*
X62240438Y-75514905D01*
X62240438Y-75514905D02*
X62192819Y-75610143D01*
X62192819Y-75610143D02*
X62192819Y-75848238D01*
X62192819Y-75848238D02*
X62240438Y-75943476D01*
X62240438Y-75943476D02*
X62288057Y-75991095D01*
X62288057Y-75991095D02*
X62383295Y-76038714D01*
X62383295Y-76038714D02*
X62478533Y-76038714D01*
X62478533Y-76038714D02*
X62621390Y-75991095D01*
X62621390Y-75991095D02*
X63192819Y-75419667D01*
X63192819Y-75419667D02*
X63192819Y-76038714D01*
D11*
X119578219Y-68318142D02*
X119102028Y-67984809D01*
X119578219Y-67746714D02*
X118578219Y-67746714D01*
X118578219Y-67746714D02*
X118578219Y-68127666D01*
X118578219Y-68127666D02*
X118625838Y-68222904D01*
X118625838Y-68222904D02*
X118673457Y-68270523D01*
X118673457Y-68270523D02*
X118768695Y-68318142D01*
X118768695Y-68318142D02*
X118911552Y-68318142D01*
X118911552Y-68318142D02*
X119006790Y-68270523D01*
X119006790Y-68270523D02*
X119054409Y-68222904D01*
X119054409Y-68222904D02*
X119102028Y-68127666D01*
X119102028Y-68127666D02*
X119102028Y-67746714D01*
X118673457Y-68699095D02*
X118625838Y-68746714D01*
X118625838Y-68746714D02*
X118578219Y-68841952D01*
X118578219Y-68841952D02*
X118578219Y-69080047D01*
X118578219Y-69080047D02*
X118625838Y-69175285D01*
X118625838Y-69175285D02*
X118673457Y-69222904D01*
X118673457Y-69222904D02*
X118768695Y-69270523D01*
X118768695Y-69270523D02*
X118863933Y-69270523D01*
X118863933Y-69270523D02*
X119006790Y-69222904D01*
X119006790Y-69222904D02*
X119578219Y-68651476D01*
X119578219Y-68651476D02*
X119578219Y-69270523D01*
X119578219Y-70222904D02*
X119578219Y-69651476D01*
X119578219Y-69937190D02*
X118578219Y-69937190D01*
X118578219Y-69937190D02*
X118721076Y-69841952D01*
X118721076Y-69841952D02*
X118816314Y-69746714D01*
X118816314Y-69746714D02*
X118863933Y-69651476D01*
X149804219Y-46601142D02*
X149328028Y-46267809D01*
X149804219Y-46029714D02*
X148804219Y-46029714D01*
X148804219Y-46029714D02*
X148804219Y-46410666D01*
X148804219Y-46410666D02*
X148851838Y-46505904D01*
X148851838Y-46505904D02*
X148899457Y-46553523D01*
X148899457Y-46553523D02*
X148994695Y-46601142D01*
X148994695Y-46601142D02*
X149137552Y-46601142D01*
X149137552Y-46601142D02*
X149232790Y-46553523D01*
X149232790Y-46553523D02*
X149280409Y-46505904D01*
X149280409Y-46505904D02*
X149328028Y-46410666D01*
X149328028Y-46410666D02*
X149328028Y-46029714D01*
X149804219Y-47553523D02*
X149804219Y-46982095D01*
X149804219Y-47267809D02*
X148804219Y-47267809D01*
X148804219Y-47267809D02*
X148947076Y-47172571D01*
X148947076Y-47172571D02*
X149042314Y-47077333D01*
X149042314Y-47077333D02*
X149089933Y-46982095D01*
X148804219Y-48410666D02*
X148804219Y-48220190D01*
X148804219Y-48220190D02*
X148851838Y-48124952D01*
X148851838Y-48124952D02*
X148899457Y-48077333D01*
X148899457Y-48077333D02*
X149042314Y-47982095D01*
X149042314Y-47982095D02*
X149232790Y-47934476D01*
X149232790Y-47934476D02*
X149613742Y-47934476D01*
X149613742Y-47934476D02*
X149708980Y-47982095D01*
X149708980Y-47982095D02*
X149756600Y-48029714D01*
X149756600Y-48029714D02*
X149804219Y-48124952D01*
X149804219Y-48124952D02*
X149804219Y-48315428D01*
X149804219Y-48315428D02*
X149756600Y-48410666D01*
X149756600Y-48410666D02*
X149708980Y-48458285D01*
X149708980Y-48458285D02*
X149613742Y-48505904D01*
X149613742Y-48505904D02*
X149375647Y-48505904D01*
X149375647Y-48505904D02*
X149280409Y-48458285D01*
X149280409Y-48458285D02*
X149232790Y-48410666D01*
X149232790Y-48410666D02*
X149185171Y-48315428D01*
X149185171Y-48315428D02*
X149185171Y-48124952D01*
X149185171Y-48124952D02*
X149232790Y-48029714D01*
X149232790Y-48029714D02*
X149280409Y-47982095D01*
X149280409Y-47982095D02*
X149375647Y-47934476D01*
X81636980Y-35171142D02*
X81684600Y-35123523D01*
X81684600Y-35123523D02*
X81732219Y-34980666D01*
X81732219Y-34980666D02*
X81732219Y-34885428D01*
X81732219Y-34885428D02*
X81684600Y-34742571D01*
X81684600Y-34742571D02*
X81589361Y-34647333D01*
X81589361Y-34647333D02*
X81494123Y-34599714D01*
X81494123Y-34599714D02*
X81303647Y-34552095D01*
X81303647Y-34552095D02*
X81160790Y-34552095D01*
X81160790Y-34552095D02*
X80970314Y-34599714D01*
X80970314Y-34599714D02*
X80875076Y-34647333D01*
X80875076Y-34647333D02*
X80779838Y-34742571D01*
X80779838Y-34742571D02*
X80732219Y-34885428D01*
X80732219Y-34885428D02*
X80732219Y-34980666D01*
X80732219Y-34980666D02*
X80779838Y-35123523D01*
X80779838Y-35123523D02*
X80827457Y-35171142D01*
X81732219Y-36123523D02*
X81732219Y-35552095D01*
X81732219Y-35837809D02*
X80732219Y-35837809D01*
X80732219Y-35837809D02*
X80875076Y-35742571D01*
X80875076Y-35742571D02*
X80970314Y-35647333D01*
X80970314Y-35647333D02*
X81017933Y-35552095D01*
X81160790Y-36694952D02*
X81113171Y-36599714D01*
X81113171Y-36599714D02*
X81065552Y-36552095D01*
X81065552Y-36552095D02*
X80970314Y-36504476D01*
X80970314Y-36504476D02*
X80922695Y-36504476D01*
X80922695Y-36504476D02*
X80827457Y-36552095D01*
X80827457Y-36552095D02*
X80779838Y-36599714D01*
X80779838Y-36599714D02*
X80732219Y-36694952D01*
X80732219Y-36694952D02*
X80732219Y-36885428D01*
X80732219Y-36885428D02*
X80779838Y-36980666D01*
X80779838Y-36980666D02*
X80827457Y-37028285D01*
X80827457Y-37028285D02*
X80922695Y-37075904D01*
X80922695Y-37075904D02*
X80970314Y-37075904D01*
X80970314Y-37075904D02*
X81065552Y-37028285D01*
X81065552Y-37028285D02*
X81113171Y-36980666D01*
X81113171Y-36980666D02*
X81160790Y-36885428D01*
X81160790Y-36885428D02*
X81160790Y-36694952D01*
X81160790Y-36694952D02*
X81208409Y-36599714D01*
X81208409Y-36599714D02*
X81256028Y-36552095D01*
X81256028Y-36552095D02*
X81351266Y-36504476D01*
X81351266Y-36504476D02*
X81541742Y-36504476D01*
X81541742Y-36504476D02*
X81636980Y-36552095D01*
X81636980Y-36552095D02*
X81684600Y-36599714D01*
X81684600Y-36599714D02*
X81732219Y-36694952D01*
X81732219Y-36694952D02*
X81732219Y-36885428D01*
X81732219Y-36885428D02*
X81684600Y-36980666D01*
X81684600Y-36980666D02*
X81636980Y-37028285D01*
X81636980Y-37028285D02*
X81541742Y-37075904D01*
X81541742Y-37075904D02*
X81351266Y-37075904D01*
X81351266Y-37075904D02*
X81256028Y-37028285D01*
X81256028Y-37028285D02*
X81208409Y-36980666D01*
X81208409Y-36980666D02*
X81160790Y-36885428D01*
D12*
X125926523Y-59906819D02*
X125926523Y-60621104D01*
X125926523Y-60621104D02*
X125974142Y-60763961D01*
X125974142Y-60763961D02*
X126069380Y-60859200D01*
X126069380Y-60859200D02*
X126212237Y-60906819D01*
X126212237Y-60906819D02*
X126307475Y-60906819D01*
X125450332Y-60906819D02*
X125450332Y-59906819D01*
X125450332Y-59906819D02*
X125069380Y-59906819D01*
X125069380Y-59906819D02*
X124974142Y-59954438D01*
X124974142Y-59954438D02*
X124926523Y-60002057D01*
X124926523Y-60002057D02*
X124878904Y-60097295D01*
X124878904Y-60097295D02*
X124878904Y-60240152D01*
X124878904Y-60240152D02*
X124926523Y-60335390D01*
X124926523Y-60335390D02*
X124974142Y-60383009D01*
X124974142Y-60383009D02*
X125069380Y-60430628D01*
X125069380Y-60430628D02*
X125450332Y-60430628D01*
X123926523Y-60906819D02*
X124497951Y-60906819D01*
X124212237Y-60906819D02*
X124212237Y-59906819D01*
X124212237Y-59906819D02*
X124307475Y-60049676D01*
X124307475Y-60049676D02*
X124402713Y-60144914D01*
X124402713Y-60144914D02*
X124497951Y-60192533D01*
X123307475Y-59906819D02*
X123212237Y-59906819D01*
X123212237Y-59906819D02*
X123116999Y-59954438D01*
X123116999Y-59954438D02*
X123069380Y-60002057D01*
X123069380Y-60002057D02*
X123021761Y-60097295D01*
X123021761Y-60097295D02*
X122974142Y-60287771D01*
X122974142Y-60287771D02*
X122974142Y-60525866D01*
X122974142Y-60525866D02*
X123021761Y-60716342D01*
X123021761Y-60716342D02*
X123069380Y-60811580D01*
X123069380Y-60811580D02*
X123116999Y-60859200D01*
X123116999Y-60859200D02*
X123212237Y-60906819D01*
X123212237Y-60906819D02*
X123307475Y-60906819D01*
X123307475Y-60906819D02*
X123402713Y-60859200D01*
X123402713Y-60859200D02*
X123450332Y-60811580D01*
X123450332Y-60811580D02*
X123497951Y-60716342D01*
X123497951Y-60716342D02*
X123545570Y-60525866D01*
X123545570Y-60525866D02*
X123545570Y-60287771D01*
X123545570Y-60287771D02*
X123497951Y-60097295D01*
X123497951Y-60097295D02*
X123450332Y-60002057D01*
X123450332Y-60002057D02*
X123402713Y-59954438D01*
X123402713Y-59954438D02*
X123307475Y-59906819D01*
X126317332Y-56096819D02*
X125698285Y-56096819D01*
X125698285Y-56096819D02*
X126031618Y-56477771D01*
X126031618Y-56477771D02*
X125888761Y-56477771D01*
X125888761Y-56477771D02*
X125793523Y-56525390D01*
X125793523Y-56525390D02*
X125745904Y-56573009D01*
X125745904Y-56573009D02*
X125698285Y-56668247D01*
X125698285Y-56668247D02*
X125698285Y-56906342D01*
X125698285Y-56906342D02*
X125745904Y-57001580D01*
X125745904Y-57001580D02*
X125793523Y-57049200D01*
X125793523Y-57049200D02*
X125888761Y-57096819D01*
X125888761Y-57096819D02*
X126174475Y-57096819D01*
X126174475Y-57096819D02*
X126269713Y-57049200D01*
X126269713Y-57049200D02*
X126317332Y-57001580D01*
X123158285Y-57096819D02*
X123729713Y-57096819D01*
X123443999Y-57096819D02*
X123443999Y-56096819D01*
X123443999Y-56096819D02*
X123539237Y-56239676D01*
X123539237Y-56239676D02*
X123634475Y-56334914D01*
X123634475Y-56334914D02*
X123729713Y-56382533D01*
D11*
X61316980Y-35171142D02*
X61364600Y-35123523D01*
X61364600Y-35123523D02*
X61412219Y-34980666D01*
X61412219Y-34980666D02*
X61412219Y-34885428D01*
X61412219Y-34885428D02*
X61364600Y-34742571D01*
X61364600Y-34742571D02*
X61269361Y-34647333D01*
X61269361Y-34647333D02*
X61174123Y-34599714D01*
X61174123Y-34599714D02*
X60983647Y-34552095D01*
X60983647Y-34552095D02*
X60840790Y-34552095D01*
X60840790Y-34552095D02*
X60650314Y-34599714D01*
X60650314Y-34599714D02*
X60555076Y-34647333D01*
X60555076Y-34647333D02*
X60459838Y-34742571D01*
X60459838Y-34742571D02*
X60412219Y-34885428D01*
X60412219Y-34885428D02*
X60412219Y-34980666D01*
X60412219Y-34980666D02*
X60459838Y-35123523D01*
X60459838Y-35123523D02*
X60507457Y-35171142D01*
X60507457Y-35552095D02*
X60459838Y-35599714D01*
X60459838Y-35599714D02*
X60412219Y-35694952D01*
X60412219Y-35694952D02*
X60412219Y-35933047D01*
X60412219Y-35933047D02*
X60459838Y-36028285D01*
X60459838Y-36028285D02*
X60507457Y-36075904D01*
X60507457Y-36075904D02*
X60602695Y-36123523D01*
X60602695Y-36123523D02*
X60697933Y-36123523D01*
X60697933Y-36123523D02*
X60840790Y-36075904D01*
X60840790Y-36075904D02*
X61412219Y-35504476D01*
X61412219Y-35504476D02*
X61412219Y-36123523D01*
X61412219Y-37075904D02*
X61412219Y-36504476D01*
X61412219Y-36790190D02*
X60412219Y-36790190D01*
X60412219Y-36790190D02*
X60555076Y-36694952D01*
X60555076Y-36694952D02*
X60650314Y-36599714D01*
X60650314Y-36599714D02*
X60697933Y-36504476D01*
X49632980Y-38727142D02*
X49680600Y-38679523D01*
X49680600Y-38679523D02*
X49728219Y-38536666D01*
X49728219Y-38536666D02*
X49728219Y-38441428D01*
X49728219Y-38441428D02*
X49680600Y-38298571D01*
X49680600Y-38298571D02*
X49585361Y-38203333D01*
X49585361Y-38203333D02*
X49490123Y-38155714D01*
X49490123Y-38155714D02*
X49299647Y-38108095D01*
X49299647Y-38108095D02*
X49156790Y-38108095D01*
X49156790Y-38108095D02*
X48966314Y-38155714D01*
X48966314Y-38155714D02*
X48871076Y-38203333D01*
X48871076Y-38203333D02*
X48775838Y-38298571D01*
X48775838Y-38298571D02*
X48728219Y-38441428D01*
X48728219Y-38441428D02*
X48728219Y-38536666D01*
X48728219Y-38536666D02*
X48775838Y-38679523D01*
X48775838Y-38679523D02*
X48823457Y-38727142D01*
X48823457Y-39108095D02*
X48775838Y-39155714D01*
X48775838Y-39155714D02*
X48728219Y-39250952D01*
X48728219Y-39250952D02*
X48728219Y-39489047D01*
X48728219Y-39489047D02*
X48775838Y-39584285D01*
X48775838Y-39584285D02*
X48823457Y-39631904D01*
X48823457Y-39631904D02*
X48918695Y-39679523D01*
X48918695Y-39679523D02*
X49013933Y-39679523D01*
X49013933Y-39679523D02*
X49156790Y-39631904D01*
X49156790Y-39631904D02*
X49728219Y-39060476D01*
X49728219Y-39060476D02*
X49728219Y-39679523D01*
X49156790Y-40250952D02*
X49109171Y-40155714D01*
X49109171Y-40155714D02*
X49061552Y-40108095D01*
X49061552Y-40108095D02*
X48966314Y-40060476D01*
X48966314Y-40060476D02*
X48918695Y-40060476D01*
X48918695Y-40060476D02*
X48823457Y-40108095D01*
X48823457Y-40108095D02*
X48775838Y-40155714D01*
X48775838Y-40155714D02*
X48728219Y-40250952D01*
X48728219Y-40250952D02*
X48728219Y-40441428D01*
X48728219Y-40441428D02*
X48775838Y-40536666D01*
X48775838Y-40536666D02*
X48823457Y-40584285D01*
X48823457Y-40584285D02*
X48918695Y-40631904D01*
X48918695Y-40631904D02*
X48966314Y-40631904D01*
X48966314Y-40631904D02*
X49061552Y-40584285D01*
X49061552Y-40584285D02*
X49109171Y-40536666D01*
X49109171Y-40536666D02*
X49156790Y-40441428D01*
X49156790Y-40441428D02*
X49156790Y-40250952D01*
X49156790Y-40250952D02*
X49204409Y-40155714D01*
X49204409Y-40155714D02*
X49252028Y-40108095D01*
X49252028Y-40108095D02*
X49347266Y-40060476D01*
X49347266Y-40060476D02*
X49537742Y-40060476D01*
X49537742Y-40060476D02*
X49632980Y-40108095D01*
X49632980Y-40108095D02*
X49680600Y-40155714D01*
X49680600Y-40155714D02*
X49728219Y-40250952D01*
X49728219Y-40250952D02*
X49728219Y-40441428D01*
X49728219Y-40441428D02*
X49680600Y-40536666D01*
X49680600Y-40536666D02*
X49632980Y-40584285D01*
X49632980Y-40584285D02*
X49537742Y-40631904D01*
X49537742Y-40631904D02*
X49347266Y-40631904D01*
X49347266Y-40631904D02*
X49252028Y-40584285D01*
X49252028Y-40584285D02*
X49204409Y-40536666D01*
X49204409Y-40536666D02*
X49156790Y-40441428D01*
D12*
X104219333Y-50762819D02*
X104219333Y-51477104D01*
X104219333Y-51477104D02*
X104266952Y-51619961D01*
X104266952Y-51619961D02*
X104362190Y-51715200D01*
X104362190Y-51715200D02*
X104505047Y-51762819D01*
X104505047Y-51762819D02*
X104600285Y-51762819D01*
X103314571Y-51096152D02*
X103314571Y-51762819D01*
X103552666Y-50715200D02*
X103790761Y-51429485D01*
X103790761Y-51429485D02*
X103171714Y-51429485D01*
D11*
X130500219Y-47077333D02*
X130024028Y-46744000D01*
X130500219Y-46505905D02*
X129500219Y-46505905D01*
X129500219Y-46505905D02*
X129500219Y-46886857D01*
X129500219Y-46886857D02*
X129547838Y-46982095D01*
X129547838Y-46982095D02*
X129595457Y-47029714D01*
X129595457Y-47029714D02*
X129690695Y-47077333D01*
X129690695Y-47077333D02*
X129833552Y-47077333D01*
X129833552Y-47077333D02*
X129928790Y-47029714D01*
X129928790Y-47029714D02*
X129976409Y-46982095D01*
X129976409Y-46982095D02*
X130024028Y-46886857D01*
X130024028Y-46886857D02*
X130024028Y-46505905D01*
X130500219Y-47553524D02*
X130500219Y-47744000D01*
X130500219Y-47744000D02*
X130452600Y-47839238D01*
X130452600Y-47839238D02*
X130404980Y-47886857D01*
X130404980Y-47886857D02*
X130262123Y-47982095D01*
X130262123Y-47982095D02*
X130071647Y-48029714D01*
X130071647Y-48029714D02*
X129690695Y-48029714D01*
X129690695Y-48029714D02*
X129595457Y-47982095D01*
X129595457Y-47982095D02*
X129547838Y-47934476D01*
X129547838Y-47934476D02*
X129500219Y-47839238D01*
X129500219Y-47839238D02*
X129500219Y-47648762D01*
X129500219Y-47648762D02*
X129547838Y-47553524D01*
X129547838Y-47553524D02*
X129595457Y-47505905D01*
X129595457Y-47505905D02*
X129690695Y-47458286D01*
X129690695Y-47458286D02*
X129928790Y-47458286D01*
X129928790Y-47458286D02*
X130024028Y-47505905D01*
X130024028Y-47505905D02*
X130071647Y-47553524D01*
X130071647Y-47553524D02*
X130119266Y-47648762D01*
X130119266Y-47648762D02*
X130119266Y-47839238D01*
X130119266Y-47839238D02*
X130071647Y-47934476D01*
X130071647Y-47934476D02*
X130024028Y-47982095D01*
X130024028Y-47982095D02*
X129928790Y-48029714D01*
D12*
X198574819Y-93146714D02*
X197574819Y-93146714D01*
X197574819Y-93146714D02*
X197574819Y-93384809D01*
X197574819Y-93384809D02*
X197622438Y-93527666D01*
X197622438Y-93527666D02*
X197717676Y-93622904D01*
X197717676Y-93622904D02*
X197812914Y-93670523D01*
X197812914Y-93670523D02*
X198003390Y-93718142D01*
X198003390Y-93718142D02*
X198146247Y-93718142D01*
X198146247Y-93718142D02*
X198336723Y-93670523D01*
X198336723Y-93670523D02*
X198431961Y-93622904D01*
X198431961Y-93622904D02*
X198527200Y-93527666D01*
X198527200Y-93527666D02*
X198574819Y-93384809D01*
X198574819Y-93384809D02*
X198574819Y-93146714D01*
X198574819Y-94670523D02*
X198574819Y-94099095D01*
X198574819Y-94384809D02*
X197574819Y-94384809D01*
X197574819Y-94384809D02*
X197717676Y-94289571D01*
X197717676Y-94289571D02*
X197812914Y-94194333D01*
X197812914Y-94194333D02*
X197860533Y-94099095D01*
X197574819Y-95003857D02*
X197574819Y-95670523D01*
X197574819Y-95670523D02*
X198574819Y-95241952D01*
D13*
%TO.C,D14*%
X179507000Y-73298600D02*
X179507000Y-76158600D01*
X181427000Y-73298600D02*
X179507000Y-73298600D01*
X181427000Y-76158600D02*
X181427000Y-73298600D01*
%TO.C,R15*%
X149633000Y-39646936D02*
X149633000Y-40101064D01*
X151103000Y-39646936D02*
X151103000Y-40101064D01*
%TO.C,D13*%
X160334500Y-92672400D02*
X160334500Y-95532400D01*
X162254500Y-92672400D02*
X160334500Y-92672400D01*
X162254500Y-95532400D02*
X162254500Y-92672400D01*
%TO.C,C27*%
X65305000Y-39087248D02*
X65305000Y-39609752D01*
X66775000Y-39087248D02*
X66775000Y-39609752D01*
%TO.C,D8*%
X102418000Y-92628000D02*
X102418000Y-95488000D01*
X104338000Y-92628000D02*
X102418000Y-92628000D01*
X104338000Y-95488000D02*
X104338000Y-92628000D01*
%TO.C,JP14*%
X56658000Y-71758000D02*
X56658000Y-68958000D01*
X57358000Y-68308000D02*
X57958000Y-68308000D01*
X57958000Y-72408000D02*
X57358000Y-72408000D01*
X58658000Y-68958000D02*
X58658000Y-71758000D01*
X56658000Y-69008000D02*
G75*
G02*
X57358000Y-68308000I700000J0D01*
G01*
X57358000Y-72408000D02*
G75*
G02*
X56658000Y-71708000I-1J699999D01*
G01*
X57958000Y-68308000D02*
G75*
G02*
X58658000Y-69008000I0J-700000D01*
G01*
X58658000Y-71708000D02*
G75*
G02*
X57958000Y-72408000I-699999J-1D01*
G01*
%TO.C,JP8*%
X112318000Y-58897800D02*
X112318000Y-58297800D01*
X112968000Y-57597800D02*
X115768000Y-57597800D01*
X115768000Y-59597800D02*
X112968000Y-59597800D01*
X116418000Y-58297800D02*
X116418000Y-58897800D01*
X112318000Y-58297800D02*
G75*
G02*
X113018000Y-57597800I699999J1D01*
G01*
X113018000Y-59597800D02*
G75*
G02*
X112318000Y-58897800I-1J699999D01*
G01*
X115718000Y-57597800D02*
G75*
G02*
X116418000Y-58297800I0J-700000D01*
G01*
X116418000Y-58897800D02*
G75*
G02*
X115718000Y-59597800I-700000J0D01*
G01*
%TO.C,D11*%
X140899000Y-92628000D02*
X140899000Y-95488000D01*
X142819000Y-92628000D02*
X140899000Y-92628000D01*
X142819000Y-95488000D02*
X142819000Y-92628000D01*
%TO.C,R13*%
X166143000Y-47028936D02*
X166143000Y-47483064D01*
X167613000Y-47028936D02*
X167613000Y-47483064D01*
%TO.C,C24*%
X70385000Y-39108748D02*
X70385000Y-39631252D01*
X71855000Y-39108748D02*
X71855000Y-39631252D01*
%TO.C,JP7*%
X140901200Y-60929800D02*
X140901200Y-60329800D01*
X141551200Y-59629800D02*
X144351200Y-59629800D01*
X144351200Y-61629800D02*
X141551200Y-61629800D01*
X145001200Y-60329800D02*
X145001200Y-60929800D01*
X140901200Y-60329800D02*
G75*
G02*
X141601200Y-59629800I699999J1D01*
G01*
X141601200Y-61629800D02*
G75*
G02*
X140901200Y-60929800I-1J699999D01*
G01*
X144301200Y-59629800D02*
G75*
G02*
X145001200Y-60329800I0J-700000D01*
G01*
X145001200Y-60929800D02*
G75*
G02*
X144301200Y-61629800I-700000J0D01*
G01*
%TO.C,J6*%
X97730000Y-63306000D02*
X97730000Y-61976000D01*
X99060000Y-63306000D02*
X97730000Y-63306000D01*
X100330000Y-63306000D02*
X100330000Y-60646000D01*
X113090000Y-60646000D02*
X100330000Y-60646000D01*
X113090000Y-63306000D02*
X100330000Y-63306000D01*
X113090000Y-63306000D02*
X113090000Y-60646000D01*
%TO.C,C25*%
X50065000Y-39087248D02*
X50065000Y-39609752D01*
X51535000Y-39087248D02*
X51535000Y-39609752D01*
%TO.C,D9*%
X121696600Y-92628000D02*
X121696600Y-95488000D01*
X123616600Y-92628000D02*
X121696600Y-92628000D01*
X123616600Y-95488000D02*
X123616600Y-92628000D01*
%TO.C,R8*%
X139990336Y-67540200D02*
X140444464Y-67540200D01*
X139990336Y-69010200D02*
X140444464Y-69010200D01*
%TO.C,R14*%
X180621000Y-47483064D02*
X180621000Y-47028936D01*
X182091000Y-47483064D02*
X182091000Y-47028936D01*
%TO.C,JP13*%
X159595600Y-58974000D02*
X159595600Y-58374000D01*
X160245600Y-57674000D02*
X163045600Y-57674000D01*
X163045600Y-59674000D02*
X160245600Y-59674000D01*
X163695600Y-58374000D02*
X163695600Y-58974000D01*
X159595600Y-58374000D02*
G75*
G02*
X160295600Y-57674000I699999J1D01*
G01*
X160295600Y-59674000D02*
G75*
G02*
X159595600Y-58974000I-1J699999D01*
G01*
X162995600Y-57674000D02*
G75*
G02*
X163695600Y-58374000I0J-700000D01*
G01*
X163695600Y-58974000D02*
G75*
G02*
X162995600Y-59674000I-700000J0D01*
G01*
%TO.C,U1*%
X44350000Y-45593000D02*
X47017000Y-45593000D01*
X44350000Y-63586000D02*
X44350000Y-42586000D01*
X44650000Y-42586000D02*
X44350000Y-42586000D01*
X44650000Y-63586000D02*
X44350000Y-63586000D01*
X47017000Y-45593000D02*
X47017000Y-42586000D01*
X47150000Y-42586000D02*
X46750000Y-42586000D01*
X47150000Y-63586000D02*
X46750000Y-63586000D01*
X49750000Y-42586000D02*
X49350000Y-42586000D01*
X49750000Y-63586000D02*
X49350000Y-63586000D01*
X52250000Y-42586000D02*
X51850000Y-42586000D01*
X52250000Y-63586000D02*
X51850000Y-63586000D01*
X54850000Y-42586000D02*
X54450000Y-42586000D01*
X54850000Y-63586000D02*
X54450000Y-63586000D01*
X57350000Y-42586000D02*
X56950000Y-42586000D01*
X57350000Y-63586000D02*
X56950000Y-63586000D01*
X59850000Y-42586000D02*
X59450000Y-42586000D01*
X59850000Y-63586000D02*
X59450000Y-63586000D01*
X62450000Y-42586000D02*
X62050000Y-42586000D01*
X62450000Y-63586000D02*
X62050000Y-63586000D01*
X64950000Y-42586000D02*
X64550000Y-42586000D01*
X64950000Y-63586000D02*
X64550000Y-63586000D01*
X67550000Y-42586000D02*
X67150000Y-42586000D01*
X67550000Y-63586000D02*
X67150000Y-63586000D01*
X70050000Y-42586000D02*
X69650000Y-42586000D01*
X70050000Y-63586000D02*
X69650000Y-63586000D01*
X72550000Y-42586000D02*
X72150000Y-42586000D01*
X72550000Y-63586000D02*
X72150000Y-63586000D01*
X75150000Y-42586000D02*
X74750000Y-42586000D01*
X75150000Y-63586000D02*
X74750000Y-63586000D01*
X77650000Y-42586000D02*
X77250000Y-42586000D01*
X77650000Y-63586000D02*
X77250000Y-63586000D01*
X80250000Y-42586000D02*
X79850000Y-42586000D01*
X80250000Y-63586000D02*
X79850000Y-63586000D01*
X82750000Y-42586000D02*
X82350000Y-42586000D01*
X82750000Y-63586000D02*
X82350000Y-63586000D01*
X85350000Y-42586000D02*
X84950000Y-42586000D01*
X85350000Y-63586000D02*
X84950000Y-63586000D01*
X87850000Y-42586000D02*
X87450000Y-42586000D01*
X87850000Y-63586000D02*
X87450000Y-63586000D01*
X90350000Y-42586000D02*
X89950000Y-42586000D01*
X90350000Y-63586000D02*
X89950000Y-63586000D01*
X92950000Y-42586000D02*
X92550000Y-42586000D01*
X92950000Y-63586000D02*
X92550000Y-63586000D01*
X95350000Y-42586000D02*
X95350000Y-49386000D01*
X95350000Y-56786000D02*
X95350000Y-63586000D01*
%TO.C,C23*%
X67845000Y-39087248D02*
X67845000Y-39609752D01*
X69315000Y-39087248D02*
X69315000Y-39609752D01*
%TO.C,D4*%
X102400900Y-73364000D02*
X102400900Y-76224000D01*
X104320900Y-73364000D02*
X102400900Y-73364000D01*
X104320900Y-76224000D02*
X104320900Y-73364000D01*
%TO.C,D10*%
X141280000Y-73298600D02*
X141280000Y-76158600D01*
X143200000Y-73298600D02*
X141280000Y-73298600D01*
X143200000Y-76158600D02*
X143200000Y-73298600D01*
%TO.C,JP12*%
X154358600Y-58974000D02*
X154358600Y-58374000D01*
X155008600Y-57674000D02*
X157808600Y-57674000D01*
X157808600Y-59674000D02*
X155008600Y-59674000D01*
X158458600Y-58374000D02*
X158458600Y-58974000D01*
X154358600Y-58374000D02*
G75*
G02*
X155058600Y-57674000I699999J1D01*
G01*
X155058600Y-59674000D02*
G75*
G02*
X154358600Y-58974000I-1J699999D01*
G01*
X157758600Y-57674000D02*
G75*
G02*
X158458600Y-58374000I0J-700000D01*
G01*
X158458600Y-58974000D02*
G75*
G02*
X157758600Y-59674000I-700000J0D01*
G01*
%TO.C,C20*%
X57685000Y-39087248D02*
X57685000Y-39609752D01*
X59155000Y-39087248D02*
X59155000Y-39609752D01*
%TO.C,C26*%
X52605000Y-39087248D02*
X52605000Y-39609752D01*
X54075000Y-39087248D02*
X54075000Y-39609752D01*
%TO.C,R20*%
X199925000Y-47467064D02*
X199925000Y-47012936D01*
X201395000Y-47467064D02*
X201395000Y-47012936D01*
%TO.C,D15*%
X179527500Y-92520000D02*
X179527500Y-95380000D01*
X181447500Y-92520000D02*
X179527500Y-92520000D01*
X181447500Y-95380000D02*
X181447500Y-92520000D01*
%TO.C,R22*%
X122328000Y-68717936D02*
X122328000Y-69172064D01*
X123798000Y-68717936D02*
X123798000Y-69172064D01*
%TO.C,D12*%
X160330000Y-73324000D02*
X160330000Y-76184000D01*
X162250000Y-73324000D02*
X160330000Y-73324000D01*
X162250000Y-76184000D02*
X162250000Y-73324000D01*
%TO.C,R11*%
X168937000Y-39646936D02*
X168937000Y-40101064D01*
X170407000Y-39646936D02*
X170407000Y-40101064D01*
%TO.C,D7*%
X83125000Y-92562600D02*
X83125000Y-95422600D01*
X85045000Y-92562600D02*
X83125000Y-92562600D01*
X85045000Y-95422600D02*
X85045000Y-92562600D01*
%TO.C,D3*%
X82991900Y-73324000D02*
X82991900Y-76184000D01*
X84911900Y-73324000D02*
X82991900Y-73324000D01*
X84911900Y-76184000D02*
X84911900Y-73324000D01*
%TO.C,R19*%
X161317000Y-47368064D02*
X161317000Y-46913936D01*
X162787000Y-47368064D02*
X162787000Y-46913936D01*
%TO.C,C17*%
X72925000Y-39108748D02*
X72925000Y-39631252D01*
X74395000Y-39108748D02*
X74395000Y-39631252D01*
%TO.C,R18*%
X185447000Y-47028936D02*
X185447000Y-47483064D01*
X186917000Y-47028936D02*
X186917000Y-47483064D01*
%TO.C,C19*%
X78005000Y-39087248D02*
X78005000Y-39609752D01*
X79475000Y-39087248D02*
X79475000Y-39609752D01*
%TO.C,C22*%
X55145000Y-39087248D02*
X55145000Y-39609752D01*
X56615000Y-39087248D02*
X56615000Y-39609752D01*
%TO.C,D16*%
X198938000Y-73298600D02*
X198938000Y-76158600D01*
X200858000Y-73298600D02*
X198938000Y-73298600D01*
X200858000Y-76158600D02*
X200858000Y-73298600D01*
%TO.C,R12*%
X141998000Y-47368064D02*
X141998000Y-46913936D01*
X143468000Y-47368064D02*
X143468000Y-46913936D01*
%TO.C,JP15*%
X187434000Y-51709600D02*
X187434000Y-51109600D01*
X188134000Y-50409600D02*
X189534000Y-50409600D01*
X189534000Y-52409600D02*
X188134000Y-52409600D01*
X190234000Y-51109600D02*
X190234000Y-51709600D01*
X187434000Y-51109600D02*
G75*
G02*
X188134000Y-50409600I699999J1D01*
G01*
X188134000Y-52409600D02*
G75*
G02*
X187434000Y-51709600I-1J699999D01*
G01*
X189534000Y-50409600D02*
G75*
G02*
X190234000Y-51109600I0J-700000D01*
G01*
X190234000Y-51709600D02*
G75*
G02*
X189534000Y-52409600I-700000J0D01*
G01*
%TO.C,JP11*%
X149151600Y-58974000D02*
X149151600Y-58374000D01*
X149801600Y-57674000D02*
X152601600Y-57674000D01*
X152601600Y-59674000D02*
X149801600Y-59674000D01*
X153251600Y-58374000D02*
X153251600Y-58974000D01*
X149151600Y-58374000D02*
G75*
G02*
X149851600Y-57674000I699999J1D01*
G01*
X149851600Y-59674000D02*
G75*
G02*
X149151600Y-58974000I-1J699999D01*
G01*
X152551600Y-57674000D02*
G75*
G02*
X153251600Y-58374000I0J-700000D01*
G01*
X153251600Y-58974000D02*
G75*
G02*
X152551600Y-59674000I-700000J0D01*
G01*
%TO.C,JP9*%
X117457000Y-58897800D02*
X117457000Y-58297800D01*
X118107000Y-57597800D02*
X120907000Y-57597800D01*
X120907000Y-59597800D02*
X118107000Y-59597800D01*
X121557000Y-58297800D02*
X121557000Y-58897800D01*
X117457000Y-58297800D02*
G75*
G02*
X118157000Y-57597800I699999J1D01*
G01*
X118157000Y-59597800D02*
G75*
G02*
X117457000Y-58897800I-1J699999D01*
G01*
X120857000Y-57597800D02*
G75*
G02*
X121557000Y-58297800I0J-700000D01*
G01*
X121557000Y-58897800D02*
G75*
G02*
X120857000Y-59597800I-700000J0D01*
G01*
%TO.C,J1*%
X96323000Y-33976000D02*
X96323000Y-46736000D01*
X98983000Y-33976000D02*
X96323000Y-33976000D01*
X98983000Y-33976000D02*
X98983000Y-46736000D01*
X98983000Y-46736000D02*
X96323000Y-46736000D01*
X98983000Y-48006000D02*
X98983000Y-49336000D01*
X98983000Y-49336000D02*
X97653000Y-49336000D01*
%TO.C,R7*%
X139990336Y-69521400D02*
X140444464Y-69521400D01*
X139990336Y-70991400D02*
X140444464Y-70991400D01*
%TO.C,D6*%
X63810000Y-92628000D02*
X63810000Y-95488000D01*
X65730000Y-92628000D02*
X63810000Y-92628000D01*
X65730000Y-95488000D02*
X65730000Y-92628000D01*
%TO.C,JP6*%
X135694200Y-60929800D02*
X135694200Y-60329800D01*
X136344200Y-59629800D02*
X139144200Y-59629800D01*
X139144200Y-61629800D02*
X136344200Y-61629800D01*
X139794200Y-60329800D02*
X139794200Y-60929800D01*
X135694200Y-60329800D02*
G75*
G02*
X136394200Y-59629800I699999J1D01*
G01*
X136394200Y-61629800D02*
G75*
G02*
X135694200Y-60929800I-1J699999D01*
G01*
X139094200Y-59629800D02*
G75*
G02*
X139794200Y-60329800I0J-700000D01*
G01*
X139794200Y-60929800D02*
G75*
G02*
X139094200Y-61629800I-700000J0D01*
G01*
%TO.C,R10*%
X130329000Y-39697736D02*
X130329000Y-40151864D01*
X131799000Y-39697736D02*
X131799000Y-40151864D01*
%TO.C,R17*%
X188241000Y-39662936D02*
X188241000Y-40117064D01*
X189711000Y-39662936D02*
X189711000Y-40117064D01*
%TO.C,JP5*%
X130517200Y-60929800D02*
X130517200Y-60329800D01*
X131167200Y-59629800D02*
X133967200Y-59629800D01*
X133967200Y-61629800D02*
X131167200Y-61629800D01*
X134617200Y-60329800D02*
X134617200Y-60929800D01*
X130517200Y-60329800D02*
G75*
G02*
X131217200Y-59629800I699999J1D01*
G01*
X131217200Y-61629800D02*
G75*
G02*
X130517200Y-60929800I-1J699999D01*
G01*
X133917200Y-59629800D02*
G75*
G02*
X134617200Y-60329800I0J-700000D01*
G01*
X134617200Y-60929800D02*
G75*
G02*
X133917200Y-61629800I-700000J0D01*
G01*
%TO.C,D5*%
X121722000Y-73315000D02*
X121722000Y-76175000D01*
X123642000Y-73315000D02*
X121722000Y-73315000D01*
X123642000Y-76175000D02*
X123642000Y-73315000D01*
%TO.C,D2*%
X63687900Y-73393000D02*
X63687900Y-76253000D01*
X65607900Y-73393000D02*
X63687900Y-73393000D01*
X65607900Y-76253000D02*
X65607900Y-73393000D01*
%TO.C,R21*%
X120042000Y-68717936D02*
X120042000Y-69172064D01*
X121512000Y-68717936D02*
X121512000Y-69172064D01*
%TO.C,R16*%
X146839000Y-47012936D02*
X146839000Y-47467064D01*
X148309000Y-47012936D02*
X148309000Y-47467064D01*
%TO.C,C18*%
X80545000Y-39087248D02*
X80545000Y-39609752D01*
X82015000Y-39087248D02*
X82015000Y-39609752D01*
%TO.C,JP10*%
X122567000Y-58897800D02*
X122567000Y-58297800D01*
X123217000Y-57597800D02*
X126017000Y-57597800D01*
X126017000Y-59597800D02*
X123217000Y-59597800D01*
X126667000Y-58297800D02*
X126667000Y-58897800D01*
X122567000Y-58297800D02*
G75*
G02*
X123267000Y-57597800I699999J1D01*
G01*
X123267000Y-59597800D02*
G75*
G02*
X122567000Y-58897800I-1J699999D01*
G01*
X125967000Y-57597800D02*
G75*
G02*
X126667000Y-58297800I0J-700000D01*
G01*
X126667000Y-58897800D02*
G75*
G02*
X125967000Y-59597800I-700000J0D01*
G01*
%TO.C,C21*%
X60098000Y-39087248D02*
X60098000Y-39609752D01*
X61568000Y-39087248D02*
X61568000Y-39609752D01*
%TO.C,C28*%
X47018752Y-39524000D02*
X46496248Y-39524000D01*
X47018752Y-40994000D02*
X46496248Y-40994000D01*
%TO.C,J4*%
X102546000Y-47438000D02*
X102546000Y-50098000D01*
X102546000Y-47438000D02*
X122926000Y-47438000D01*
X102546000Y-50098000D02*
X122926000Y-50098000D01*
X122926000Y-47438000D02*
X122926000Y-50098000D01*
X124196000Y-47438000D02*
X125526000Y-47438000D01*
X125526000Y-47438000D02*
X125526000Y-48768000D01*
%TO.C,R9*%
X127535000Y-47028936D02*
X127535000Y-47483064D01*
X129005000Y-47028936D02*
X129005000Y-47483064D01*
%TO.C,D17*%
X198919000Y-92501000D02*
X198919000Y-95361000D01*
X200839000Y-92501000D02*
X198919000Y-92501000D01*
X200839000Y-95361000D02*
X200839000Y-92501000D01*
%TD*%
G36*
X172236677Y-65107685D02*
G01*
X172282432Y-65160489D01*
X172292376Y-65229647D01*
X172263351Y-65293203D01*
X172257319Y-65299682D01*
X172219001Y-65338000D01*
X205295000Y-65338000D01*
X205362039Y-65357685D01*
X205407794Y-65410489D01*
X205419000Y-65462000D01*
X205419000Y-67754000D01*
X205399315Y-67821039D01*
X205346511Y-67866794D01*
X205295000Y-67878000D01*
X169863000Y-67878000D01*
X169795961Y-67858315D01*
X169750206Y-67805511D01*
X169739000Y-67754000D01*
X169739000Y-65212000D01*
X169758685Y-65144961D01*
X169811489Y-65099206D01*
X169863000Y-65088000D01*
X172169638Y-65088000D01*
X172236677Y-65107685D01*
G37*
G36*
X172282039Y-60277685D02*
G01*
X172327794Y-60330489D01*
X172339000Y-60382000D01*
X172339000Y-65166637D01*
X172319315Y-65233676D01*
X172302681Y-65254318D01*
X172218999Y-65337999D01*
X172219298Y-65338720D01*
X172283883Y-65357685D01*
X172329638Y-65410489D01*
X172339582Y-65479647D01*
X172310557Y-65543203D01*
X172251779Y-65580977D01*
X172241034Y-65583618D01*
X172230979Y-65585618D01*
X172206789Y-65588000D01*
X169863000Y-65588000D01*
X169795961Y-65568315D01*
X169750206Y-65515511D01*
X169739000Y-65464000D01*
X169739000Y-60382000D01*
X169758685Y-60314961D01*
X169811489Y-60269206D01*
X169863000Y-60258000D01*
X172215000Y-60258000D01*
X172282039Y-60277685D01*
G37*
G36*
X187496639Y-52597685D02*
G01*
X187542394Y-52650489D01*
X187553600Y-52702000D01*
X187553600Y-55054000D01*
X187533915Y-55121039D01*
X187481111Y-55166794D01*
X187429600Y-55178000D01*
X169897600Y-55178000D01*
X169830561Y-55158315D01*
X169784806Y-55105511D01*
X169773600Y-55054000D01*
X169773600Y-52702000D01*
X169793285Y-52634961D01*
X169846089Y-52589206D01*
X169897600Y-52578000D01*
X187429600Y-52578000D01*
X187496639Y-52597685D01*
G37*
%LPC*%
D14*
%TO.C,J7*%
X147269200Y-66548000D03*
%TD*%
D15*
%TO.C,H4*%
X203277200Y-35814000D03*
X203760474Y-34647274D03*
X203760474Y-36980726D03*
X204927200Y-34164000D03*
D16*
X204927200Y-35814000D03*
D15*
X204927200Y-37464000D03*
X206093926Y-34647274D03*
X206093926Y-36980726D03*
X206577200Y-35814000D03*
%TD*%
D14*
%TO.C,J14*%
X171069000Y-56388000D03*
D17*
X173609000Y-56388000D03*
X176149000Y-56388000D03*
X178689000Y-56388000D03*
X181229000Y-56388000D03*
X183769000Y-56388000D03*
X186309000Y-56388000D03*
X188849000Y-56388000D03*
X191389000Y-56388000D03*
X193929000Y-56388000D03*
X196469000Y-56388000D03*
X199009000Y-56388000D03*
X201549000Y-56388000D03*
X204089000Y-56388000D03*
%TD*%
D18*
%TO.C,SW9*%
X53636500Y-103124000D03*
D19*
X54906500Y-100584000D03*
D20*
X58716500Y-103124000D03*
D19*
X61256500Y-98044000D03*
D18*
X63796500Y-103124000D03*
D21*
X51306500Y-100584000D03*
X64731500Y-98044000D03*
%TD*%
D22*
%TO.C,SW3*%
X166867000Y-38914000D03*
D23*
X166867000Y-43914000D03*
X166867000Y-41414000D03*
D24*
X174367000Y-35814000D03*
X174367000Y-47014000D03*
D23*
X181367000Y-43914000D03*
X181367000Y-38914000D03*
%TD*%
D18*
%TO.C,SW12*%
X111474500Y-103089200D03*
D19*
X112744500Y-100549200D03*
D20*
X116554500Y-103089200D03*
D19*
X119094500Y-98009200D03*
D18*
X121634500Y-103089200D03*
D21*
X109144500Y-100549200D03*
X122569500Y-98009200D03*
%TD*%
D15*
%TO.C,H2*%
X203272444Y-112466680D03*
X203755718Y-111299954D03*
X203755718Y-113633406D03*
X204922444Y-110816680D03*
D16*
X204922444Y-112466680D03*
D15*
X204922444Y-114116680D03*
X206089170Y-111299954D03*
X206089170Y-113633406D03*
X206572444Y-112466680D03*
%TD*%
D18*
%TO.C,SW11*%
X92233500Y-103140000D03*
D19*
X93503500Y-100600000D03*
D20*
X97313500Y-103140000D03*
D19*
X99853500Y-98060000D03*
D18*
X102393500Y-103140000D03*
D21*
X89903500Y-100600000D03*
X103328500Y-98060000D03*
%TD*%
D14*
%TO.C,J12*%
X171069000Y-61468000D03*
D17*
X173609000Y-61468000D03*
X176149000Y-61468000D03*
X178689000Y-61468000D03*
X181229000Y-61468000D03*
X183769000Y-61468000D03*
X186309000Y-61468000D03*
X188849000Y-61468000D03*
X191389000Y-61468000D03*
X193929000Y-61468000D03*
X196469000Y-61468000D03*
X199009000Y-61468000D03*
X201549000Y-61468000D03*
X204089000Y-61468000D03*
%TD*%
D14*
%TO.C,J9*%
X171069000Y-53848000D03*
D17*
X173609000Y-53848000D03*
X176149000Y-53848000D03*
X178689000Y-53848000D03*
X181229000Y-53848000D03*
X183769000Y-53848000D03*
X186309000Y-53848000D03*
X188849000Y-53848000D03*
X191389000Y-53848000D03*
X193929000Y-53848000D03*
X196469000Y-53848000D03*
X199009000Y-53848000D03*
X201549000Y-53848000D03*
X204089000Y-53848000D03*
%TD*%
D14*
%TO.C,J3*%
X72126000Y-67716000D03*
D17*
X69586000Y-67716000D03*
X67046000Y-67716000D03*
X64506000Y-67716000D03*
%TD*%
D18*
%TO.C,SW13*%
X130810000Y-83820000D03*
D19*
X132080000Y-81280000D03*
D20*
X135890000Y-83820000D03*
D19*
X138430000Y-78740000D03*
D18*
X140970000Y-83820000D03*
D21*
X128480000Y-81280000D03*
X141905000Y-78740000D03*
%TD*%
D18*
%TO.C,SW6*%
X72898000Y-83820000D03*
D19*
X74168000Y-81280000D03*
D20*
X77978000Y-83820000D03*
D19*
X80518000Y-78740000D03*
D18*
X83058000Y-83820000D03*
D21*
X70568000Y-81280000D03*
X83993000Y-78740000D03*
%TD*%
D14*
%TO.C,J11*%
X171069000Y-64008000D03*
D17*
X173609000Y-64008000D03*
X176149000Y-64008000D03*
X178689000Y-64008000D03*
X181229000Y-64008000D03*
X183769000Y-64008000D03*
X186309000Y-64008000D03*
X188849000Y-64008000D03*
X191389000Y-64008000D03*
X193929000Y-64008000D03*
X196469000Y-64008000D03*
X199009000Y-64008000D03*
X201549000Y-64008000D03*
X204089000Y-64008000D03*
%TD*%
D18*
%TO.C,SW15*%
X150114000Y-83845400D03*
D19*
X151384000Y-81305400D03*
D20*
X155194000Y-83845400D03*
D19*
X157734000Y-78765400D03*
D18*
X160274000Y-83845400D03*
D21*
X147784000Y-81305400D03*
X161209000Y-78765400D03*
%TD*%
D22*
%TO.C,SW1*%
X128259000Y-38914000D03*
D23*
X128259000Y-43914000D03*
X128259000Y-41414000D03*
D24*
X135759000Y-35814000D03*
X135759000Y-47014000D03*
D23*
X142759000Y-43914000D03*
X142759000Y-38914000D03*
%TD*%
D18*
%TO.C,SW10*%
X72940500Y-103124000D03*
D19*
X74210500Y-100584000D03*
D20*
X78020500Y-103124000D03*
D19*
X80560500Y-98044000D03*
D18*
X83100500Y-103124000D03*
D21*
X70610500Y-100584000D03*
X84035500Y-98044000D03*
%TD*%
D18*
%TO.C,SW16*%
X150118500Y-103165400D03*
D19*
X151388500Y-100625400D03*
D20*
X155198500Y-103165400D03*
D19*
X157738500Y-98085400D03*
D18*
X160278500Y-103165400D03*
D21*
X147788500Y-100625400D03*
X161213500Y-98085400D03*
%TD*%
D14*
%TO.C,J13*%
X171069000Y-58928000D03*
D17*
X173609000Y-58928000D03*
X176149000Y-58928000D03*
X178689000Y-58928000D03*
X181229000Y-58928000D03*
X183769000Y-58928000D03*
X186309000Y-58928000D03*
X188849000Y-58928000D03*
X191389000Y-58928000D03*
X193929000Y-58928000D03*
X196469000Y-58928000D03*
X199009000Y-58928000D03*
X201549000Y-58928000D03*
X204089000Y-58928000D03*
%TD*%
D14*
%TO.C,J10*%
X171069000Y-66548000D03*
D17*
X173609000Y-66548000D03*
X176149000Y-66548000D03*
X178689000Y-66548000D03*
X181229000Y-66548000D03*
X183769000Y-66548000D03*
X186309000Y-66548000D03*
X188849000Y-66548000D03*
X191389000Y-66548000D03*
X193929000Y-66548000D03*
X196469000Y-66548000D03*
X199009000Y-66548000D03*
X201549000Y-66548000D03*
X204089000Y-66548000D03*
%TD*%
D18*
%TO.C,SW19*%
X188722000Y-83820000D03*
D19*
X189992000Y-81280000D03*
D20*
X193802000Y-83820000D03*
D19*
X196342000Y-78740000D03*
D18*
X198882000Y-83820000D03*
D21*
X186392000Y-81280000D03*
X199817000Y-78740000D03*
%TD*%
D14*
%TO.C,J8*%
X93980000Y-35433000D03*
%TD*%
D18*
%TO.C,SW7*%
X92202000Y-83820000D03*
D19*
X93472000Y-81280000D03*
D20*
X97282000Y-83820000D03*
D19*
X99822000Y-78740000D03*
D18*
X102362000Y-83820000D03*
D21*
X89872000Y-81280000D03*
X103297000Y-78740000D03*
%TD*%
D22*
%TO.C,SW4*%
X186171000Y-38914000D03*
D23*
X186171000Y-43914000D03*
X186171000Y-41414000D03*
D24*
X193671000Y-35814000D03*
X193671000Y-47014000D03*
D23*
X200671000Y-43914000D03*
X200671000Y-38914000D03*
%TD*%
D22*
%TO.C,SW2*%
X147563000Y-38914000D03*
D23*
X147563000Y-43914000D03*
X147563000Y-41414000D03*
D24*
X155063000Y-35814000D03*
X155063000Y-47014000D03*
D23*
X162063000Y-43914000D03*
X162063000Y-38914000D03*
%TD*%
D14*
%TO.C,J5*%
X124206000Y-44831000D03*
D17*
X121666000Y-44831000D03*
X119126000Y-44831000D03*
X116586000Y-44831000D03*
%TD*%
D18*
%TO.C,SW18*%
X169438500Y-103124000D03*
D19*
X170708500Y-100584000D03*
D20*
X174518500Y-103124000D03*
D19*
X177058500Y-98044000D03*
D18*
X179598500Y-103124000D03*
D21*
X167108500Y-100584000D03*
X180533500Y-98044000D03*
%TD*%
D18*
%TO.C,SW8*%
X111512100Y-83820000D03*
D19*
X112782100Y-81280000D03*
D20*
X116592100Y-83820000D03*
D19*
X119132100Y-78740000D03*
D18*
X121672100Y-83820000D03*
D21*
X109182100Y-81280000D03*
X122607100Y-78740000D03*
%TD*%
D18*
%TO.C,SW17*%
X169418000Y-83820000D03*
D19*
X170688000Y-81280000D03*
D20*
X174498000Y-83820000D03*
D19*
X177038000Y-78740000D03*
D18*
X179578000Y-83820000D03*
D21*
X167088000Y-81280000D03*
X180513000Y-78740000D03*
%TD*%
D18*
%TO.C,SW20*%
X188753500Y-103124000D03*
D19*
X190023500Y-100584000D03*
D20*
X193833500Y-103124000D03*
D19*
X196373500Y-98044000D03*
D18*
X198913500Y-103124000D03*
D21*
X186423500Y-100584000D03*
X199848500Y-98044000D03*
%TD*%
D18*
%TO.C,SW5*%
X53594000Y-83820000D03*
D19*
X54864000Y-81280000D03*
D20*
X58674000Y-83820000D03*
D19*
X61214000Y-78740000D03*
D18*
X63754000Y-83820000D03*
D21*
X51264000Y-81280000D03*
X64689000Y-78740000D03*
%TD*%
D18*
%TO.C,SW14*%
X130821000Y-103124000D03*
D19*
X132091000Y-100584000D03*
D20*
X135901000Y-103124000D03*
D19*
X138441000Y-98044000D03*
D18*
X140981000Y-103124000D03*
D21*
X128491000Y-100584000D03*
X141916000Y-98044000D03*
%TD*%
D15*
%TO.C,H1*%
X45061228Y-112476059D03*
X45544502Y-111309333D03*
X45544502Y-113642785D03*
X46711228Y-110826059D03*
D16*
X46711228Y-112476059D03*
D15*
X46711228Y-114126059D03*
X47877954Y-111309333D03*
X47877954Y-113642785D03*
X48361228Y-112476059D03*
%TD*%
%TO.C,H3*%
X45062274Y-35814000D03*
X45545548Y-34647274D03*
X45545548Y-36980726D03*
X46712274Y-34164000D03*
D16*
X46712274Y-35814000D03*
D15*
X46712274Y-37464000D03*
X47879000Y-34647274D03*
X47879000Y-36980726D03*
X48362274Y-35814000D03*
%TD*%
D25*
%TO.C,D14*%
X180467000Y-74133600D03*
X180467000Y-76183600D03*
%TD*%
D26*
%TO.C,R15*%
X150368000Y-40874000D03*
X150368000Y-38874000D03*
%TD*%
D25*
%TO.C,D13*%
X161294500Y-93507400D03*
X161294500Y-95557400D03*
%TD*%
D27*
%TO.C,C27*%
X66040000Y-40386000D03*
X66040000Y-38311000D03*
%TD*%
D25*
%TO.C,D8*%
X103378000Y-93463000D03*
X103378000Y-95513000D03*
%TD*%
D28*
%TO.C,JP14*%
X57658000Y-71658000D03*
D29*
X57658000Y-70358000D03*
D30*
X57658000Y-69058000D03*
%TD*%
D31*
%TO.C,JP8*%
X113068000Y-58597800D03*
D32*
X114368000Y-58597800D03*
D33*
X115668000Y-58597800D03*
%TD*%
D25*
%TO.C,D11*%
X141859000Y-93463000D03*
X141859000Y-95513000D03*
%TD*%
D26*
%TO.C,R13*%
X166878000Y-48256000D03*
X166878000Y-46256000D03*
%TD*%
D27*
%TO.C,C24*%
X71120000Y-40407500D03*
X71120000Y-38332500D03*
%TD*%
D31*
%TO.C,JP7*%
X141651200Y-60629800D03*
D32*
X142951200Y-60629800D03*
D33*
X144251200Y-60629800D03*
%TD*%
D14*
%TO.C,J6*%
X99060000Y-61976000D03*
D17*
X101600000Y-61976000D03*
X104140000Y-61976000D03*
X106680000Y-61976000D03*
X109220000Y-61976000D03*
X111760000Y-61976000D03*
%TD*%
D27*
%TO.C,C25*%
X50800000Y-40386000D03*
X50800000Y-38311000D03*
%TD*%
D25*
%TO.C,D9*%
X122656600Y-93463000D03*
X122656600Y-95513000D03*
%TD*%
D34*
%TO.C,R8*%
X141217400Y-68275200D03*
X139217400Y-68275200D03*
%TD*%
D35*
%TO.C,R14*%
X181356000Y-46256000D03*
X181356000Y-48256000D03*
%TD*%
D31*
%TO.C,JP13*%
X160345600Y-58674000D03*
D32*
X161645600Y-58674000D03*
D33*
X162945600Y-58674000D03*
%TD*%
D36*
%TO.C,U1*%
X45850000Y-50361000D03*
D37*
X48880000Y-50661000D03*
X48880000Y-55511000D03*
D36*
X45850000Y-55811000D03*
D17*
X45720000Y-44196000D03*
D38*
X45720000Y-43296000D03*
D17*
X48260000Y-44196000D03*
D38*
X48260000Y-43296000D03*
D14*
X50800000Y-44196000D03*
D38*
X50800000Y-43296000D03*
D17*
X53340000Y-44196000D03*
D38*
X53340000Y-43296000D03*
D17*
X55880000Y-44196000D03*
D38*
X55880000Y-43296000D03*
D17*
X58420000Y-44196000D03*
D38*
X58420000Y-43296000D03*
D17*
X60960000Y-44196000D03*
D38*
X60960000Y-43296000D03*
D14*
X63500000Y-44196000D03*
D38*
X63500000Y-43296000D03*
D17*
X66040000Y-44196000D03*
D38*
X66040000Y-43296000D03*
D17*
X68580000Y-44196000D03*
D38*
X68580000Y-43296000D03*
D17*
X71120000Y-44196000D03*
D38*
X71120000Y-43296000D03*
D17*
X73660000Y-44196000D03*
D38*
X73660000Y-43296000D03*
D14*
X76200000Y-44196000D03*
D38*
X76200000Y-43296000D03*
D17*
X78740000Y-44196000D03*
D38*
X78740000Y-43296000D03*
D17*
X81280000Y-44196000D03*
D38*
X81280000Y-43296000D03*
D17*
X83820000Y-44196000D03*
D38*
X83820000Y-43296000D03*
D17*
X86360000Y-44196000D03*
D38*
X86360000Y-43296000D03*
D14*
X88900000Y-44196000D03*
D38*
X88900000Y-43296000D03*
D17*
X91440000Y-44196000D03*
D38*
X91440000Y-43296000D03*
D17*
X93980000Y-44196000D03*
D38*
X93980000Y-43296000D03*
D17*
X93980000Y-61976000D03*
D38*
X93980000Y-62876000D03*
D17*
X91440000Y-61976000D03*
D38*
X91440000Y-62876000D03*
D14*
X88900000Y-61976000D03*
D38*
X88900000Y-62876000D03*
D17*
X86360000Y-61976000D03*
D38*
X86360000Y-62876000D03*
D17*
X83820000Y-61976000D03*
D38*
X83820000Y-62876000D03*
D17*
X81280000Y-61976000D03*
D38*
X81280000Y-62876000D03*
D17*
X78740000Y-61976000D03*
D38*
X78740000Y-62876000D03*
D14*
X76200000Y-61976000D03*
D38*
X76200000Y-62876000D03*
D17*
X73660000Y-61976000D03*
D38*
X73660000Y-62876000D03*
D17*
X71120000Y-61976000D03*
D38*
X71120000Y-62876000D03*
D17*
X68580000Y-61976000D03*
D38*
X68580000Y-62876000D03*
D17*
X66040000Y-61976000D03*
D38*
X66040000Y-62876000D03*
D14*
X63500000Y-61976000D03*
D38*
X63500000Y-62876000D03*
D17*
X60960000Y-61976000D03*
D38*
X60960000Y-62876000D03*
D17*
X58420000Y-61976000D03*
D38*
X58420000Y-62876000D03*
D17*
X55880000Y-61976000D03*
D38*
X55880000Y-62876000D03*
D17*
X53340000Y-61976000D03*
D38*
X53340000Y-62876000D03*
D14*
X50800000Y-61976000D03*
D38*
X50800000Y-62876000D03*
D17*
X48260000Y-61976000D03*
D38*
X48260000Y-62876000D03*
D17*
X45720000Y-61976000D03*
D38*
X45720000Y-62876000D03*
%TD*%
D27*
%TO.C,C23*%
X68580000Y-40386000D03*
X68580000Y-38311000D03*
%TD*%
D25*
%TO.C,D4*%
X103360900Y-74199000D03*
X103360900Y-76249000D03*
%TD*%
%TO.C,D10*%
X142240000Y-74133600D03*
X142240000Y-76183600D03*
%TD*%
D31*
%TO.C,JP12*%
X155108600Y-58674000D03*
D32*
X156408600Y-58674000D03*
D33*
X157708600Y-58674000D03*
%TD*%
D27*
%TO.C,C20*%
X58420000Y-40386000D03*
X58420000Y-38311000D03*
%TD*%
%TO.C,C26*%
X53340000Y-40386000D03*
X53340000Y-38311000D03*
%TD*%
D35*
%TO.C,R20*%
X200660000Y-46240000D03*
X200660000Y-48240000D03*
%TD*%
D25*
%TO.C,D15*%
X180487500Y-93355000D03*
X180487500Y-95405000D03*
%TD*%
D26*
%TO.C,R22*%
X123063000Y-69945000D03*
X123063000Y-67945000D03*
%TD*%
D25*
%TO.C,D12*%
X161290000Y-74159000D03*
X161290000Y-76209000D03*
%TD*%
D26*
%TO.C,R11*%
X169672000Y-40874000D03*
X169672000Y-38874000D03*
%TD*%
D25*
%TO.C,D7*%
X84085000Y-93397600D03*
X84085000Y-95447600D03*
%TD*%
%TO.C,D3*%
X83951900Y-74159000D03*
X83951900Y-76209000D03*
%TD*%
D35*
%TO.C,R19*%
X162052000Y-46141000D03*
X162052000Y-48141000D03*
%TD*%
D27*
%TO.C,C17*%
X73660000Y-40407500D03*
X73660000Y-38332500D03*
%TD*%
D26*
%TO.C,R18*%
X186182000Y-48256000D03*
X186182000Y-46256000D03*
%TD*%
D27*
%TO.C,C19*%
X78740000Y-40386000D03*
X78740000Y-38311000D03*
%TD*%
%TO.C,C22*%
X55880000Y-40386000D03*
X55880000Y-38311000D03*
%TD*%
D25*
%TO.C,D16*%
X199898000Y-74133600D03*
X199898000Y-76183600D03*
%TD*%
D35*
%TO.C,R12*%
X142733000Y-46141000D03*
X142733000Y-48141000D03*
%TD*%
D39*
%TO.C,JP15*%
X188184000Y-51409600D03*
D40*
X189484000Y-51409600D03*
%TD*%
D31*
%TO.C,JP11*%
X149901600Y-58674000D03*
D32*
X151201600Y-58674000D03*
D33*
X152501600Y-58674000D03*
%TD*%
D31*
%TO.C,JP9*%
X118207000Y-58597800D03*
D32*
X119507000Y-58597800D03*
D33*
X120807000Y-58597800D03*
%TD*%
D14*
%TO.C,J1*%
X97653000Y-48006000D03*
D17*
X97653000Y-45466000D03*
X97653000Y-42926000D03*
X97653000Y-40386000D03*
X97653000Y-37846000D03*
X97653000Y-35306000D03*
%TD*%
D34*
%TO.C,R7*%
X141217400Y-70256400D03*
X139217400Y-70256400D03*
%TD*%
D25*
%TO.C,D6*%
X64770000Y-93463000D03*
X64770000Y-95513000D03*
%TD*%
D31*
%TO.C,JP6*%
X136444200Y-60629800D03*
D32*
X137744200Y-60629800D03*
D33*
X139044200Y-60629800D03*
%TD*%
D26*
%TO.C,R10*%
X131064000Y-40924800D03*
X131064000Y-38924800D03*
%TD*%
%TO.C,R17*%
X188976000Y-40890000D03*
X188976000Y-38890000D03*
%TD*%
D31*
%TO.C,JP5*%
X131267200Y-60629800D03*
D32*
X132567200Y-60629800D03*
D33*
X133867200Y-60629800D03*
%TD*%
D25*
%TO.C,D5*%
X122682000Y-74150000D03*
X122682000Y-76200000D03*
%TD*%
%TO.C,D2*%
X64647900Y-74228000D03*
X64647900Y-76278000D03*
%TD*%
D26*
%TO.C,R21*%
X120777000Y-69945000D03*
X120777000Y-67945000D03*
%TD*%
%TO.C,R16*%
X147574000Y-48240000D03*
X147574000Y-46240000D03*
%TD*%
D27*
%TO.C,C18*%
X81280000Y-40386000D03*
X81280000Y-38311000D03*
%TD*%
D31*
%TO.C,JP10*%
X123317000Y-58597800D03*
D32*
X124617000Y-58597800D03*
D33*
X125917000Y-58597800D03*
%TD*%
D27*
%TO.C,C21*%
X60833000Y-40386000D03*
X60833000Y-38311000D03*
%TD*%
D41*
%TO.C,C28*%
X45720000Y-40259000D03*
X47795000Y-40259000D03*
%TD*%
D14*
%TO.C,J4*%
X124196000Y-48768000D03*
D17*
X121656000Y-48768000D03*
X119116000Y-48768000D03*
X116576000Y-48768000D03*
X114036000Y-48768000D03*
X111496000Y-48768000D03*
X108956000Y-48768000D03*
X106416000Y-48768000D03*
X103876000Y-48768000D03*
%TD*%
D26*
%TO.C,R9*%
X128270000Y-48256000D03*
X128270000Y-46256000D03*
%TD*%
D25*
%TO.C,D17*%
X199879000Y-93336000D03*
X199879000Y-95386000D03*
%TD*%
%LPD*%
M02*
