M48
; DRILL file {KiCad 8.0.6} date 2025-04-15T16:38:26+0100
; FORMAT={-:-/ absolute / inch / decimal}
; #@! TF.CreationDate,2025-04-15T16:38:26+01:00
; #@! TF.GenerationSoftware,Kicad,Pcbnew,8.0.6
; #@! TF.FileFunction,Plated,1,2,PTH
FMAT,2
INCH
; #@! TA.AperFunction,Plated,PTH,ViaDrill
T1C0.0118
; #@! TA.AperFunction,Plated,PTH,ComponentDrill
T2C0.0157
; #@! TA.AperFunction,Plated,PTH,ViaDrill
T3C0.0197
; #@! TA.AperFunction,Plated,PTH,ViaDrill
T4C0.0236
; #@! TA.AperFunction,Plated,PTH,ViaDrill
T5C0.0315
; #@! TA.AperFunction,Plated,PTH,ComponentDrill
T6C0.0394
; #@! TA.AperFunction,Plated,PTH,ComponentDrill
T7C0.0402
; #@! TA.AperFunction,Plated,PTH,ComponentDrill
T8C0.0866
; #@! TA.AperFunction,Plated,PTH,ComponentDrill
T9C0.1024
%
G90
G05
T1
X2.0201Y-3.416
X2.29Y-2.08
X2.29Y-2.14
X2.38Y-2.05
X2.38Y-2.14
X2.47Y-2.025
X2.47Y-2.14
X2.56Y-1.9994
X2.56Y-2.14
X2.6054Y-3.57
X2.61Y-2.92
X2.65Y-1.968
X2.65Y-2.14
X2.655Y-4.3437
X2.698Y-3.644
X2.74Y-1.94
X2.74Y-2.14
X2.782Y-3.454
X2.83Y-1.912
X2.83Y-2.14
X2.92Y-2.14
X2.9214Y-1.8847
X3.01Y-2.14
X3.0125Y-1.86
X3.105Y-1.83
X3.105Y-2.14
X3.195Y-1.81
X3.195Y-2.14
X3.22Y-2.96
X3.3654Y-3.5678
X3.415Y-4.3437
X3.456Y-3.644
X3.54Y-3.49
X3.7969Y-2.7919
X3.799Y-2.835
X3.815Y-2.567
X3.82Y-2.616
X3.854Y-2.3
X3.8705Y-2.9344
X3.872Y-2.382
X3.925Y-2.9344
X3.985Y-2.965
X4.018Y-2.356
X4.1227Y-3.5727
X4.17Y-4.3437
X4.218Y-3.644
X4.3Y-3.5284
X4.525Y-2.432
X4.6525Y-2.9325
X4.705Y-2.432
X4.715Y-2.935
X4.7537Y-2.617
X4.755Y-2.96
X4.8188Y-2.4358
X4.845Y-2.567
X4.8529Y-2.5179
X4.885Y-3.235
X4.8852Y-3.5704
X4.935Y-2.925
X4.935Y-4.3437
X4.988Y-3.632
X4.99Y-2.93
X5.05Y-1.95
X5.0596Y-3.4176
X5.12Y-3.03
X5.16Y-1.66
X5.223Y-2.457
X5.41Y-3.6
X5.423Y-2.482
X5.428Y-2.767
X5.431Y-2.692
X5.493Y-2.487
X5.5243Y-3.565
X5.56Y-1.8953
X5.705Y-4.35
X5.735Y-2.742
X5.74Y-3.145
X5.74Y-3.5654
X5.77Y-2.938
X5.81Y-1.95
X5.8184Y-3.305
X5.8196Y-3.4556
X5.895Y-2.766
X5.92Y-1.654
X5.94Y-2.77
X5.954Y-2.3825
X6.09Y-2.667
X6.154Y-2.4075
X6.1679Y-3.5976
X6.19Y-2.717
X6.224Y-2.4125
X6.268Y-2.49
X6.27Y-2.54
X6.285Y-2.91
X6.2893Y-3.5654
X6.3167Y-1.8953
X6.496Y-4.335
X6.57Y-1.946
X6.5783Y-2.88
X6.5816Y-3.4916
X6.64Y-2.815
X6.68Y-1.652
X6.93Y-3.6
X7.0336Y-2.91
X7.0493Y-3.5654
X7.078Y-1.9
X7.124Y-2.81
X7.215Y-4.3437
X7.33Y-1.947
X7.3383Y-2.975
X7.3395Y-3.53
X7.384Y-2.954
X7.441Y-1.656
X7.695Y-3.6
X7.795Y-2.945
X7.8089Y-3.5604
X7.8355Y-1.9035
T2
X1.7741Y-4.4282
X1.7741Y-1.41
X1.7931Y-4.3823
X1.7931Y-4.4741
X1.7931Y-1.3641
X1.7931Y-1.4559
X1.839Y-4.3632
X1.839Y-4.4932
X1.8391Y-1.345
X1.8391Y-1.475
X1.885Y-4.3823
X1.885Y-4.4741
X1.885Y-1.3641
X1.885Y-1.4559
X1.904Y-4.4282
X1.904Y-1.41
X8.0029Y-4.4278
X8.003Y-1.41
X8.0219Y-4.3819
X8.0219Y-4.4738
X8.0221Y-1.3641
X8.0221Y-1.4559
X8.0678Y-4.3629
X8.0678Y-4.4928
X8.068Y-1.345
X8.068Y-1.475
X8.1137Y-4.3819
X8.1137Y-4.4738
X8.1139Y-1.3641
X8.1139Y-1.4559
X8.1328Y-4.4278
X8.133Y-1.41
T3
X1.8Y-3.8
X1.8Y-4.0
X1.8Y-4.2
X1.9Y-3.2
X1.9Y-3.4
X2.0Y-2.1
X2.0Y-2.2
X2.0Y-2.3
X2.26Y-3.85
X2.31Y-3.52
X2.4Y-2.6
X2.4Y-2.7
X2.45Y-4.18
X2.9277Y-4.1696
X2.99Y-3.85
X3.0Y-1.4
X3.0Y-1.5
X3.04Y-2.66
X3.05Y-3.14
X3.07Y-3.52
X3.22Y-4.17
X3.3Y-1.4
X3.3Y-1.5
X3.3Y-2.2
X3.3Y-2.3
X3.4Y-2.2
X3.5Y-1.4
X3.5Y-1.5
X3.7Y-4.17
X3.79Y-3.84
X3.81Y-3.15
X4.02Y-4.17
X4.2Y-2.335
X4.22Y-1.555
X4.35Y-2.335
X4.4Y-1.4
X4.4Y-1.6
X4.45Y-4.17
X4.54Y-3.84
X4.57Y-3.16
X4.6Y-1.4
X4.6Y-1.6
X4.68Y-2.72
X4.78Y-4.17
X4.8Y-1.4
X4.8Y-1.6
X5.15Y-2.65
X5.22Y-3.38
X5.22Y-4.17
X5.32Y-3.84
X5.3448Y-1.6305
X5.363Y-2.842
X5.4Y-2.96
X5.444Y-2.612
X5.5Y-1.5
X5.5Y-1.8
X5.51Y-4.17
X5.97Y-3.06
X5.97Y-4.17
X5.98Y-3.41
X6.07Y-3.84
X6.0988Y-2.7674
X6.1048Y-1.6305
X6.1994Y-2.6
X6.25Y-1.499
X6.25Y-1.8
X6.26Y-4.17
X6.34Y-3.41
X6.605Y-2.305
X6.72Y-4.17
X6.76Y-3.44
X6.84Y-3.84
X6.8648Y-1.6305
X7.0Y-1.5
X7.0Y-1.8
X7.05Y-4.18
X7.1Y-3.44
X7.4Y-2.8
X7.45Y-3.42
X7.5Y-2.9
X7.5Y-4.18
X7.57Y-3.49
X7.59Y-3.84
X7.6Y-2.8
X7.6Y-2.9
X7.6248Y-1.6502
X7.74Y-4.18
X7.75Y-1.5
X7.75Y-1.8
X7.9Y-2.8
X8.048Y-3.1497
X8.0492Y-1.6491
X8.05Y-1.8
X8.05Y-1.95
X8.05Y-2.8
X8.05Y-3.0
X8.05Y-3.3
X8.05Y-3.45
X8.05Y-3.6
X8.05Y-3.75
X8.05Y-3.9
X8.05Y-4.05
X8.05Y-4.2
T4
X4.36Y-2.914
X5.04Y-2.6159
T5
X1.8Y-3.002
X2.18Y-2.82
X2.318Y-2.89
X2.36Y-2.77
X3.805Y-2.455
X4.555Y-2.377
X4.755Y-2.377
X4.955Y-2.382
X5.084Y-2.37
X5.268Y-2.322
X5.473Y-2.322
X5.673Y-2.322
X6.004Y-2.235
X6.209Y-2.235
X6.489Y-2.305
T6
X2.5396Y-2.666
X2.6396Y-2.666
X2.7396Y-2.666
X2.8396Y-2.666
X3.7Y-1.395
X3.8446Y-1.39
X3.8446Y-1.49
X3.8446Y-1.59
X3.8446Y-1.69
X3.8446Y-1.79
X3.8446Y-1.89
X3.9Y-2.44
X4.0Y-2.44
X4.0896Y-1.92
X4.1Y-2.44
X4.1896Y-1.92
X4.2Y-2.44
X4.2896Y-1.92
X4.3Y-2.44
X4.3896Y-1.92
X4.4Y-2.44
X4.4896Y-1.92
X4.5896Y-1.92
X4.59Y-1.765
X4.6896Y-1.92
X4.69Y-1.765
X4.7896Y-1.92
X4.79Y-1.765
X4.8896Y-1.92
X4.89Y-1.765
X5.0496Y-1.532
X5.0496Y-1.6305
X5.0496Y-1.7289
X5.6204Y-1.532
X5.6204Y-1.7289
X5.798Y-2.62
X5.8096Y-1.532
X5.8096Y-1.6305
X5.8096Y-1.7289
X6.3804Y-1.532
X6.3804Y-1.7289
X6.5696Y-1.532
X6.5696Y-1.6305
X6.5696Y-1.7289
X6.735Y-2.12
X6.735Y-2.22
X6.735Y-2.32
X6.735Y-2.42
X6.735Y-2.52
X6.735Y-2.62
X6.835Y-2.12
X6.835Y-2.22
X6.835Y-2.32
X6.835Y-2.42
X6.835Y-2.52
X6.835Y-2.62
X6.935Y-2.12
X6.935Y-2.22
X6.935Y-2.32
X6.935Y-2.42
X6.935Y-2.52
X6.935Y-2.62
X7.035Y-2.12
X7.035Y-2.22
X7.035Y-2.32
X7.035Y-2.42
X7.035Y-2.52
X7.035Y-2.62
X7.135Y-2.12
X7.135Y-2.22
X7.135Y-2.32
X7.135Y-2.42
X7.135Y-2.52
X7.135Y-2.62
X7.1404Y-1.532
X7.1404Y-1.7289
X7.235Y-2.12
X7.235Y-2.22
X7.235Y-2.32
X7.235Y-2.42
X7.235Y-2.52
X7.235Y-2.62
X7.3296Y-1.532
X7.3296Y-1.6305
X7.3296Y-1.7289
X7.335Y-2.12
X7.335Y-2.22
X7.335Y-2.32
X7.335Y-2.42
X7.335Y-2.52
X7.335Y-2.62
X7.435Y-2.12
X7.435Y-2.22
X7.435Y-2.32
X7.435Y-2.42
X7.435Y-2.52
X7.435Y-2.62
X7.535Y-2.12
X7.535Y-2.22
X7.535Y-2.32
X7.535Y-2.42
X7.535Y-2.52
X7.535Y-2.62
X7.635Y-2.12
X7.635Y-2.22
X7.635Y-2.32
X7.635Y-2.42
X7.635Y-2.52
X7.635Y-2.62
X7.735Y-2.12
X7.735Y-2.22
X7.735Y-2.32
X7.735Y-2.42
X7.735Y-2.52
X7.735Y-2.62
X7.835Y-2.12
X7.835Y-2.22
X7.835Y-2.32
X7.835Y-2.42
X7.835Y-2.52
X7.835Y-2.62
X7.9004Y-1.532
X7.9004Y-1.7289
X7.935Y-2.12
X7.935Y-2.22
X7.935Y-2.32
X7.935Y-2.42
X7.935Y-2.52
X7.935Y-2.62
X8.035Y-2.12
X8.035Y-2.22
X8.035Y-2.32
X8.035Y-2.42
X8.035Y-2.52
X8.035Y-2.62
T7
X1.8Y-1.74
X1.8Y-2.44
X1.9Y-1.74
X1.9Y-2.44
X2.0Y-1.74
X2.0Y-2.44
X2.1Y-1.74
X2.1Y-2.44
X2.2Y-1.74
X2.2Y-2.44
X2.3Y-1.74
X2.3Y-2.44
X2.4Y-1.74
X2.4Y-2.44
X2.5Y-1.74
X2.5Y-2.44
X2.6Y-1.74
X2.6Y-2.44
X2.7Y-1.74
X2.7Y-2.44
X2.8Y-1.74
X2.8Y-2.44
X2.9Y-1.74
X2.9Y-2.44
X3.0Y-1.74
X3.0Y-2.44
X3.1Y-1.74
X3.1Y-2.44
X3.2Y-1.74
X3.2Y-2.44
X3.3Y-1.74
X3.3Y-2.44
X3.4Y-1.74
X3.4Y-2.44
X3.5Y-1.74
X3.5Y-2.44
X3.6Y-1.74
X3.6Y-2.44
X3.7Y-1.74
X3.7Y-2.44
T8
X1.839Y-4.4282
X1.8391Y-1.41
X8.0678Y-4.4278
X8.068Y-1.41
T9
X5.3448Y-1.41
X5.3448Y-1.8509
X6.1048Y-1.41
X6.1048Y-1.8509
X6.8648Y-1.41
X6.8648Y-1.8509
X7.6248Y-1.41
X7.6248Y-1.8509
M30
