%TF.GenerationSoftware,KiCad,Pcbnew,8.0.6*%
%TF.CreationDate,2025-04-15T16:38:21+01:00*%
%TF.ProjectId,PicoSynth,5069636f-5379-46e7-9468-2e6b69636164,rev?*%
%TF.SameCoordinates,Original*%
%TF.FileFunction,Soldermask,Top*%
%TF.FilePolarity,Negative*%
%FSLAX46Y46*%
G04 Gerber Fmt 4.6, Leading zero omitted, Abs format (unit mm)*
G04 Created by KiCad (PCBNEW 8.0.6) date 2025-04-15 16:38:21*
%MOMM*%
%LPD*%
G01*
G04 APERTURE LIST*
G04 Aperture macros list*
%AMRoundRect*
0 Rectangle with rounded corners*
0 $1 Rounding radius*
0 $2 $3 $4 $5 $6 $7 $8 $9 X,Y pos of 4 corners*
0 Add a 4 corners polygon primitive as box body*
4,1,4,$2,$3,$4,$5,$6,$7,$8,$9,$2,$3,0*
0 Add four circle primitives for the rounded corners*
1,1,$1+$1,$2,$3*
1,1,$1+$1,$4,$5*
1,1,$1+$1,$6,$7*
1,1,$1+$1,$8,$9*
0 Add four rect primitives between the rounded corners*
20,1,$1+$1,$2,$3,$4,$5,0*
20,1,$1+$1,$4,$5,$6,$7,0*
20,1,$1+$1,$6,$7,$8,$9,0*
20,1,$1+$1,$8,$9,$2,$3,0*%
G04 Aperture macros list end*
%ADD10R,1.700000X1.700000*%
%ADD11C,0.700000*%
%ADD12C,4.400000*%
%ADD13O,1.700000X1.700000*%
%ADD14C,1.700000*%
%ADD15C,3.000000*%
%ADD16C,4.000000*%
%ADD17RoundRect,0.250001X0.462499X1.074999X-0.462499X1.074999X-0.462499X-1.074999X0.462499X-1.074999X0*%
%ADD18RoundRect,0.213760X-0.426240X-0.526240X0.426240X-0.526240X0.426240X0.526240X-0.426240X0.526240X0*%
%ADD19RoundRect,0.213350X-0.414150X-0.551650X0.414150X-0.551650X0.414150X0.551650X-0.414150X0.551650X0*%
%ADD20R,2.000000X2.000000*%
%ADD21C,2.000000*%
%ADD22C,3.200000*%
%ADD23RoundRect,0.213760X-0.526240X0.426240X-0.526240X-0.426240X0.526240X-0.426240X0.526240X0.426240X0*%
%ADD24RoundRect,0.150000X-0.875000X-0.150000X0.875000X-0.150000X0.875000X0.150000X-0.875000X0.150000X0*%
%ADD25RoundRect,0.375000X-0.375000X0.625000X-0.375000X-0.625000X0.375000X-0.625000X0.375000X0.625000X0*%
%ADD26RoundRect,0.500000X-1.400000X0.500000X-1.400000X-0.500000X1.400000X-0.500000X1.400000X0.500000X0*%
%ADD27RoundRect,0.265094X0.674906X-0.437406X0.674906X0.437406X-0.674906X0.437406X-0.674906X-0.437406X0*%
%ADD28O,1.800000X1.800000*%
%ADD29O,1.500000X1.500000*%
G04 APERTURE END LIST*
D10*
%TO.C,J7*%
X147269200Y-66548000D03*
%TD*%
D11*
%TO.C,H4*%
X203277200Y-35814000D03*
X203760474Y-34647274D03*
X203760474Y-36980726D03*
X204927200Y-34164000D03*
D12*
X204927200Y-35814000D03*
D11*
X204927200Y-37464000D03*
X206093926Y-34647274D03*
X206093926Y-36980726D03*
X206577200Y-35814000D03*
%TD*%
D10*
%TO.C,J14*%
X171069000Y-56388000D03*
D13*
X173609000Y-56388000D03*
X176149000Y-56388000D03*
X178689000Y-56388000D03*
X181229000Y-56388000D03*
X183769000Y-56388000D03*
X186309000Y-56388000D03*
X188849000Y-56388000D03*
X191389000Y-56388000D03*
X193929000Y-56388000D03*
X196469000Y-56388000D03*
X199009000Y-56388000D03*
X201549000Y-56388000D03*
X204089000Y-56388000D03*
%TD*%
D14*
%TO.C,SW9*%
X53636500Y-103124000D03*
D15*
X54906500Y-100584000D03*
D16*
X58716500Y-103124000D03*
D15*
X61256500Y-98044000D03*
D14*
X63796500Y-103124000D03*
%TD*%
D17*
%TO.C,D31*%
X175985500Y-112903000D03*
X173010500Y-112903000D03*
%TD*%
D18*
%TO.C,R34*%
X130551500Y-112776000D03*
X132551500Y-112776000D03*
%TD*%
D19*
%TO.C,C16*%
X146184800Y-63246000D03*
X148259800Y-63246000D03*
%TD*%
D20*
%TO.C,SW3*%
X166867000Y-38914000D03*
D21*
X166867000Y-43914000D03*
X166867000Y-41414000D03*
D22*
X174367000Y-35814000D03*
X174367000Y-47014000D03*
D21*
X181367000Y-43914000D03*
X181367000Y-38914000D03*
%TD*%
D18*
%TO.C,R27*%
X92054500Y-93472000D03*
X94054500Y-93472000D03*
%TD*%
D14*
%TO.C,SW12*%
X111474500Y-103089200D03*
D15*
X112744500Y-100549200D03*
D16*
X116554500Y-103089200D03*
D15*
X119094500Y-98009200D03*
D14*
X121634500Y-103089200D03*
%TD*%
D17*
%TO.C,D25*%
X118110000Y-93472000D03*
X115135000Y-93472000D03*
%TD*%
D11*
%TO.C,H2*%
X203272444Y-112466680D03*
X203755718Y-111299954D03*
X203755718Y-113633406D03*
X204922444Y-110816680D03*
D12*
X204922444Y-112466680D03*
D11*
X204922444Y-114116680D03*
X206089170Y-111299954D03*
X206089170Y-113633406D03*
X206572444Y-112466680D03*
%TD*%
D14*
%TO.C,SW11*%
X92233500Y-103140000D03*
D15*
X93503500Y-100600000D03*
D16*
X97313500Y-103140000D03*
D15*
X99853500Y-98060000D03*
D14*
X102393500Y-103140000D03*
%TD*%
D17*
%TO.C,D30*%
X175985500Y-93472000D03*
X173010500Y-93472000D03*
%TD*%
D10*
%TO.C,J12*%
X171069000Y-61468000D03*
D13*
X173609000Y-61468000D03*
X176149000Y-61468000D03*
X178689000Y-61468000D03*
X181229000Y-61468000D03*
X183769000Y-61468000D03*
X186309000Y-61468000D03*
X188849000Y-61468000D03*
X191389000Y-61468000D03*
X193929000Y-61468000D03*
X196469000Y-61468000D03*
X199009000Y-61468000D03*
X201549000Y-61468000D03*
X204089000Y-61468000D03*
%TD*%
D10*
%TO.C,J9*%
X171069000Y-53848000D03*
D13*
X173609000Y-53848000D03*
X176149000Y-53848000D03*
X178689000Y-53848000D03*
X181229000Y-53848000D03*
X183769000Y-53848000D03*
X186309000Y-53848000D03*
X188849000Y-53848000D03*
X191389000Y-53848000D03*
X193929000Y-53848000D03*
X196469000Y-53848000D03*
X199009000Y-53848000D03*
X201549000Y-53848000D03*
X204089000Y-53848000D03*
%TD*%
D10*
%TO.C,J3*%
X72126000Y-67716000D03*
D13*
X69586000Y-67716000D03*
X67046000Y-67716000D03*
X64506000Y-67716000D03*
%TD*%
D19*
%TO.C,C15*%
X146177000Y-61087000D03*
X148252000Y-61087000D03*
%TD*%
D17*
%TO.C,D24*%
X118164000Y-112776000D03*
X115189000Y-112776000D03*
%TD*%
%TO.C,D18*%
X60161500Y-112826800D03*
X57186500Y-112826800D03*
%TD*%
%TO.C,D33*%
X195270500Y-112776000D03*
X192295500Y-112776000D03*
%TD*%
D14*
%TO.C,SW13*%
X130810000Y-83820000D03*
D15*
X132080000Y-81280000D03*
D16*
X135890000Y-83820000D03*
D15*
X138430000Y-78740000D03*
D14*
X140970000Y-83820000D03*
%TD*%
D18*
%TO.C,R25*%
X72761600Y-112826800D03*
X74761600Y-112826800D03*
%TD*%
D14*
%TO.C,SW6*%
X72898000Y-83820000D03*
D15*
X74168000Y-81280000D03*
D16*
X77978000Y-83820000D03*
D15*
X80518000Y-78740000D03*
D14*
X83058000Y-83820000D03*
%TD*%
D18*
%TO.C,R36*%
X149876000Y-112903000D03*
X151876000Y-112903000D03*
%TD*%
D23*
%TO.C,R54*%
X58166000Y-55483000D03*
X58166000Y-57483000D03*
%TD*%
D10*
%TO.C,J11*%
X171069000Y-64008000D03*
D13*
X173609000Y-64008000D03*
X176149000Y-64008000D03*
X178689000Y-64008000D03*
X181229000Y-64008000D03*
X183769000Y-64008000D03*
X186309000Y-64008000D03*
X188849000Y-64008000D03*
X191389000Y-64008000D03*
X193929000Y-64008000D03*
X196469000Y-64008000D03*
X199009000Y-64008000D03*
X201549000Y-64008000D03*
X204089000Y-64008000D03*
%TD*%
D23*
%TO.C,R52*%
X74168000Y-55515000D03*
X74168000Y-57515000D03*
%TD*%
D14*
%TO.C,SW15*%
X150114000Y-83845400D03*
D15*
X151384000Y-81305400D03*
D16*
X155194000Y-83845400D03*
D15*
X157734000Y-78765400D03*
D14*
X160274000Y-83845400D03*
%TD*%
D19*
%TO.C,C29*%
X164775500Y-63423800D03*
X166850500Y-63423800D03*
%TD*%
D17*
%TO.C,D32*%
X195289500Y-93472000D03*
X192314500Y-93472000D03*
%TD*%
%TO.C,D19*%
X60161500Y-93472000D03*
X57186500Y-93472000D03*
%TD*%
D20*
%TO.C,SW1*%
X128259000Y-38914000D03*
D21*
X128259000Y-43914000D03*
X128259000Y-41414000D03*
D22*
X135759000Y-35814000D03*
X135759000Y-47014000D03*
D21*
X142759000Y-43914000D03*
X142759000Y-38914000D03*
%TD*%
D17*
%TO.C,D20*%
X79567100Y-112826800D03*
X76592100Y-112826800D03*
%TD*%
D18*
%TO.C,R40*%
X188481000Y-112776000D03*
X190481000Y-112776000D03*
%TD*%
D14*
%TO.C,SW10*%
X72940500Y-103124000D03*
D15*
X74210500Y-100584000D03*
D16*
X78020500Y-103124000D03*
D15*
X80560500Y-98044000D03*
D14*
X83100500Y-103124000D03*
%TD*%
D19*
%TO.C,C31*%
X127999359Y-64058799D03*
X130074359Y-64058799D03*
%TD*%
D14*
%TO.C,SW16*%
X150118500Y-103165400D03*
D15*
X151388500Y-100625400D03*
D16*
X155198500Y-103165400D03*
D15*
X157738500Y-98085400D03*
D14*
X160278500Y-103165400D03*
%TD*%
D17*
%TO.C,D28*%
X156681500Y-93472000D03*
X153706500Y-93472000D03*
%TD*%
%TO.C,D26*%
X137341000Y-93472000D03*
X134366000Y-93472000D03*
%TD*%
D18*
%TO.C,R35*%
X149892000Y-93345000D03*
X151892000Y-93345000D03*
%TD*%
D10*
%TO.C,J13*%
X171069000Y-58928000D03*
D13*
X173609000Y-58928000D03*
X176149000Y-58928000D03*
X178689000Y-58928000D03*
X181229000Y-58928000D03*
X183769000Y-58928000D03*
X186309000Y-58928000D03*
X188849000Y-58928000D03*
X191389000Y-58928000D03*
X193929000Y-58928000D03*
X196469000Y-58928000D03*
X199009000Y-58928000D03*
X201549000Y-58928000D03*
X204089000Y-58928000D03*
%TD*%
D10*
%TO.C,J10*%
X171069000Y-66548000D03*
D13*
X173609000Y-66548000D03*
X176149000Y-66548000D03*
X178689000Y-66548000D03*
X181229000Y-66548000D03*
X183769000Y-66548000D03*
X186309000Y-66548000D03*
X188849000Y-66548000D03*
X191389000Y-66548000D03*
X193929000Y-66548000D03*
X196469000Y-66548000D03*
X199009000Y-66548000D03*
X201549000Y-66548000D03*
X204089000Y-66548000D03*
%TD*%
D23*
%TO.C,R48*%
X81153000Y-55515000D03*
X81153000Y-57515000D03*
%TD*%
D17*
%TO.C,D21*%
X79465500Y-93472000D03*
X76490500Y-93472000D03*
%TD*%
D19*
%TO.C,C32*%
X127994500Y-61899800D03*
X130069500Y-61899800D03*
%TD*%
D23*
%TO.C,R53*%
X60452000Y-55499000D03*
X60452000Y-57499000D03*
%TD*%
D19*
%TO.C,C35*%
X47984500Y-64770000D03*
X50059500Y-64770000D03*
%TD*%
D23*
%TO.C,R51*%
X71882000Y-55515000D03*
X71882000Y-57515000D03*
%TD*%
%TO.C,R50*%
X67310000Y-55499000D03*
X67310000Y-57499000D03*
%TD*%
D19*
%TO.C,C30*%
X164775500Y-61220800D03*
X166850500Y-61220800D03*
%TD*%
D17*
%TO.C,D27*%
X137341000Y-112776000D03*
X134366000Y-112776000D03*
%TD*%
D24*
%TO.C,U7*%
X152957000Y-61391800D03*
X152957000Y-62661800D03*
X152957000Y-63931800D03*
X152957000Y-65201800D03*
X152957000Y-66471800D03*
X152957000Y-67741800D03*
X152957000Y-69011800D03*
X152957000Y-70281800D03*
X162257000Y-70281800D03*
X162257000Y-69011800D03*
X162257000Y-67741800D03*
X162257000Y-66471800D03*
X162257000Y-65201800D03*
X162257000Y-63931800D03*
X162257000Y-62661800D03*
X162257000Y-61391800D03*
%TD*%
D14*
%TO.C,SW19*%
X188722000Y-83820000D03*
D15*
X189992000Y-81280000D03*
D16*
X193802000Y-83820000D03*
D15*
X196342000Y-78740000D03*
D14*
X198882000Y-83820000D03*
%TD*%
D10*
%TO.C,J8*%
X93980000Y-35433000D03*
%TD*%
D18*
%TO.C,R26*%
X72660000Y-93472000D03*
X74660000Y-93472000D03*
%TD*%
D14*
%TO.C,SW7*%
X92202000Y-83820000D03*
D15*
X93472000Y-81280000D03*
D16*
X97282000Y-83820000D03*
D15*
X99822000Y-78740000D03*
D14*
X102362000Y-83820000D03*
%TD*%
D20*
%TO.C,SW4*%
X186171000Y-38914000D03*
D21*
X186171000Y-43914000D03*
X186171000Y-41414000D03*
D22*
X193671000Y-35814000D03*
X193671000Y-47014000D03*
D21*
X200671000Y-43914000D03*
X200671000Y-38914000D03*
%TD*%
D18*
%TO.C,R38*%
X169069000Y-112887000D03*
X171069000Y-112887000D03*
%TD*%
D20*
%TO.C,SW2*%
X147563000Y-38914000D03*
D21*
X147563000Y-43914000D03*
X147563000Y-41414000D03*
D22*
X155063000Y-35814000D03*
X155063000Y-47014000D03*
D21*
X162063000Y-43914000D03*
X162063000Y-38914000D03*
%TD*%
D18*
%TO.C,R33*%
X130553000Y-93462000D03*
X132553000Y-93462000D03*
%TD*%
D10*
%TO.C,J5*%
X124206000Y-44831000D03*
D13*
X121666000Y-44831000D03*
X119126000Y-44831000D03*
X116586000Y-44831000D03*
%TD*%
D18*
%TO.C,R30*%
X111352000Y-93472000D03*
X113352000Y-93472000D03*
%TD*%
D23*
%TO.C,R46*%
X69596000Y-55515000D03*
X69596000Y-57515000D03*
%TD*%
D14*
%TO.C,SW18*%
X169438500Y-103124000D03*
D15*
X170708500Y-100584000D03*
D16*
X174518500Y-103124000D03*
D15*
X177058500Y-98044000D03*
D14*
X179598500Y-103124000D03*
%TD*%
D17*
%TO.C,D23*%
X98769500Y-112776000D03*
X95794500Y-112776000D03*
%TD*%
D25*
%TO.C,U8*%
X52592000Y-67056000D03*
X50292000Y-67056000D03*
D26*
X50292000Y-73356000D03*
D25*
X47992000Y-67056000D03*
%TD*%
D24*
%TO.C,U6*%
X116430000Y-62026800D03*
X116430000Y-63296800D03*
X116430000Y-64566800D03*
X116430000Y-65836800D03*
X116430000Y-67106800D03*
X116430000Y-68376800D03*
X116430000Y-69646800D03*
X116430000Y-70916800D03*
X125730000Y-70916800D03*
X125730000Y-69646800D03*
X125730000Y-68376800D03*
X125730000Y-67106800D03*
X125730000Y-65836800D03*
X125730000Y-64566800D03*
X125730000Y-63296800D03*
X125730000Y-62026800D03*
%TD*%
D23*
%TO.C,R49*%
X65024000Y-55515000D03*
X65024000Y-57515000D03*
%TD*%
D14*
%TO.C,SW8*%
X111512100Y-83820000D03*
D15*
X112782100Y-81280000D03*
D16*
X116592100Y-83820000D03*
D15*
X119132100Y-78740000D03*
D14*
X121672100Y-83820000D03*
%TD*%
%TO.C,SW17*%
X169418000Y-83820000D03*
D15*
X170688000Y-81280000D03*
D16*
X174498000Y-83820000D03*
D15*
X177038000Y-78740000D03*
D14*
X179578000Y-83820000D03*
%TD*%
D19*
%TO.C,C36*%
X55329000Y-73406000D03*
X57404000Y-73406000D03*
%TD*%
D14*
%TO.C,SW20*%
X188753500Y-103124000D03*
D15*
X190023500Y-100584000D03*
D16*
X193833500Y-103124000D03*
D15*
X196373500Y-98044000D03*
D14*
X198913500Y-103124000D03*
%TD*%
%TO.C,SW5*%
X53594000Y-83820000D03*
D15*
X54864000Y-81280000D03*
D16*
X58674000Y-83820000D03*
D15*
X61214000Y-78740000D03*
D14*
X63754000Y-83820000D03*
%TD*%
D23*
%TO.C,R32*%
X62738000Y-55515000D03*
X62738000Y-57515000D03*
%TD*%
D18*
%TO.C,R37*%
X169069000Y-93472000D03*
X171069000Y-93472000D03*
%TD*%
D24*
%TO.C,U5*%
X134364200Y-63296800D03*
X134364200Y-64566800D03*
X134364200Y-65836800D03*
X134364200Y-67106800D03*
X134364200Y-68376800D03*
X134364200Y-69646800D03*
X134364200Y-70916800D03*
X134364200Y-72186800D03*
X143664200Y-72186800D03*
X143664200Y-70916800D03*
X143664200Y-69646800D03*
X143664200Y-68376800D03*
X143664200Y-67106800D03*
X143664200Y-65836800D03*
X143664200Y-64566800D03*
X143664200Y-63296800D03*
%TD*%
D18*
%TO.C,R29*%
X111358500Y-112776000D03*
X113358500Y-112776000D03*
%TD*%
D17*
%TO.C,D22*%
X98769500Y-93472000D03*
X95794500Y-93472000D03*
%TD*%
%TO.C,D29*%
X156732300Y-112877600D03*
X153757300Y-112877600D03*
%TD*%
D18*
%TO.C,R24*%
X53356000Y-93472000D03*
X55356000Y-93472000D03*
%TD*%
%TO.C,R39*%
X188484000Y-93472000D03*
X190484000Y-93472000D03*
%TD*%
D23*
%TO.C,R47*%
X78867000Y-55483000D03*
X78867000Y-57483000D03*
%TD*%
%TO.C,R31*%
X76454000Y-55499000D03*
X76454000Y-57499000D03*
%TD*%
D14*
%TO.C,SW14*%
X130821000Y-103124000D03*
D15*
X132091000Y-100584000D03*
D16*
X135901000Y-103124000D03*
D15*
X138441000Y-98044000D03*
D14*
X140981000Y-103124000D03*
%TD*%
D18*
%TO.C,R28*%
X91964000Y-112776000D03*
X93964000Y-112776000D03*
%TD*%
D27*
%TO.C,C37*%
X55372000Y-70142500D03*
X55372000Y-67017500D03*
%TD*%
D11*
%TO.C,H1*%
X45061228Y-112476059D03*
X45544502Y-111309333D03*
X45544502Y-113642785D03*
X46711228Y-110826059D03*
D12*
X46711228Y-112476059D03*
D11*
X46711228Y-114126059D03*
X47877954Y-111309333D03*
X47877954Y-113642785D03*
X48361228Y-112476059D03*
%TD*%
%TO.C,H3*%
X45062274Y-35814000D03*
X45545548Y-34647274D03*
X45545548Y-36980726D03*
X46712274Y-34164000D03*
D12*
X46712274Y-35814000D03*
D11*
X46712274Y-37464000D03*
X47879000Y-34647274D03*
X47879000Y-36980726D03*
X48362274Y-35814000D03*
%TD*%
D18*
%TO.C,R23*%
X53372000Y-112826800D03*
X55372000Y-112826800D03*
%TD*%
D23*
%TO.C,R45*%
X55880000Y-55483000D03*
X55880000Y-57483000D03*
%TD*%
D10*
%TO.C,J6*%
X99060000Y-61976000D03*
D13*
X101600000Y-61976000D03*
X104140000Y-61976000D03*
X106680000Y-61976000D03*
X109220000Y-61976000D03*
X111760000Y-61976000D03*
%TD*%
D28*
%TO.C,U1*%
X45850000Y-50361000D03*
D29*
X48880000Y-50661000D03*
X48880000Y-55511000D03*
D28*
X45850000Y-55811000D03*
D13*
X45720000Y-44196000D03*
X48260000Y-44196000D03*
D10*
X50800000Y-44196000D03*
D13*
X53340000Y-44196000D03*
X55880000Y-44196000D03*
X58420000Y-44196000D03*
X60960000Y-44196000D03*
D10*
X63500000Y-44196000D03*
D13*
X66040000Y-44196000D03*
X68580000Y-44196000D03*
X71120000Y-44196000D03*
X73660000Y-44196000D03*
D10*
X76200000Y-44196000D03*
D13*
X78740000Y-44196000D03*
X81280000Y-44196000D03*
X83820000Y-44196000D03*
X86360000Y-44196000D03*
D10*
X88900000Y-44196000D03*
D13*
X91440000Y-44196000D03*
X93980000Y-44196000D03*
X93980000Y-61976000D03*
X91440000Y-61976000D03*
D10*
X88900000Y-61976000D03*
D13*
X86360000Y-61976000D03*
X83820000Y-61976000D03*
X81280000Y-61976000D03*
X78740000Y-61976000D03*
D10*
X76200000Y-61976000D03*
D13*
X73660000Y-61976000D03*
X71120000Y-61976000D03*
X68580000Y-61976000D03*
X66040000Y-61976000D03*
D10*
X63500000Y-61976000D03*
D13*
X60960000Y-61976000D03*
X58420000Y-61976000D03*
X55880000Y-61976000D03*
X53340000Y-61976000D03*
D10*
X50800000Y-61976000D03*
D13*
X48260000Y-61976000D03*
X45720000Y-61976000D03*
%TD*%
D10*
%TO.C,J1*%
X97653000Y-48006000D03*
D13*
X97653000Y-45466000D03*
X97653000Y-42926000D03*
X97653000Y-40386000D03*
X97653000Y-37846000D03*
X97653000Y-35306000D03*
%TD*%
D10*
%TO.C,J4*%
X124196000Y-48768000D03*
D13*
X121656000Y-48768000D03*
X119116000Y-48768000D03*
X116576000Y-48768000D03*
X114036000Y-48768000D03*
X111496000Y-48768000D03*
X108956000Y-48768000D03*
X106416000Y-48768000D03*
X103876000Y-48768000D03*
%TD*%
M02*
