%TF.GenerationSoftware,KiCad,Pcbnew,8.0.6*%
%TF.CreationDate,2025-04-15T16:38:21+01:00*%
%TF.ProjectId,PicoSynth,5069636f-5379-46e7-9468-2e6b69636164,rev?*%
%TF.SameCoordinates,Original*%
%TF.FileFunction,Soldermask,Bot*%
%TF.FilePolarity,Negative*%
%FSLAX46Y46*%
G04 Gerber Fmt 4.6, Leading zero omitted, Abs format (unit mm)*
G04 Created by KiCad (PCBNEW 8.0.6) date 2025-04-15 16:38:21*
%MOMM*%
%LPD*%
G01*
G04 APERTURE LIST*
G04 Aperture macros list*
%AMRoundRect*
0 Rectangle with rounded corners*
0 $1 Rounding radius*
0 $2 $3 $4 $5 $6 $7 $8 $9 X,Y pos of 4 corners*
0 Add a 4 corners polygon primitive as box body*
4,1,4,$2,$3,$4,$5,$6,$7,$8,$9,$2,$3,0*
0 Add four circle primitives for the rounded corners*
1,1,$1+$1,$2,$3*
1,1,$1+$1,$4,$5*
1,1,$1+$1,$6,$7*
1,1,$1+$1,$8,$9*
0 Add four rect primitives between the rounded corners*
20,1,$1+$1,$2,$3,$4,$5,0*
20,1,$1+$1,$4,$5,$6,$7,0*
20,1,$1+$1,$6,$7,$8,$9,0*
20,1,$1+$1,$8,$9,$2,$3,0*%
%AMFreePoly0*
4,1,19,0.550000,-0.750000,0.000000,-0.750000,0.000000,-0.744911,-0.071157,-0.744911,-0.207708,-0.704816,-0.327430,-0.627875,-0.420627,-0.520320,-0.479746,-0.390866,-0.500000,-0.250000,-0.500000,0.250000,-0.479746,0.390866,-0.420627,0.520320,-0.327430,0.627875,-0.207708,0.704816,-0.071157,0.744911,0.000000,0.744911,0.000000,0.750000,0.550000,0.750000,0.550000,-0.750000,0.550000,-0.750000,
$1*%
%AMFreePoly1*
4,1,19,0.000000,0.744911,0.071157,0.744911,0.207708,0.704816,0.327430,0.627875,0.420627,0.520320,0.479746,0.390866,0.500000,0.250000,0.500000,-0.250000,0.479746,-0.390866,0.420627,-0.520320,0.327430,-0.627875,0.207708,-0.704816,0.071157,-0.744911,0.000000,-0.744911,0.000000,-0.750000,-0.550000,-0.750000,-0.550000,0.750000,0.000000,0.750000,0.000000,0.744911,0.000000,0.744911,
$1*%
%AMFreePoly2*
4,1,19,0.500000,-0.750000,0.000000,-0.750000,0.000000,-0.744911,-0.071157,-0.744911,-0.207708,-0.704816,-0.327430,-0.627875,-0.420627,-0.520320,-0.479746,-0.390866,-0.500000,-0.250000,-0.500000,0.250000,-0.479746,0.390866,-0.420627,0.520320,-0.327430,0.627875,-0.207708,0.704816,-0.071157,0.744911,0.000000,0.744911,0.000000,0.750000,0.500000,0.750000,0.500000,-0.750000,0.500000,-0.750000,
$1*%
%AMFreePoly3*
4,1,19,0.000000,0.744911,0.071157,0.744911,0.207708,0.704816,0.327430,0.627875,0.420627,0.520320,0.479746,0.390866,0.500000,0.250000,0.500000,-0.250000,0.479746,-0.390866,0.420627,-0.520320,0.327430,-0.627875,0.207708,-0.704816,0.071157,-0.744911,0.000000,-0.744911,0.000000,-0.750000,-0.500000,-0.750000,-0.500000,0.750000,0.000000,0.750000,0.000000,0.744911,0.000000,0.744911,
$1*%
G04 Aperture macros list end*
%ADD10R,1.700000X1.700000*%
%ADD11C,0.700000*%
%ADD12C,4.400000*%
%ADD13O,1.700000X1.700000*%
%ADD14C,1.700000*%
%ADD15C,3.000000*%
%ADD16C,4.000000*%
%ADD17R,2.550000X2.500000*%
%ADD18R,2.000000X2.000000*%
%ADD19C,2.000000*%
%ADD20C,3.200000*%
%ADD21RoundRect,0.250000X-0.450000X0.325000X-0.450000X-0.325000X0.450000X-0.325000X0.450000X0.325000X0*%
%ADD22RoundRect,0.213760X0.526240X-0.426240X0.526240X0.426240X-0.526240X0.426240X-0.526240X-0.426240X0*%
%ADD23RoundRect,0.213350X0.551650X-0.414150X0.551650X0.414150X-0.551650X0.414150X-0.551650X-0.414150X0*%
%ADD24FreePoly0,90.000000*%
%ADD25R,1.500000X1.000000*%
%ADD26FreePoly1,90.000000*%
%ADD27FreePoly0,0.000000*%
%ADD28R,1.000000X1.500000*%
%ADD29FreePoly1,0.000000*%
%ADD30RoundRect,0.213760X0.426240X0.526240X-0.426240X0.526240X-0.426240X-0.526240X0.426240X-0.526240X0*%
%ADD31RoundRect,0.213760X-0.526240X0.426240X-0.526240X-0.426240X0.526240X-0.426240X0.526240X0.426240X0*%
%ADD32O,1.800000X1.800000*%
%ADD33O,1.500000X1.500000*%
%ADD34R,1.700000X3.500000*%
%ADD35FreePoly2,0.000000*%
%ADD36FreePoly3,0.000000*%
%ADD37RoundRect,0.213350X-0.414150X-0.551650X0.414150X-0.551650X0.414150X0.551650X-0.414150X0.551650X0*%
G04 APERTURE END LIST*
D10*
%TO.C,J7*%
X147269200Y-66548000D03*
%TD*%
D11*
%TO.C,H4*%
X203277200Y-35814000D03*
X203760474Y-34647274D03*
X203760474Y-36980726D03*
X204927200Y-34164000D03*
D12*
X204927200Y-35814000D03*
D11*
X204927200Y-37464000D03*
X206093926Y-34647274D03*
X206093926Y-36980726D03*
X206577200Y-35814000D03*
%TD*%
D10*
%TO.C,J14*%
X171069000Y-56388000D03*
D13*
X173609000Y-56388000D03*
X176149000Y-56388000D03*
X178689000Y-56388000D03*
X181229000Y-56388000D03*
X183769000Y-56388000D03*
X186309000Y-56388000D03*
X188849000Y-56388000D03*
X191389000Y-56388000D03*
X193929000Y-56388000D03*
X196469000Y-56388000D03*
X199009000Y-56388000D03*
X201549000Y-56388000D03*
X204089000Y-56388000D03*
%TD*%
D14*
%TO.C,SW9*%
X53636500Y-103124000D03*
D15*
X54906500Y-100584000D03*
D16*
X58716500Y-103124000D03*
D15*
X61256500Y-98044000D03*
D14*
X63796500Y-103124000D03*
D17*
X51306500Y-100584000D03*
X64731500Y-98044000D03*
%TD*%
D18*
%TO.C,SW3*%
X166867000Y-38914000D03*
D19*
X166867000Y-43914000D03*
X166867000Y-41414000D03*
D20*
X174367000Y-35814000D03*
X174367000Y-47014000D03*
D19*
X181367000Y-43914000D03*
X181367000Y-38914000D03*
%TD*%
D14*
%TO.C,SW12*%
X111474500Y-103089200D03*
D15*
X112744500Y-100549200D03*
D16*
X116554500Y-103089200D03*
D15*
X119094500Y-98009200D03*
D14*
X121634500Y-103089200D03*
D17*
X109144500Y-100549200D03*
X122569500Y-98009200D03*
%TD*%
D11*
%TO.C,H2*%
X203272444Y-112466680D03*
X203755718Y-111299954D03*
X203755718Y-113633406D03*
X204922444Y-110816680D03*
D12*
X204922444Y-112466680D03*
D11*
X204922444Y-114116680D03*
X206089170Y-111299954D03*
X206089170Y-113633406D03*
X206572444Y-112466680D03*
%TD*%
D14*
%TO.C,SW11*%
X92233500Y-103140000D03*
D15*
X93503500Y-100600000D03*
D16*
X97313500Y-103140000D03*
D15*
X99853500Y-98060000D03*
D14*
X102393500Y-103140000D03*
D17*
X89903500Y-100600000D03*
X103328500Y-98060000D03*
%TD*%
D10*
%TO.C,J12*%
X171069000Y-61468000D03*
D13*
X173609000Y-61468000D03*
X176149000Y-61468000D03*
X178689000Y-61468000D03*
X181229000Y-61468000D03*
X183769000Y-61468000D03*
X186309000Y-61468000D03*
X188849000Y-61468000D03*
X191389000Y-61468000D03*
X193929000Y-61468000D03*
X196469000Y-61468000D03*
X199009000Y-61468000D03*
X201549000Y-61468000D03*
X204089000Y-61468000D03*
%TD*%
D10*
%TO.C,J9*%
X171069000Y-53848000D03*
D13*
X173609000Y-53848000D03*
X176149000Y-53848000D03*
X178689000Y-53848000D03*
X181229000Y-53848000D03*
X183769000Y-53848000D03*
X186309000Y-53848000D03*
X188849000Y-53848000D03*
X191389000Y-53848000D03*
X193929000Y-53848000D03*
X196469000Y-53848000D03*
X199009000Y-53848000D03*
X201549000Y-53848000D03*
X204089000Y-53848000D03*
%TD*%
D10*
%TO.C,J3*%
X72126000Y-67716000D03*
D13*
X69586000Y-67716000D03*
X67046000Y-67716000D03*
X64506000Y-67716000D03*
%TD*%
D14*
%TO.C,SW13*%
X130810000Y-83820000D03*
D15*
X132080000Y-81280000D03*
D16*
X135890000Y-83820000D03*
D15*
X138430000Y-78740000D03*
D14*
X140970000Y-83820000D03*
D17*
X128480000Y-81280000D03*
X141905000Y-78740000D03*
%TD*%
D14*
%TO.C,SW6*%
X72898000Y-83820000D03*
D15*
X74168000Y-81280000D03*
D16*
X77978000Y-83820000D03*
D15*
X80518000Y-78740000D03*
D14*
X83058000Y-83820000D03*
D17*
X70568000Y-81280000D03*
X83993000Y-78740000D03*
%TD*%
D10*
%TO.C,J11*%
X171069000Y-64008000D03*
D13*
X173609000Y-64008000D03*
X176149000Y-64008000D03*
X178689000Y-64008000D03*
X181229000Y-64008000D03*
X183769000Y-64008000D03*
X186309000Y-64008000D03*
X188849000Y-64008000D03*
X191389000Y-64008000D03*
X193929000Y-64008000D03*
X196469000Y-64008000D03*
X199009000Y-64008000D03*
X201549000Y-64008000D03*
X204089000Y-64008000D03*
%TD*%
D14*
%TO.C,SW15*%
X150114000Y-83845400D03*
D15*
X151384000Y-81305400D03*
D16*
X155194000Y-83845400D03*
D15*
X157734000Y-78765400D03*
D14*
X160274000Y-83845400D03*
D17*
X147784000Y-81305400D03*
X161209000Y-78765400D03*
%TD*%
D18*
%TO.C,SW1*%
X128259000Y-38914000D03*
D19*
X128259000Y-43914000D03*
X128259000Y-41414000D03*
D20*
X135759000Y-35814000D03*
X135759000Y-47014000D03*
D19*
X142759000Y-43914000D03*
X142759000Y-38914000D03*
%TD*%
D14*
%TO.C,SW10*%
X72940500Y-103124000D03*
D15*
X74210500Y-100584000D03*
D16*
X78020500Y-103124000D03*
D15*
X80560500Y-98044000D03*
D14*
X83100500Y-103124000D03*
D17*
X70610500Y-100584000D03*
X84035500Y-98044000D03*
%TD*%
D14*
%TO.C,SW16*%
X150118500Y-103165400D03*
D15*
X151388500Y-100625400D03*
D16*
X155198500Y-103165400D03*
D15*
X157738500Y-98085400D03*
D14*
X160278500Y-103165400D03*
D17*
X147788500Y-100625400D03*
X161213500Y-98085400D03*
%TD*%
D10*
%TO.C,J13*%
X171069000Y-58928000D03*
D13*
X173609000Y-58928000D03*
X176149000Y-58928000D03*
X178689000Y-58928000D03*
X181229000Y-58928000D03*
X183769000Y-58928000D03*
X186309000Y-58928000D03*
X188849000Y-58928000D03*
X191389000Y-58928000D03*
X193929000Y-58928000D03*
X196469000Y-58928000D03*
X199009000Y-58928000D03*
X201549000Y-58928000D03*
X204089000Y-58928000D03*
%TD*%
D10*
%TO.C,J10*%
X171069000Y-66548000D03*
D13*
X173609000Y-66548000D03*
X176149000Y-66548000D03*
X178689000Y-66548000D03*
X181229000Y-66548000D03*
X183769000Y-66548000D03*
X186309000Y-66548000D03*
X188849000Y-66548000D03*
X191389000Y-66548000D03*
X193929000Y-66548000D03*
X196469000Y-66548000D03*
X199009000Y-66548000D03*
X201549000Y-66548000D03*
X204089000Y-66548000D03*
%TD*%
D14*
%TO.C,SW19*%
X188722000Y-83820000D03*
D15*
X189992000Y-81280000D03*
D16*
X193802000Y-83820000D03*
D15*
X196342000Y-78740000D03*
D14*
X198882000Y-83820000D03*
D17*
X186392000Y-81280000D03*
X199817000Y-78740000D03*
%TD*%
D10*
%TO.C,J8*%
X93980000Y-35433000D03*
%TD*%
D14*
%TO.C,SW7*%
X92202000Y-83820000D03*
D15*
X93472000Y-81280000D03*
D16*
X97282000Y-83820000D03*
D15*
X99822000Y-78740000D03*
D14*
X102362000Y-83820000D03*
D17*
X89872000Y-81280000D03*
X103297000Y-78740000D03*
%TD*%
D18*
%TO.C,SW4*%
X186171000Y-38914000D03*
D19*
X186171000Y-43914000D03*
X186171000Y-41414000D03*
D20*
X193671000Y-35814000D03*
X193671000Y-47014000D03*
D19*
X200671000Y-43914000D03*
X200671000Y-38914000D03*
%TD*%
D18*
%TO.C,SW2*%
X147563000Y-38914000D03*
D19*
X147563000Y-43914000D03*
X147563000Y-41414000D03*
D20*
X155063000Y-35814000D03*
X155063000Y-47014000D03*
D19*
X162063000Y-43914000D03*
X162063000Y-38914000D03*
%TD*%
D10*
%TO.C,J5*%
X124206000Y-44831000D03*
D13*
X121666000Y-44831000D03*
X119126000Y-44831000D03*
X116586000Y-44831000D03*
%TD*%
D14*
%TO.C,SW18*%
X169438500Y-103124000D03*
D15*
X170708500Y-100584000D03*
D16*
X174518500Y-103124000D03*
D15*
X177058500Y-98044000D03*
D14*
X179598500Y-103124000D03*
D17*
X167108500Y-100584000D03*
X180533500Y-98044000D03*
%TD*%
D14*
%TO.C,SW8*%
X111512100Y-83820000D03*
D15*
X112782100Y-81280000D03*
D16*
X116592100Y-83820000D03*
D15*
X119132100Y-78740000D03*
D14*
X121672100Y-83820000D03*
D17*
X109182100Y-81280000D03*
X122607100Y-78740000D03*
%TD*%
D14*
%TO.C,SW17*%
X169418000Y-83820000D03*
D15*
X170688000Y-81280000D03*
D16*
X174498000Y-83820000D03*
D15*
X177038000Y-78740000D03*
D14*
X179578000Y-83820000D03*
D17*
X167088000Y-81280000D03*
X180513000Y-78740000D03*
%TD*%
D14*
%TO.C,SW20*%
X188753500Y-103124000D03*
D15*
X190023500Y-100584000D03*
D16*
X193833500Y-103124000D03*
D15*
X196373500Y-98044000D03*
D14*
X198913500Y-103124000D03*
D17*
X186423500Y-100584000D03*
X199848500Y-98044000D03*
%TD*%
D14*
%TO.C,SW5*%
X53594000Y-83820000D03*
D15*
X54864000Y-81280000D03*
D16*
X58674000Y-83820000D03*
D15*
X61214000Y-78740000D03*
D14*
X63754000Y-83820000D03*
D17*
X51264000Y-81280000D03*
X64689000Y-78740000D03*
%TD*%
D14*
%TO.C,SW14*%
X130821000Y-103124000D03*
D15*
X132091000Y-100584000D03*
D16*
X135901000Y-103124000D03*
D15*
X138441000Y-98044000D03*
D14*
X140981000Y-103124000D03*
D17*
X128491000Y-100584000D03*
X141916000Y-98044000D03*
%TD*%
D11*
%TO.C,H1*%
X45061228Y-112476059D03*
X45544502Y-111309333D03*
X45544502Y-113642785D03*
X46711228Y-110826059D03*
D12*
X46711228Y-112476059D03*
D11*
X46711228Y-114126059D03*
X47877954Y-111309333D03*
X47877954Y-113642785D03*
X48361228Y-112476059D03*
%TD*%
%TO.C,H3*%
X45062274Y-35814000D03*
X45545548Y-34647274D03*
X45545548Y-36980726D03*
X46712274Y-34164000D03*
D12*
X46712274Y-35814000D03*
D11*
X46712274Y-37464000D03*
X47879000Y-34647274D03*
X47879000Y-36980726D03*
X48362274Y-35814000D03*
%TD*%
D21*
%TO.C,D14*%
X180467000Y-74133600D03*
X180467000Y-76183600D03*
%TD*%
D22*
%TO.C,R15*%
X150368000Y-40874000D03*
X150368000Y-38874000D03*
%TD*%
D21*
%TO.C,D13*%
X161294500Y-93507400D03*
X161294500Y-95557400D03*
%TD*%
D23*
%TO.C,C27*%
X66040000Y-40386000D03*
X66040000Y-38311000D03*
%TD*%
D21*
%TO.C,D8*%
X103378000Y-93463000D03*
X103378000Y-95513000D03*
%TD*%
D24*
%TO.C,JP14*%
X57658000Y-71658000D03*
D25*
X57658000Y-70358000D03*
D26*
X57658000Y-69058000D03*
%TD*%
D27*
%TO.C,JP8*%
X113068000Y-58597800D03*
D28*
X114368000Y-58597800D03*
D29*
X115668000Y-58597800D03*
%TD*%
D21*
%TO.C,D11*%
X141859000Y-93463000D03*
X141859000Y-95513000D03*
%TD*%
D22*
%TO.C,R13*%
X166878000Y-48256000D03*
X166878000Y-46256000D03*
%TD*%
D23*
%TO.C,C24*%
X71120000Y-40407500D03*
X71120000Y-38332500D03*
%TD*%
D27*
%TO.C,JP7*%
X141651200Y-60629800D03*
D28*
X142951200Y-60629800D03*
D29*
X144251200Y-60629800D03*
%TD*%
D10*
%TO.C,J6*%
X99060000Y-61976000D03*
D13*
X101600000Y-61976000D03*
X104140000Y-61976000D03*
X106680000Y-61976000D03*
X109220000Y-61976000D03*
X111760000Y-61976000D03*
%TD*%
D23*
%TO.C,C25*%
X50800000Y-40386000D03*
X50800000Y-38311000D03*
%TD*%
D21*
%TO.C,D9*%
X122656600Y-93463000D03*
X122656600Y-95513000D03*
%TD*%
D30*
%TO.C,R8*%
X141217400Y-68275200D03*
X139217400Y-68275200D03*
%TD*%
D31*
%TO.C,R14*%
X181356000Y-46256000D03*
X181356000Y-48256000D03*
%TD*%
D27*
%TO.C,JP13*%
X160345600Y-58674000D03*
D28*
X161645600Y-58674000D03*
D29*
X162945600Y-58674000D03*
%TD*%
D32*
%TO.C,U1*%
X45850000Y-50361000D03*
D33*
X48880000Y-50661000D03*
X48880000Y-55511000D03*
D32*
X45850000Y-55811000D03*
D13*
X45720000Y-44196000D03*
D34*
X45720000Y-43296000D03*
D13*
X48260000Y-44196000D03*
D34*
X48260000Y-43296000D03*
D10*
X50800000Y-44196000D03*
D34*
X50800000Y-43296000D03*
D13*
X53340000Y-44196000D03*
D34*
X53340000Y-43296000D03*
D13*
X55880000Y-44196000D03*
D34*
X55880000Y-43296000D03*
D13*
X58420000Y-44196000D03*
D34*
X58420000Y-43296000D03*
D13*
X60960000Y-44196000D03*
D34*
X60960000Y-43296000D03*
D10*
X63500000Y-44196000D03*
D34*
X63500000Y-43296000D03*
D13*
X66040000Y-44196000D03*
D34*
X66040000Y-43296000D03*
D13*
X68580000Y-44196000D03*
D34*
X68580000Y-43296000D03*
D13*
X71120000Y-44196000D03*
D34*
X71120000Y-43296000D03*
D13*
X73660000Y-44196000D03*
D34*
X73660000Y-43296000D03*
D10*
X76200000Y-44196000D03*
D34*
X76200000Y-43296000D03*
D13*
X78740000Y-44196000D03*
D34*
X78740000Y-43296000D03*
D13*
X81280000Y-44196000D03*
D34*
X81280000Y-43296000D03*
D13*
X83820000Y-44196000D03*
D34*
X83820000Y-43296000D03*
D13*
X86360000Y-44196000D03*
D34*
X86360000Y-43296000D03*
D10*
X88900000Y-44196000D03*
D34*
X88900000Y-43296000D03*
D13*
X91440000Y-44196000D03*
D34*
X91440000Y-43296000D03*
D13*
X93980000Y-44196000D03*
D34*
X93980000Y-43296000D03*
D13*
X93980000Y-61976000D03*
D34*
X93980000Y-62876000D03*
D13*
X91440000Y-61976000D03*
D34*
X91440000Y-62876000D03*
D10*
X88900000Y-61976000D03*
D34*
X88900000Y-62876000D03*
D13*
X86360000Y-61976000D03*
D34*
X86360000Y-62876000D03*
D13*
X83820000Y-61976000D03*
D34*
X83820000Y-62876000D03*
D13*
X81280000Y-61976000D03*
D34*
X81280000Y-62876000D03*
D13*
X78740000Y-61976000D03*
D34*
X78740000Y-62876000D03*
D10*
X76200000Y-61976000D03*
D34*
X76200000Y-62876000D03*
D13*
X73660000Y-61976000D03*
D34*
X73660000Y-62876000D03*
D13*
X71120000Y-61976000D03*
D34*
X71120000Y-62876000D03*
D13*
X68580000Y-61976000D03*
D34*
X68580000Y-62876000D03*
D13*
X66040000Y-61976000D03*
D34*
X66040000Y-62876000D03*
D10*
X63500000Y-61976000D03*
D34*
X63500000Y-62876000D03*
D13*
X60960000Y-61976000D03*
D34*
X60960000Y-62876000D03*
D13*
X58420000Y-61976000D03*
D34*
X58420000Y-62876000D03*
D13*
X55880000Y-61976000D03*
D34*
X55880000Y-62876000D03*
D13*
X53340000Y-61976000D03*
D34*
X53340000Y-62876000D03*
D10*
X50800000Y-61976000D03*
D34*
X50800000Y-62876000D03*
D13*
X48260000Y-61976000D03*
D34*
X48260000Y-62876000D03*
D13*
X45720000Y-61976000D03*
D34*
X45720000Y-62876000D03*
%TD*%
D23*
%TO.C,C23*%
X68580000Y-40386000D03*
X68580000Y-38311000D03*
%TD*%
D21*
%TO.C,D4*%
X103360900Y-74199000D03*
X103360900Y-76249000D03*
%TD*%
%TO.C,D10*%
X142240000Y-74133600D03*
X142240000Y-76183600D03*
%TD*%
D27*
%TO.C,JP12*%
X155108600Y-58674000D03*
D28*
X156408600Y-58674000D03*
D29*
X157708600Y-58674000D03*
%TD*%
D23*
%TO.C,C20*%
X58420000Y-40386000D03*
X58420000Y-38311000D03*
%TD*%
%TO.C,C26*%
X53340000Y-40386000D03*
X53340000Y-38311000D03*
%TD*%
D31*
%TO.C,R20*%
X200660000Y-46240000D03*
X200660000Y-48240000D03*
%TD*%
D21*
%TO.C,D15*%
X180487500Y-93355000D03*
X180487500Y-95405000D03*
%TD*%
D22*
%TO.C,R22*%
X123063000Y-69945000D03*
X123063000Y-67945000D03*
%TD*%
D21*
%TO.C,D12*%
X161290000Y-74159000D03*
X161290000Y-76209000D03*
%TD*%
D22*
%TO.C,R11*%
X169672000Y-40874000D03*
X169672000Y-38874000D03*
%TD*%
D21*
%TO.C,D7*%
X84085000Y-93397600D03*
X84085000Y-95447600D03*
%TD*%
%TO.C,D3*%
X83951900Y-74159000D03*
X83951900Y-76209000D03*
%TD*%
D31*
%TO.C,R19*%
X162052000Y-46141000D03*
X162052000Y-48141000D03*
%TD*%
D23*
%TO.C,C17*%
X73660000Y-40407500D03*
X73660000Y-38332500D03*
%TD*%
D22*
%TO.C,R18*%
X186182000Y-48256000D03*
X186182000Y-46256000D03*
%TD*%
D23*
%TO.C,C19*%
X78740000Y-40386000D03*
X78740000Y-38311000D03*
%TD*%
%TO.C,C22*%
X55880000Y-40386000D03*
X55880000Y-38311000D03*
%TD*%
D21*
%TO.C,D16*%
X199898000Y-74133600D03*
X199898000Y-76183600D03*
%TD*%
D31*
%TO.C,R12*%
X142733000Y-46141000D03*
X142733000Y-48141000D03*
%TD*%
D35*
%TO.C,JP15*%
X188184000Y-51409600D03*
D36*
X189484000Y-51409600D03*
%TD*%
D27*
%TO.C,JP11*%
X149901600Y-58674000D03*
D28*
X151201600Y-58674000D03*
D29*
X152501600Y-58674000D03*
%TD*%
D27*
%TO.C,JP9*%
X118207000Y-58597800D03*
D28*
X119507000Y-58597800D03*
D29*
X120807000Y-58597800D03*
%TD*%
D10*
%TO.C,J1*%
X97653000Y-48006000D03*
D13*
X97653000Y-45466000D03*
X97653000Y-42926000D03*
X97653000Y-40386000D03*
X97653000Y-37846000D03*
X97653000Y-35306000D03*
%TD*%
D30*
%TO.C,R7*%
X141217400Y-70256400D03*
X139217400Y-70256400D03*
%TD*%
D21*
%TO.C,D6*%
X64770000Y-93463000D03*
X64770000Y-95513000D03*
%TD*%
D27*
%TO.C,JP6*%
X136444200Y-60629800D03*
D28*
X137744200Y-60629800D03*
D29*
X139044200Y-60629800D03*
%TD*%
D22*
%TO.C,R10*%
X131064000Y-40924800D03*
X131064000Y-38924800D03*
%TD*%
%TO.C,R17*%
X188976000Y-40890000D03*
X188976000Y-38890000D03*
%TD*%
D27*
%TO.C,JP5*%
X131267200Y-60629800D03*
D28*
X132567200Y-60629800D03*
D29*
X133867200Y-60629800D03*
%TD*%
D21*
%TO.C,D5*%
X122682000Y-74150000D03*
X122682000Y-76200000D03*
%TD*%
%TO.C,D2*%
X64647900Y-74228000D03*
X64647900Y-76278000D03*
%TD*%
D22*
%TO.C,R21*%
X120777000Y-69945000D03*
X120777000Y-67945000D03*
%TD*%
%TO.C,R16*%
X147574000Y-48240000D03*
X147574000Y-46240000D03*
%TD*%
D23*
%TO.C,C18*%
X81280000Y-40386000D03*
X81280000Y-38311000D03*
%TD*%
D27*
%TO.C,JP10*%
X123317000Y-58597800D03*
D28*
X124617000Y-58597800D03*
D29*
X125917000Y-58597800D03*
%TD*%
D23*
%TO.C,C21*%
X60833000Y-40386000D03*
X60833000Y-38311000D03*
%TD*%
D37*
%TO.C,C28*%
X45720000Y-40259000D03*
X47795000Y-40259000D03*
%TD*%
D10*
%TO.C,J4*%
X124196000Y-48768000D03*
D13*
X121656000Y-48768000D03*
X119116000Y-48768000D03*
X116576000Y-48768000D03*
X114036000Y-48768000D03*
X111496000Y-48768000D03*
X108956000Y-48768000D03*
X106416000Y-48768000D03*
X103876000Y-48768000D03*
%TD*%
D22*
%TO.C,R9*%
X128270000Y-48256000D03*
X128270000Y-46256000D03*
%TD*%
D21*
%TO.C,D17*%
X199879000Y-93336000D03*
X199879000Y-95386000D03*
%TD*%
M02*
