%TF.GenerationSoftware,KiCad,Pcbnew,8.0.6*%
%TF.CreationDate,2025-04-15T16:38:21+01:00*%
%TF.ProjectId,PicoSynth,5069636f-5379-46e7-9468-2e6b69636164,rev?*%
%TF.SameCoordinates,Original*%
%TF.FileFunction,Paste,Bot*%
%TF.FilePolarity,Positive*%
%FSLAX46Y46*%
G04 Gerber Fmt 4.6, Leading zero omitted, Abs format (unit mm)*
G04 Created by KiCad (PCBNEW 8.0.6) date 2025-04-15 16:38:21*
%MOMM*%
%LPD*%
G01*
G04 APERTURE LIST*
G04 Aperture macros list*
%AMRoundRect*
0 Rectangle with rounded corners*
0 $1 Rounding radius*
0 $2 $3 $4 $5 $6 $7 $8 $9 X,Y pos of 4 corners*
0 Add a 4 corners polygon primitive as box body*
4,1,4,$2,$3,$4,$5,$6,$7,$8,$9,$2,$3,0*
0 Add four circle primitives for the rounded corners*
1,1,$1+$1,$2,$3*
1,1,$1+$1,$4,$5*
1,1,$1+$1,$6,$7*
1,1,$1+$1,$8,$9*
0 Add four rect primitives between the rounded corners*
20,1,$1+$1,$2,$3,$4,$5,0*
20,1,$1+$1,$4,$5,$6,$7,0*
20,1,$1+$1,$6,$7,$8,$9,0*
20,1,$1+$1,$8,$9,$2,$3,0*%
G04 Aperture macros list end*
%ADD10R,2.550000X2.500000*%
%ADD11RoundRect,0.250000X-0.450000X0.325000X-0.450000X-0.325000X0.450000X-0.325000X0.450000X0.325000X0*%
%ADD12RoundRect,0.193720X0.486280X-0.386280X0.486280X0.386280X-0.486280X0.386280X-0.486280X-0.386280X0*%
%ADD13RoundRect,0.192950X0.512050X-0.374550X0.512050X0.374550X-0.512050X0.374550X-0.512050X-0.374550X0*%
%ADD14RoundRect,0.193720X0.386280X0.486280X-0.386280X0.486280X-0.386280X-0.486280X0.386280X-0.486280X0*%
%ADD15RoundRect,0.193720X-0.486280X0.386280X-0.486280X-0.386280X0.486280X-0.386280X0.486280X0.386280X0*%
%ADD16RoundRect,0.192950X-0.374550X-0.512050X0.374550X-0.512050X0.374550X0.512050X-0.374550X0.512050X0*%
G04 APERTURE END LIST*
D10*
%TO.C,SW9*%
X51306500Y-100584000D03*
X64731500Y-98044000D03*
%TD*%
%TO.C,SW12*%
X109144500Y-100549200D03*
X122569500Y-98009200D03*
%TD*%
%TO.C,SW11*%
X89903500Y-100600000D03*
X103328500Y-98060000D03*
%TD*%
%TO.C,SW13*%
X128480000Y-81280000D03*
X141905000Y-78740000D03*
%TD*%
%TO.C,SW6*%
X70568000Y-81280000D03*
X83993000Y-78740000D03*
%TD*%
%TO.C,SW15*%
X147784000Y-81305400D03*
X161209000Y-78765400D03*
%TD*%
%TO.C,SW10*%
X70610500Y-100584000D03*
X84035500Y-98044000D03*
%TD*%
%TO.C,SW16*%
X147788500Y-100625400D03*
X161213500Y-98085400D03*
%TD*%
%TO.C,SW19*%
X186392000Y-81280000D03*
X199817000Y-78740000D03*
%TD*%
%TO.C,SW7*%
X89872000Y-81280000D03*
X103297000Y-78740000D03*
%TD*%
%TO.C,SW18*%
X167108500Y-100584000D03*
X180533500Y-98044000D03*
%TD*%
%TO.C,SW8*%
X109182100Y-81280000D03*
X122607100Y-78740000D03*
%TD*%
%TO.C,SW17*%
X167088000Y-81280000D03*
X180513000Y-78740000D03*
%TD*%
%TO.C,SW20*%
X186423500Y-100584000D03*
X199848500Y-98044000D03*
%TD*%
%TO.C,SW5*%
X51264000Y-81280000D03*
X64689000Y-78740000D03*
%TD*%
%TO.C,SW14*%
X128491000Y-100584000D03*
X141916000Y-98044000D03*
%TD*%
D11*
%TO.C,D14*%
X180467000Y-74133600D03*
X180467000Y-76183600D03*
%TD*%
D12*
%TO.C,R15*%
X150368000Y-40874000D03*
X150368000Y-38874000D03*
%TD*%
D11*
%TO.C,D13*%
X161294500Y-93507400D03*
X161294500Y-95557400D03*
%TD*%
D13*
%TO.C,C27*%
X66040000Y-40386000D03*
X66040000Y-38311000D03*
%TD*%
D11*
%TO.C,D8*%
X103378000Y-93463000D03*
X103378000Y-95513000D03*
%TD*%
%TO.C,D11*%
X141859000Y-93463000D03*
X141859000Y-95513000D03*
%TD*%
D12*
%TO.C,R13*%
X166878000Y-48256000D03*
X166878000Y-46256000D03*
%TD*%
D13*
%TO.C,C24*%
X71120000Y-40407500D03*
X71120000Y-38332500D03*
%TD*%
%TO.C,C25*%
X50800000Y-40386000D03*
X50800000Y-38311000D03*
%TD*%
D11*
%TO.C,D9*%
X122656600Y-93463000D03*
X122656600Y-95513000D03*
%TD*%
D14*
%TO.C,R8*%
X141217400Y-68275200D03*
X139217400Y-68275200D03*
%TD*%
D15*
%TO.C,R14*%
X181356000Y-46256000D03*
X181356000Y-48256000D03*
%TD*%
D13*
%TO.C,C23*%
X68580000Y-40386000D03*
X68580000Y-38311000D03*
%TD*%
D11*
%TO.C,D4*%
X103360900Y-74199000D03*
X103360900Y-76249000D03*
%TD*%
%TO.C,D10*%
X142240000Y-74133600D03*
X142240000Y-76183600D03*
%TD*%
D13*
%TO.C,C20*%
X58420000Y-40386000D03*
X58420000Y-38311000D03*
%TD*%
%TO.C,C26*%
X53340000Y-40386000D03*
X53340000Y-38311000D03*
%TD*%
D15*
%TO.C,R20*%
X200660000Y-46240000D03*
X200660000Y-48240000D03*
%TD*%
D11*
%TO.C,D15*%
X180487500Y-93355000D03*
X180487500Y-95405000D03*
%TD*%
D12*
%TO.C,R22*%
X123063000Y-69945000D03*
X123063000Y-67945000D03*
%TD*%
D11*
%TO.C,D12*%
X161290000Y-74159000D03*
X161290000Y-76209000D03*
%TD*%
D12*
%TO.C,R11*%
X169672000Y-40874000D03*
X169672000Y-38874000D03*
%TD*%
D11*
%TO.C,D7*%
X84085000Y-93397600D03*
X84085000Y-95447600D03*
%TD*%
%TO.C,D3*%
X83951900Y-74159000D03*
X83951900Y-76209000D03*
%TD*%
D15*
%TO.C,R19*%
X162052000Y-46141000D03*
X162052000Y-48141000D03*
%TD*%
D13*
%TO.C,C17*%
X73660000Y-40407500D03*
X73660000Y-38332500D03*
%TD*%
D12*
%TO.C,R18*%
X186182000Y-48256000D03*
X186182000Y-46256000D03*
%TD*%
D13*
%TO.C,C19*%
X78740000Y-40386000D03*
X78740000Y-38311000D03*
%TD*%
%TO.C,C22*%
X55880000Y-40386000D03*
X55880000Y-38311000D03*
%TD*%
D11*
%TO.C,D16*%
X199898000Y-74133600D03*
X199898000Y-76183600D03*
%TD*%
D15*
%TO.C,R12*%
X142733000Y-46141000D03*
X142733000Y-48141000D03*
%TD*%
D14*
%TO.C,R7*%
X141217400Y-70256400D03*
X139217400Y-70256400D03*
%TD*%
D11*
%TO.C,D6*%
X64770000Y-93463000D03*
X64770000Y-95513000D03*
%TD*%
D12*
%TO.C,R10*%
X131064000Y-40924800D03*
X131064000Y-38924800D03*
%TD*%
%TO.C,R17*%
X188976000Y-40890000D03*
X188976000Y-38890000D03*
%TD*%
D11*
%TO.C,D5*%
X122682000Y-74150000D03*
X122682000Y-76200000D03*
%TD*%
%TO.C,D2*%
X64647900Y-74228000D03*
X64647900Y-76278000D03*
%TD*%
D12*
%TO.C,R21*%
X120777000Y-69945000D03*
X120777000Y-67945000D03*
%TD*%
%TO.C,R16*%
X147574000Y-48240000D03*
X147574000Y-46240000D03*
%TD*%
D13*
%TO.C,C18*%
X81280000Y-40386000D03*
X81280000Y-38311000D03*
%TD*%
%TO.C,C21*%
X60833000Y-40386000D03*
X60833000Y-38311000D03*
%TD*%
D16*
%TO.C,C28*%
X45720000Y-40259000D03*
X47795000Y-40259000D03*
%TD*%
D12*
%TO.C,R9*%
X128270000Y-48256000D03*
X128270000Y-46256000D03*
%TD*%
D11*
%TO.C,D17*%
X199879000Y-93336000D03*
X199879000Y-95386000D03*
%TD*%
M02*
