M48
; DRILL file {KiCad 8.0.6} date 2025-04-15T16:38:26+0100
; FORMAT={-:-/ absolute / inch / decimal}
; #@! TF.CreationDate,2025-04-15T16:38:26+01:00
; #@! TF.GenerationSoftware,Kicad,Pcbnew,8.0.6
; #@! TF.FileFunction,NonPlated,1,2,NPTH
FMAT,2
INCH
; #@! TA.AperFunction,NonPlated,NPTH,ComponentDrill
T1C0.0591
; #@! TA.AperFunction,NonPlated,NPTH,ComponentDrill
T2C0.0669
; #@! TA.AperFunction,NonPlated,NPTH,ComponentDrill
T3C0.0709
; #@! TA.AperFunction,NonPlated,NPTH,ComponentDrill
T4C0.1181
; #@! TA.AperFunction,NonPlated,NPTH,ComponentDrill
T5C0.1575
%
G90
G05
T1
X1.9244Y-1.9945
X1.9244Y-2.1855
T2
X2.11Y-3.3
X2.1117Y-4.06
X2.51Y-3.3
X2.5117Y-4.06
X2.87Y-3.3
X2.8717Y-4.06
X3.27Y-3.3
X3.2717Y-4.06
X3.63Y-3.3
X3.6312Y-4.0606
X4.03Y-3.3
X4.0312Y-4.0606
X4.3888Y-4.0586
X4.3902Y-3.3
X4.7888Y-4.0586
X4.7902Y-3.3
X5.15Y-3.3
X5.1504Y-4.06
X5.55Y-3.3
X5.5504Y-4.06
X5.91Y-3.301
X5.9102Y-4.0616
X6.31Y-3.301
X6.3102Y-4.0616
X6.67Y-3.3
X6.6708Y-4.06
X7.07Y-3.3
X7.0708Y-4.06
X7.43Y-3.3
X7.4312Y-4.06
X7.83Y-3.3
X7.8312Y-4.06
T3
X1.8051Y-1.9827
X1.8051Y-2.1973
T4
X2.16Y-3.2
X2.1617Y-3.96
X2.41Y-3.1
X2.4117Y-3.86
X2.92Y-3.2
X2.9217Y-3.96
X3.17Y-3.1
X3.1717Y-3.86
X3.68Y-3.2
X3.6812Y-3.9606
X3.93Y-3.1
X3.9312Y-3.8606
X4.4388Y-3.9586
X4.4402Y-3.2
X4.6888Y-3.8586
X4.6902Y-3.1
X5.2Y-3.2
X5.2004Y-3.96
X5.45Y-3.1
X5.4504Y-3.86
X5.96Y-3.201
X5.9602Y-3.9616
X6.21Y-3.101
X6.2102Y-3.8616
X6.72Y-3.2
X6.7208Y-3.96
X6.97Y-3.1
X6.9708Y-3.86
X7.48Y-3.2
X7.4812Y-3.96
X7.73Y-3.1
X7.7312Y-3.86
T5
X2.31Y-3.3
X2.3117Y-4.06
X3.07Y-3.3
X3.0717Y-4.06
X3.83Y-3.3
X3.8312Y-4.0606
X4.5888Y-4.0586
X4.5902Y-3.3
X5.35Y-3.3
X5.3504Y-4.06
X6.11Y-3.301
X6.1102Y-4.0616
X6.87Y-3.3
X6.8708Y-4.06
X7.63Y-3.3
X7.6312Y-4.06
M30
